<svg xmlns="http://www.w3.org/2000/svg" width="795" height="279" viewBox="0 0 795 279">
<g>
<path d="M 378.02 196.49 C375.68,197.70 370.83,198.00 353.72,198.00 C341.96,198.00 332.03,197.70 331.67,197.33 C330.75,196.42 330.85,154.77 331.77,153.43 C332.38,152.54 357.46,152.21 373.33,152.88 C375.00,152.95 377.34,154.19 379.08,155.92 C381.42,158.27 381.99,159.70 381.97,163.17 C381.93,167.89 380.21,171.00 377.64,171.00 C376.74,171.00 376.00,171.68 376.00,172.50 C376.00,173.43 376.94,174.00 378.46,174.00 C381.87,174.00 383.37,177.27 383.30,184.58 C383.25,191.69 382.04,194.41 378.02,196.49 ZM 276.79 188.75 C276.50,197.48 276.49,197.50 273.74,197.82 C272.11,198.00 270.78,197.59 270.47,196.79 C270.19,196.05 270.08,185.79 270.23,173.98 L 270.50 152.50 L 287.00 152.44 C306.31,152.37 314.03,153.20 317.45,155.69 C319.74,157.36 319.94,158.14 319.97,165.69 C320.00,172.98 319.76,174.05 317.84,175.40 L 315.67 176.92 L 317.83 178.71 C319.68,180.25 320.02,181.70 320.24,189.00 C320.49,197.14 320.41,197.51 318.25,197.82 C316.10,198.12 316.00,197.82 316.00,191.29 L 316.00 190.91 C316.00,186.57 316.00,183.95 314.72,182.38 C312.79,180.00 307.92,180.00 295.70,180.00 L 294.98 180.00 L 277.08 180.00 ZM 400.50 180.50 L 399.92 198.00 L 397.13 198.00 C395.59,198.00 394.03,197.70 393.67,197.33 C393.30,196.97 393.00,186.89 393.00,174.95 L 393.00 153.23 L 397.25 152.65 C399.59,152.32 409.91,152.41 420.20,152.83 C434.18,153.40 439.59,153.53 441.68,156.23 C443.01,157.93 443.00,160.66 443.00,165.19 C443.00,165.45 443.00,165.71 443.00,165.98 C443.00,174.01 442.81,174.83 440.42,177.08 C437.93,179.42 437.23,179.52 419.17,180.00 ZM 735.03 196.48 C732.72,197.68 728.35,197.99 714.30,197.94 C704.51,197.90 695.55,197.49 694.39,197.02 C691.04,195.67 688.00,191.07 688.00,187.37 C688.00,184.29 688.26,184.00 691.00,184.00 C693.46,184.00 694.00,184.41 694.00,186.28 C694.00,187.53 694.70,189.56 695.56,190.78 C697.06,192.92 697.71,193.00 713.12,193.00 C732.84,193.00 734.95,192.22 734.98,184.90 C735.01,178.48 733.59,178.00 714.74,178.00 C697.00,178.00 695.02,177.64 690.75,173.66 C688.36,171.43 688.00,170.34 688.00,165.27 C688.00,158.73 689.68,155.46 693.85,153.86 C696.99,152.65 729.22,152.58 733.41,153.77 C735.22,154.28 737.02,155.90 738.18,158.05 C740.67,162.64 740.23,165.50 737.05,165.50 C735.44,165.50 734.40,164.81 734.05,163.50 C733.52,161.58 733.18,160.27 732.37,159.38 C730.67,157.50 726.89,157.50 714.89,157.50 L 714.49 157.50 C698.19,157.50 697.79,157.55 695.91,159.86 C692.96,163.51 693.40,168.44 696.90,170.93 C699.54,172.81 701.24,173.00 715.28,173.00 C723.79,173.00 732.15,173.28 733.87,173.62 C742.68,175.39 743.53,192.09 735.03,196.48 ZM 589.00 175.00 L 589.00 198.00 L 584.75 197.99 C584.66,197.99 584.57,197.99 584.48,197.99 C583.93,197.99 583.44,197.99 582.97,197.93 C579.65,197.56 576.62,194.56 552.00,170.64 L 539.50 158.50 L 539.23 176.43 C539.06,187.58 538.54,194.85 537.85,195.68 C536.32,197.53 533.21,197.33 532.82,195.35 C532.65,194.44 532.63,184.31 532.79,172.85 L 533.08 152.00 L 537.08 152.00 C540.45,152.00 541.91,152.75 546.29,156.72 C552.04,161.93 572.11,181.27 578.16,187.41 C580.27,189.57 582.27,191.06 582.61,190.73 C582.94,190.40 583.18,181.98 583.14,172.03 L 583.07 153.92 L 585.60 152.96 C586.99,152.43 588.33,152.00 588.57,152.00 C588.80,152.00 589.00,162.35 589.00,175.00 ZM 337.67 192.33 C338.03,192.70 346.27,193.00 355.98,193.00 C372.64,193.00 373.75,192.88 375.92,190.86 C377.89,189.03 378.16,187.99 377.75,183.80 C377.49,181.09 376.75,178.35 376.09,177.69 C375.28,176.88 368.91,176.40 355.95,176.19 L 337.00 175.88 L 337.00 183.77 C337.00,188.11 337.30,191.97 337.67,192.33 ZM 400.00 156.80 L 400.00 175.13 L 417.09 174.82 C433.66,174.51 434.24,174.43 436.09,172.14 C438.59,169.05 438.59,162.95 436.09,159.86 C434.24,157.57 433.64,157.49 417.09,157.15 ZM 473.00 187.50 C473.00,197.91 472.98,198.00 470.61,198.00 C469.29,198.00 467.97,197.37 467.68,196.61 C467.39,195.84 467.23,185.60 467.32,173.86 L 467.50 152.50 L 475.50 152.66 C479.90,152.74 489.91,152.85 497.75,152.91 C511.25,153.00 512.00,153.10 512.00,154.98 C512.00,156.87 511.17,156.97 492.75,157.23 L 473.50 157.50 L 472.91 171.00 L 491.49 171.00 C507.15,171.00 510.15,171.24 510.64,172.51 C510.96,173.34 510.67,174.69 509.99,175.51 C508.98,176.73 505.48,177.00 490.88,177.00 L 473.00 177.00 ZM 277.00 157.00 L 277.00 174.00 L 294.25 173.98 C303.74,173.98 312.00,173.64 312.60,173.23 C315.77,171.12 316.88,165.03 314.89,160.66 C313.45,157.51 310.40,157.02 291.75,157.01 ZM 644.70 193.00 C642.58,196.84 641.69,197.54 638.72,197.80 C638.54,197.82 638.37,197.84 638.21,197.85 C637.48,197.92 636.92,197.98 636.39,197.86 C634.50,197.43 633.11,194.76 626.26,182.50 C611.13,155.46 609.99,153.10 611.93,152.88 C612.52,152.81 613.56,152.69 614.25,152.61 C615.93,152.42 619.63,157.66 625.48,168.50 C628.15,173.45 631.63,179.75 633.22,182.50 C634.81,185.25 636.36,188.29 636.67,189.25 C637.57,192.06 639.52,191.28 641.00,187.50 C641.76,185.57 642.71,184.00 643.12,184.00 C643.53,184.00 644.17,183.03 644.55,181.85 C644.92,180.66 646.45,177.63 647.94,175.10 C649.43,172.57 652.59,166.90 654.96,162.50 C657.34,158.10 659.72,153.94 660.26,153.25 C661.17,152.09 667.00,151.42 667.00,152.46 C667.00,152.99 664.92,156.81 654.47,175.50 C650.47,182.65 646.08,190.52 644.70,193.00 ZM 337.67 170.33 C338.03,170.70 345.91,171.00 355.17,171.00 C370.67,171.00 372.16,170.84 374.00,169.00 C376.33,166.67 376.61,162.21 374.58,159.44 C373.29,157.67 371.61,157.47 355.08,157.17 L 337.00 156.84 L 337.00 163.25 C337.00,166.78 337.30,169.97 337.67,170.33 ZM 678.77 175.25 L 679.04 198.00 L 673.00 198.00 L 673.00 151.87 L 678.50 152.50 ZM 522.77 175.25 L 523.04 198.00 L 518.00 198.00 L 518.00 151.86 L 520.25 152.18 C522.50,152.50 522.50,152.51 522.77,175.25 ZM 465.19 48.33 C463.84,49.55 461.69,49.91 456.69,49.76 L 450.00 49.56 L 450.00 41.71 C450.00,34.77 450.20,33.89 451.75,34.19 C452.71,34.37 453.64,35.47 453.80,36.63 C454.07,38.51 454.60,38.69 458.58,38.24 C461.98,37.86 463.52,38.16 465.02,39.52 C467.49,41.76 467.58,46.17 465.19,48.33 ZM 439.00 41.78 L 439.00 49.56 L 432.68 49.75 C425.07,49.98 422.00,48.31 422.00,43.97 C422.00,39.81 425.69,37.59 431.52,38.25 C435.71,38.72 436.00,38.60 436.00,36.38 C436.00,34.93 436.59,34.00 437.50,34.00 C438.70,34.00 439.00,35.53 439.00,41.78 ZM 603.00 175.50 C603.00,197.33 602.94,198.00 601.00,198.00 C599.06,198.00 599.00,197.33 599.00,175.50 C599.00,153.67 599.06,153.00 601.00,153.00 C602.94,153.00 603.00,153.67 603.00,175.50 ZM 307.00 48.00 C307.00,49.11 306.33,50.00 305.50,50.00 C304.31,50.00 304.00,48.55 304.00,42.96 L 304.00 35.92 L 311.73 36.21 C319.13,36.49 319.50,36.62 320.41,39.22 C321.93,43.56 319.03,46.00 312.35,46.00 C307.67,46.00 307.00,46.25 307.00,48.00 ZM 417.25 48.75 C414.63,50.76 407.70,50.30 405.19,47.96 C400.47,43.57 404.00,38.00 411.50,38.00 C417.20,38.00 420.50,40.81 419.53,44.84 C419.18,46.30 418.15,48.06 417.25,48.75 ZM 384.25 48.75 C380.75,51.43 371.62,49.52 370.45,45.86 C368.96,41.15 372.61,38.00 379.57,38.00 C386.16,38.00 389.20,44.97 384.25,48.75 ZM 337.17 48.35 C334.85,50.45 328.16,50.50 325.22,48.44 C323.80,47.45 323.00,45.85 323.00,44.00 C323.00,40.25 326.21,38.00 331.57,38.00 C338.20,38.00 341.62,44.32 337.17,48.35 ZM 352.73 45.75 C351.15,48.91 350.01,50.00 348.30,50.00 C347.04,50.00 346.00,49.83 346.00,49.62 C346.00,49.42 344.88,46.72 343.51,43.62 C341.28,38.57 341.20,38.00 342.76,38.01 C343.84,38.02 345.14,39.54 346.18,42.01 C347.10,44.20 348.26,46.00 348.77,46.00 C349.27,46.00 350.27,44.20 351.00,42.00 C352.01,38.95 352.84,38.00 354.51,38.00 C356.13,38.00 357.10,39.03 358.27,42.00 C359.13,44.20 360.21,46.00 360.67,45.99 C361.13,45.98 362.25,44.18 363.18,41.99 C364.12,39.74 365.54,38.00 366.43,38.00 C368.47,38.00 368.47,38.00 365.29,44.48 C361.80,51.59 359.11,51.99 356.58,45.75 L 354.85 41.50 ZM 481.99 47.02 C479.67,51.62 477.35,55.00 476.49,55.00 C474.78,55.00 474.63,54.13 475.96,52.03 C476.48,51.22 476.55,50.32 476.13,50.03 C475.71,49.74 473.90,46.91 472.11,43.75 C469.25,38.71 469.08,38.00 470.68,38.00 C471.82,38.00 473.40,39.68 474.89,42.50 C476.20,44.97 477.56,47.00 477.91,47.00 C478.26,47.00 479.65,44.97 481.00,42.50 C482.35,40.03 484.03,38.00 484.73,38.00 C486.50,38.00 486.47,38.11 481.99,47.02 ZM 426.58 46.68 C429.01,48.46 432.51,48.34 434.43,46.43 C437.66,43.20 435.57,40.78 429.91,41.19 C426.50,41.43 425.43,41.93 425.15,43.43 C424.95,44.50 425.59,45.96 426.58,46.68 ZM 392.00 46.02 C392.00,48.89 391.58,50.00 390.50,50.00 C389.33,50.00 389.00,48.67 389.00,44.00 C389.00,39.33 389.33,38.00 390.50,38.00 C391.33,38.00 392.00,38.47 392.00,39.04 C392.00,39.75 392.60,39.75 393.93,39.04 C396.72,37.54 402.27,37.70 401.76,39.25 C401.53,39.94 400.25,40.63 398.92,40.78 C392.40,41.53 392.00,41.84 392.00,46.02 ZM 327.58 46.68 C331.39,49.47 336.60,47.33 335.82,43.30 C335.29,40.57 326.68,40.69 326.15,43.43 C325.95,44.50 326.59,45.96 327.58,46.68 ZM 455.58 46.68 C456.57,47.41 458.11,48.00 459.00,48.00 C461.62,48.00 464.25,45.52 463.85,43.43 C463.54,41.87 462.63,41.50 459.00,41.50 C455.37,41.50 454.46,41.87 454.15,43.43 C453.95,44.50 454.59,45.96 455.58,46.68 ZM 307.67 43.33 C308.69,44.35 313.90,44.13 316.07,42.96 C317.13,42.40 318.00,41.27 318.00,40.46 C318.00,39.36 316.66,39.00 312.50,39.00 C307.83,39.00 307.00,39.28 307.00,40.83 C307.00,41.84 307.30,42.97 307.67,43.33 ZM 408.25 47.34 C410.54,48.26 413.47,47.94 416.00,46.50 C418.39,45.14 418.24,45.07 412.75,45.04 C407.45,45.00 405.25,46.13 408.25,47.34 ZM 375.25 47.34 C377.67,48.31 380.64,47.99 382.56,46.53 C384.35,45.18 384.08,45.06 379.25,45.03 C374.37,45.00 372.35,46.17 375.25,47.34 ZM 374.00 42.11 C374.00,43.29 381.72,43.26 382.46,42.07 C382.77,41.56 382.16,40.87 381.10,40.53 C378.78,39.80 374.00,40.86 374.00,42.11 ZM 407.00 42.11 C407.00,43.29 414.72,43.26 415.46,42.07 C415.77,41.56 415.16,40.87 414.10,40.53 C411.78,39.80 407.00,40.86 407.00,42.11 Z" fill="rgb(18,63,112)"/>
<path d="M 598.00 198.00 L 598.00 174.97 C598.00,154.57 598.19,151.87 599.64,151.31 C600.54,150.96 602.00,151.14 602.89,151.70 C604.28,152.58 604.54,155.80 604.77,175.36 L 605.04 198.00 L 598.00 198.00 ZM 603.00 175.50 C603.00,153.67 602.94,153.00 601.00,153.00 C599.06,153.00 599.00,153.67 599.00,175.50 C599.00,197.33 599.06,198.00 601.00,198.00 C602.94,198.00 603.00,197.33 603.00,175.50 ZM 380.86 158.04 C380.43,157.37 379.85,156.69 379.08,155.92 C377.34,154.19 375.00,152.95 373.33,152.88 C357.46,152.21 332.38,152.54 331.77,153.43 C330.85,154.77 330.75,196.42 331.67,197.33 C332.03,197.70 341.70,197.99 353.26,198.00 C353.02,198.00 352.79,198.00 352.55,198.00 L 330.00 198.00 L 330.00 176.08 C330.00,164.03 330.27,153.45 330.61,152.58 C331.13,151.21 333.84,151.02 351.36,151.12 C362.44,151.18 372.83,151.52 374.46,151.87 C377.11,152.44 379.52,154.92 380.86,158.04 ZM 319.37 173.64 C319.90,172.35 319.99,170.23 319.97,165.69 C319.94,158.14 319.74,157.36 317.45,155.69 C314.03,153.20 306.31,152.37 287.00,152.44 L 270.50 152.50 L 270.23 173.98 C270.19,177.01 270.17,179.95 270.16,182.65 C270.17,179.81 270.19,176.70 270.23,173.48 L 270.50 151.50 L 291.50 151.50 C310.85,151.50 312.78,151.66 316.00,153.55 C318.89,155.24 319.74,156.54 320.91,161.10 C322.39,166.93 321.99,170.50 319.37,173.64 ZM 512.00 154.98 C512.00,153.10 511.25,153.00 497.75,152.91 C489.91,152.85 479.90,152.74 475.50,152.66 L 467.50 152.50 L 467.34 171.79 L 467.50 151.50 L 512.00 150.96 L 512.00 154.98 ZM 737.15 156.48 C736.08,155.13 734.74,154.15 733.41,153.77 C729.22,152.58 696.99,152.65 693.85,153.86 C693.22,154.10 692.65,154.38 692.13,154.70 C694.47,152.55 696.12,152.04 701.35,151.48 C712.69,150.26 731.06,151.32 734.16,153.36 C735.19,154.04 736.24,155.18 737.15,156.48 ZM 440.38 155.10 C437.61,153.48 431.91,153.31 420.20,152.83 C409.91,152.41 399.59,152.32 397.25,152.65 L 393.48 153.16 L 393.50 151.50 L 435.66 151.50 L 439.33 154.30 ZM 284.37 157.01 L 291.75 157.01 C310.40,157.02 313.45,157.51 314.89,160.66 C316.88,165.03 315.77,171.12 312.60,173.23 C312.21,173.49 308.66,173.73 303.65,173.86 C313.54,173.44 314.29,171.78 314.16,165.50 C314.01,157.74 313.55,157.55 293.97,157.18 ZM 312.89 181.37 C312.02,180.32 308.00,180.01 294.98,180.00 L 295.70 180.00 C307.92,180.00 312.79,180.00 314.72,182.38 C316.00,183.95 316.00,186.57 316.00,190.91 L 316.00 191.29 C316.00,195.14 316.04,196.83 316.51,197.50 L 314.50 197.50 L 314.27 190.12 C314.14,186.06 313.52,182.13 312.89,181.37 ZM 613.62 151.17 C615.86,151.43 616.99,152.48 618.82,156.00 C621.87,161.86 626.85,171.08 630.39,177.46 C628.83,174.65 627.02,171.35 625.48,168.50 C619.63,157.66 615.93,152.42 614.25,152.61 C613.56,152.69 612.52,152.81 611.93,152.88 C610.64,153.03 610.71,154.13 615.40,162.88 C613.69,159.90 612.10,157.31 611.25,156.17 C608.40,152.33 609.19,150.66 613.62,151.17 ZM 319.48 197.47 C320.43,196.87 320.43,195.15 320.24,189.00 C320.07,183.30 319.82,181.17 318.84,179.77 C321.29,182.51 322.26,186.82 321.82,193.02 C321.56,196.66 321.46,197.34 319.48,197.47 ZM 588.51 152.01 C588.15,152.06 586.90,152.47 585.60,152.96 L 583.48 153.77 L 583.50 151.50 L 588.50 151.50 ZM 380.44 174.48 C379.87,174.16 379.22,174.00 378.46,174.00 C376.94,174.00 376.00,173.43 376.00,172.50 C376.00,171.68 376.74,171.00 377.64,171.00 C380.21,171.00 381.93,167.90 381.97,163.19 C381.97,163.26 381.97,163.33 381.97,163.40 C381.93,167.73 380.20,170.98 377.89,171.04 C377.09,171.06 377.70,172.06 379.32,173.38 C379.72,173.71 380.09,174.08 380.44,174.48 ZM 512.00 156.96 L 492.75 157.23 C511.17,156.97 512.00,156.87 512.00,154.98 ZM 443.00 163.75 C442.99,160.07 442.86,157.74 441.68,156.23 C441.58,156.09 441.46,155.96 441.34,155.84 L 443.00 157.10 ZM 382.90 189.88 C383.17,188.44 383.29,186.70 383.30,184.58 C383.32,182.83 383.24,181.31 383.08,180.01 C383.61,182.30 383.72,184.88 383.32,187.50 C383.19,188.38 383.05,189.17 382.90,189.88 ZM 689.46 157.53 C688.46,159.36 688.01,161.83 688.00,165.16 L 688.00 164.95 C688.00,160.79 688.15,159.26 689.46,157.53 ZM 620.11 171.48 C621.84,174.60 623.87,178.24 626.26,182.50 C626.83,183.53 627.37,184.49 627.87,185.39 C627.38,184.53 626.91,183.72 626.49,183.00 C625.07,180.55 622.45,175.82 620.11,171.48 ZM 317.66 178.57 L 315.67 176.92 L 317.34 175.75 L 316.09 177.00 ZM 736.44 165.46 C736.63,165.49 736.83,165.50 737.05,165.50 C739.41,165.50 740.26,163.92 739.52,161.22 C739.82,162.21 739.93,163.11 739.80,163.79 C739.53,165.21 737.91,165.75 736.44,165.46 ZM 393.45 196.73 C393.33,196.41 393.24,194.04 393.19,190.42 C393.29,193.67 393.42,196.00 393.56,196.92 C393.51,196.85 393.47,196.79 393.45,196.73 ZM 633.00 194.32 C634.24,196.29 635.03,197.22 635.79,197.63 C634.86,197.24 634.16,196.30 633.00,194.32 ZM 378.02 196.49 C379.74,195.60 380.95,194.59 381.77,193.16 C380.97,194.62 379.82,195.56 378.02,196.49 ZM 589.00 194.81 L 589.04 198.00 L 589.00 198.00 ZM 582.60 190.74 C582.69,190.61 582.79,189.74 582.88,188.29 C582.80,189.75 582.71,190.63 582.61,190.73 C582.60,190.73 582.60,190.73 582.60,190.74 ZM 396.28 197.97 C396.56,197.99 396.84,198.00 397.13,198.00 L 396.93 198.00 C396.71,198.00 396.49,197.99 396.28,197.97 Z" fill="rgb(142,167,194)"/>
<path d="M 154.00 219.99 C154.00,222.81 151.06,220.34 148.36,215.25 C145.60,210.02 135.26,191.64 133.05,188.00 C132.54,187.18 129.40,181.63 126.07,175.68 C119.47,163.90 112.83,154.72 107.94,150.60 C106.22,149.15 100.69,145.91 95.66,143.40 C82.02,136.58 74.37,130.50 70.85,123.67 C67.69,117.54 68.65,116.82 75.50,120.16 C78.80,121.77 84.20,124.25 87.50,125.67 C90.80,127.09 94.85,128.84 96.50,129.55 C98.15,130.26 101.97,131.79 105.00,132.95 C108.03,134.11 111.40,135.45 112.50,135.93 C113.60,136.41 115.96,137.35 117.74,138.02 C121.51,139.43 126.93,145.12 130.21,151.09 C131.47,153.39 132.95,156.02 133.50,156.94 C139.57,167.03 141.54,170.00 142.17,170.00 C142.58,170.00 143.85,166.74 145.00,162.75 C147.09,155.47 147.77,152.69 149.51,151.64 C150.57,150.99 152.04,150.99 154.48,151.00 C154.77,151.00 155.06,151.00 155.37,151.00 C160.15,151.00 161.93,151.38 162.36,152.50 C162.68,153.33 162.39,154.00 161.71,154.00 C158.77,154.00 158.08,157.58 159.86,163.56 C160.80,166.75 162.01,169.49 162.54,169.66 C163.07,169.82 166.80,164.37 170.83,157.54 C178.92,143.83 181.80,140.40 187.00,138.32 C188.93,137.54 191.40,136.51 192.50,136.02 C199.61,132.84 211.48,128.00 212.16,128.00 C212.61,128.00 217.62,125.75 223.31,123.00 C228.99,120.25 234.18,118.00 234.82,118.00 C238.04,118.00 234.10,125.08 227.09,131.91 C224.12,134.80 218.21,138.66 211.56,142.04 C195.01,150.46 190.85,154.74 179.10,175.50 C175.68,181.55 172.47,187.18 171.97,188.00 C166.29,197.33 154.00,219.21 154.00,219.99 ZM 204.00 161.27 C202.07,161.58 199.71,162.14 198.75,162.52 C197.79,162.90 197.00,162.78 197.00,162.24 C197.00,160.06 201.51,155.78 206.35,153.35 C213.63,149.71 222.87,144.14 227.14,140.83 C231.32,137.58 232.00,137.40 232.00,139.54 C232.00,142.49 228.11,148.68 224.55,151.39 C219.68,155.10 208.28,160.59 204.00,161.27 ZM 106.16 158.67 C109.46,162.18 107.42,163.04 100.50,161.05 C86.94,157.16 78.29,151.47 74.46,143.92 C73.11,141.25 72.00,138.83 72.00,138.53 C72.00,137.22 74.33,138.26 78.52,141.46 C81.01,143.36 87.75,147.48 93.49,150.61 C99.24,153.75 104.94,157.37 106.16,158.67 ZM 138.33 250.75 C137.97,252.89 137.21,254.00 136.12,254.00 C134.40,254.00 127.00,249.39 127.00,248.32 C127.00,247.39 141.23,226.59 142.41,225.80 C143.95,224.77 143.98,225.14 142.83,230.03 C140.90,238.18 138.88,247.46 138.33,250.75 ZM 176.89 249.42 C174.28,251.81 168.16,255.07 167.75,254.28 C167.53,253.85 166.55,249.90 165.59,245.50 C164.62,241.10 163.22,235.03 162.48,232.02 C161.74,229.00 161.35,226.32 161.61,226.05 C162.25,225.42 165.70,229.75 172.59,239.82 C177.38,246.83 178.06,248.35 176.89,249.42 ZM 157.48 252.75 L 158.19 258.00 L 146.74 258.00 L 147.43 252.75 C147.81,249.86 148.76,245.57 149.56,243.22 C150.35,240.86 151.00,237.37 151.00,235.47 C151.00,233.21 151.48,232.00 152.36,232.00 C153.28,232.00 153.92,233.93 154.35,238.05 C154.69,241.37 155.38,244.86 155.87,245.80 C156.37,246.73 157.09,249.86 157.48,252.75 ZM 208.50 173.00 C206.30,173.97 202.91,174.99 200.97,175.28 C197.30,175.82 191.00,173.83 191.00,172.12 C191.00,171.04 191.34,170.92 201.43,168.49 C205.24,167.57 210.75,165.76 213.68,164.46 C217.58,162.74 219.00,162.46 219.00,163.44 C219.00,165.52 212.90,171.07 208.50,173.00 ZM 112.71 173.44 C111.10,175.05 102.60,175.47 98.47,174.15 C93.66,172.61 84.92,164.75 86.39,163.28 C86.68,162.99 89.75,163.87 93.21,165.23 C96.67,166.59 102.43,168.28 106.00,168.99 C113.63,170.51 114.84,171.31 112.71,173.44 ZM 119.83 184.63 C119.54,187.12 119.03,187.54 116.00,187.77 C113.55,187.96 111.65,187.36 109.67,185.75 L 106.84 183.46 L 112.58 181.69 C118.99,179.72 120.33,180.26 119.83,184.63 ZM 194.97 185.88 C189.30,189.33 185.00,188.25 185.00,183.36 C185.00,180.09 185.99,179.90 192.54,181.93 L 198.45 183.76 Z" fill="rgb(211,183,123)"/>
<path d="M 0.00 139.50 L 0.00 0.00 L 397.50 0.00 L 795.00 0.00 L 795.00 139.50 L 795.00 279.00 L 397.50 279.00 L 0.00 279.00 L 0.00 139.50 ZM 157.48 252.75 C157.09,249.86 156.37,246.73 155.87,245.80 C155.38,244.86 154.69,241.37 154.35,238.05 C153.92,233.93 153.28,232.00 152.36,232.00 C151.48,232.00 151.00,233.21 151.00,235.47 C151.00,237.37 150.35,240.86 149.56,243.22 C148.76,245.57 147.81,249.86 147.43,252.75 L 146.74 258.00 L 152.47 258.00 L 158.19 258.00 L 157.48 252.75 ZM 176.89 249.42 C178.06,248.35 177.38,246.83 172.59,239.82 C165.70,229.75 162.25,225.42 161.61,226.05 C161.35,226.32 161.74,229.00 162.48,232.02 C163.22,235.03 164.62,241.10 165.59,245.50 C166.55,249.90 167.53,253.85 167.75,254.28 C168.16,255.07 174.28,251.81 176.89,249.42 ZM 138.33 250.75 C138.88,247.46 140.90,238.18 142.83,230.03 C143.98,225.14 143.95,224.77 142.41,225.80 C141.23,226.59 127.00,247.39 127.00,248.32 C127.00,249.39 134.40,254.00 136.12,254.00 C137.21,254.00 137.97,252.89 138.33,250.75 ZM 154.00 219.99 C154.00,219.21 166.29,197.33 171.97,188.00 C172.47,187.18 175.68,181.55 179.10,175.50 C190.85,154.74 195.01,150.46 211.56,142.04 C218.21,138.66 224.12,134.80 227.09,131.91 C234.10,125.08 238.04,118.00 234.82,118.00 C234.18,118.00 228.99,120.25 223.31,123.00 C217.62,125.75 212.61,128.00 212.16,128.00 C211.48,128.00 199.61,132.84 192.50,136.02 C191.40,136.51 188.93,137.54 187.00,138.32 C181.80,140.40 178.92,143.83 170.83,157.54 C166.80,164.37 163.07,169.82 162.54,169.66 C162.01,169.49 160.80,166.75 159.86,163.56 C158.08,157.58 158.77,154.00 161.71,154.00 C162.39,154.00 162.68,153.33 162.36,152.50 C161.93,151.38 160.15,151.00 155.37,151.00 C148.05,151.00 148.53,150.46 145.00,162.75 C143.85,166.74 142.58,170.00 142.17,170.00 C141.54,170.00 139.57,167.03 133.50,156.94 C132.95,156.02 131.47,153.39 130.21,151.09 C126.93,145.12 121.51,139.43 117.74,138.02 C115.96,137.35 113.60,136.41 112.50,135.93 C111.40,135.45 108.03,134.11 105.00,132.95 C101.97,131.79 98.15,130.26 96.50,129.55 C94.85,128.84 90.80,127.09 87.50,125.67 C84.20,124.25 78.80,121.77 75.50,120.16 C68.65,116.82 67.69,117.54 70.85,123.67 C74.37,130.50 82.02,136.58 95.66,143.40 C100.69,145.91 106.22,149.15 107.94,150.60 C112.83,154.72 119.47,163.90 126.07,175.68 C129.40,181.63 132.54,187.18 133.05,188.00 C135.26,191.64 145.60,210.02 148.36,215.25 C151.06,220.34 154.00,222.81 154.00,219.99 ZM 276.79 188.75 L 277.08 180.00 L 294.42 180.00 C307.89,180.00 312.01,180.31 312.89,181.37 C313.52,182.13 314.14,186.06 314.27,190.12 L 314.50 197.50 L 318.00 197.50 C321.43,197.50 321.51,197.41 321.82,193.02 C322.28,186.53 321.20,182.11 318.48,179.39 L 316.09 177.00 L 318.50 174.59 C321.89,171.20 322.55,167.52 320.91,161.10 C319.74,156.54 318.89,155.24 316.00,153.55 C312.78,151.66 310.85,151.50 291.50,151.50 L 270.50 151.50 L 270.23 173.48 C270.08,185.56 270.19,196.06 270.47,196.79 C270.78,197.59 272.12,198.00 273.74,197.82 C276.49,197.50 276.50,197.48 276.79,188.75 ZM 378.02 196.49 C381.46,194.71 382.51,192.92 383.32,187.50 C384.20,181.67 382.61,176.07 379.32,173.38 C377.70,172.06 377.09,171.06 377.89,171.04 C380.20,170.98 381.93,167.73 381.97,163.40 C382.01,158.10 378.52,152.74 374.46,151.87 C372.83,151.52 362.44,151.18 351.36,151.12 C333.84,151.02 331.13,151.21 330.61,152.58 C330.27,153.45 330.00,164.03 330.00,176.08 L 330.00 198.00 L 352.55 198.00 C370.71,198.00 375.67,197.71 378.02,196.49 ZM 400.21 189.25 L 400.50 180.50 L 419.17 180.00 C437.23,179.52 437.93,179.42 440.42,177.08 C442.81,174.83 443.00,174.01 443.00,165.88 L 443.00 157.10 L 439.33 154.30 L 435.66 151.50 L 414.58 151.50 L 393.50 151.50 L 393.23 173.48 C393.08,185.56 393.18,196.03 393.45,196.73 C393.72,197.43 395.28,198.00 396.93,198.00 L 399.92 198.00 L 400.21 189.25 ZM 473.00 187.50 L 473.00 177.00 L 490.88 177.00 C505.48,177.00 508.98,176.73 509.99,175.51 C510.67,174.69 510.96,173.34 510.64,172.51 C510.15,171.24 507.15,171.00 491.49,171.00 L 472.91 171.00 L 473.20 164.25 L 473.50 157.50 L 492.75 157.23 L 512.00 156.96 L 512.00 153.96 L 512.00 150.96 L 489.75 151.23 L 467.50 151.50 L 467.33 173.37 C467.23,185.40 467.39,195.86 467.68,196.62 C467.98,197.38 469.29,198.00 470.61,198.00 C472.98,198.00 473.00,197.91 473.00,187.50 ZM 522.77 175.25 C522.50,152.51 522.50,152.50 520.25,152.18 L 518.00 151.86 L 518.00 174.93 L 518.00 198.00 L 520.52 198.00 L 523.04 198.00 L 522.77 175.25 ZM 588.77 174.75 L 588.50 151.50 L 586.00 151.50 L 583.50 151.50 L 583.34 170.83 C583.25,181.46 582.92,190.42 582.59,190.74 C582.27,191.06 580.27,189.57 578.16,187.41 C572.11,181.27 552.04,161.93 546.29,156.72 C541.91,152.75 540.45,152.00 537.08,152.00 L 533.08 152.00 L 532.79 172.85 C532.63,184.31 532.65,194.44 532.82,195.35 C533.21,197.33 536.32,197.53 537.85,195.68 C538.54,194.85 539.06,187.58 539.23,176.43 L 539.50 158.50 L 552.00 170.64 C580.74,198.55 580.05,197.98 584.77,197.99 L 589.04 198.00 L 588.77 174.75 ZM 604.77 175.36 C604.54,155.80 604.28,152.58 602.89,151.70 C602.00,151.14 600.54,150.96 599.64,151.31 C598.19,151.87 598.00,154.57 598.00,174.97 L 598.00 198.00 L 601.52 198.00 L 605.04 198.00 L 604.77 175.36 ZM 644.70 193.00 C646.08,190.52 650.47,182.65 654.47,175.50 C664.92,156.81 667.00,152.99 667.00,152.46 C667.00,151.42 661.17,152.09 660.26,153.25 C659.72,153.94 657.34,158.10 654.96,162.50 C652.59,166.90 649.43,172.57 647.94,175.10 C646.45,177.63 644.92,180.66 644.55,181.85 C644.17,183.03 643.53,184.00 643.12,184.00 C642.71,184.00 641.76,185.57 641.00,187.50 C639.52,191.28 637.57,192.06 636.67,189.25 C636.36,188.29 634.81,185.25 633.22,182.50 C630.21,177.28 622.85,163.73 618.82,156.00 C616.99,152.48 615.86,151.43 613.62,151.17 C609.19,150.66 608.40,152.33 611.25,156.17 C612.61,158.00 615.88,163.55 618.51,168.50 C621.15,173.45 624.74,179.98 626.49,183.00 C628.24,186.02 630.91,190.66 632.41,193.31 C634.96,197.78 635.40,198.09 638.68,197.81 C641.70,197.54 642.57,196.85 644.70,193.00 ZM 678.77 175.25 L 678.50 152.50 L 675.75 152.18 L 673.00 151.87 L 673.00 174.93 L 673.00 198.00 L 676.02 198.00 L 679.04 198.00 L 678.77 175.25 ZM 735.03 196.48 C743.53,192.09 742.68,175.39 733.87,173.62 C732.15,173.28 723.79,173.00 715.28,173.00 C701.24,173.00 699.54,172.81 696.90,170.93 C693.40,168.44 692.96,163.51 695.91,159.86 C697.79,157.55 698.19,157.50 714.49,157.50 C732.55,157.50 732.40,157.45 734.05,163.50 C734.74,166.05 739.32,166.28 739.80,163.79 C740.31,161.17 737.14,155.33 734.16,153.36 C731.06,151.32 712.69,150.26 701.35,151.48 C695.53,152.10 694.14,152.66 691.30,155.50 C688.28,158.52 688.00,159.33 688.00,164.95 C688.00,170.37 688.33,171.40 690.75,173.66 C695.02,177.64 697.00,178.00 714.74,178.00 C733.59,178.00 735.01,178.48 734.98,184.90 C734.95,192.22 732.84,193.00 713.12,193.00 C697.71,193.00 697.06,192.92 695.56,190.78 C694.70,189.56 694.00,187.53 694.00,186.28 C694.00,184.41 693.46,184.00 691.00,184.00 C688.26,184.00 688.00,184.29 688.00,187.37 C688.00,191.07 691.04,195.67 694.39,197.02 C695.55,197.49 704.51,197.90 714.30,197.94 C728.35,197.99 732.72,197.68 735.03,196.48 ZM 119.83 184.63 C120.33,180.26 118.99,179.72 112.58,181.69 L 106.84 183.46 L 109.67 185.75 C111.65,187.36 113.55,187.96 116.00,187.77 C119.03,187.54 119.54,187.12 119.83,184.63 ZM 194.97 185.88 L 198.45 183.76 L 192.54 181.93 C185.99,179.90 185.00,180.09 185.00,183.36 C185.00,188.25 189.30,189.33 194.97,185.88 ZM 208.50 173.00 C212.90,171.07 219.00,165.52 219.00,163.44 C219.00,162.46 217.58,162.74 213.68,164.46 C210.75,165.76 205.24,167.57 201.43,168.49 C191.34,170.92 191.00,171.04 191.00,172.12 C191.00,173.83 197.30,175.82 200.97,175.28 C202.91,174.99 206.30,173.97 208.50,173.00 ZM 112.71 173.44 C114.84,171.31 113.63,170.51 106.00,168.99 C102.43,168.28 96.67,166.59 93.21,165.23 C89.75,163.87 86.68,162.99 86.39,163.28 C84.92,164.75 93.66,172.61 98.47,174.15 C102.60,175.47 111.10,175.05 112.71,173.44 ZM 106.16 158.67 C104.94,157.37 99.24,153.75 93.49,150.61 C87.75,147.48 81.01,143.36 78.52,141.46 C74.33,138.26 72.00,137.22 72.00,138.53 C72.00,138.83 73.11,141.25 74.46,143.92 C78.29,151.47 86.94,157.16 100.50,161.05 C107.42,163.04 109.46,162.18 106.16,158.67 ZM 204.00 161.27 C208.28,160.59 219.68,155.10 224.55,151.39 C228.11,148.68 232.00,142.49 232.00,139.54 C232.00,137.40 231.32,137.58 227.14,140.83 C222.87,144.14 213.63,149.71 206.35,153.35 C201.51,155.78 197.00,160.06 197.00,162.24 C197.00,162.78 197.79,162.90 198.75,162.52 C199.71,162.14 202.07,161.58 204.00,161.27 ZM 481.99 47.02 C486.47,38.11 486.50,38.00 484.73,38.00 C484.03,38.00 482.35,40.03 481.00,42.50 C479.65,44.97 478.26,47.00 477.91,47.00 C477.56,47.00 476.20,44.97 474.89,42.50 C473.40,39.68 471.82,38.00 470.68,38.00 C469.08,38.00 469.25,38.71 472.11,43.75 C473.90,46.91 475.71,49.74 476.13,50.03 C476.55,50.32 476.48,51.22 475.96,52.03 C474.63,54.13 474.78,55.00 476.49,55.00 C477.35,55.00 479.67,51.62 481.99,47.02 ZM 307.00 48.00 C307.00,46.25 307.67,46.00 312.35,46.00 C319.03,46.00 321.93,43.56 320.41,39.22 C319.50,36.62 319.13,36.49 311.73,36.21 L 304.00 35.92 L 304.00 42.96 C304.00,48.55 304.31,50.00 305.50,50.00 C306.33,50.00 307.00,49.11 307.00,48.00 ZM 337.17 48.35 C341.62,44.32 338.20,38.00 331.57,38.00 C326.21,38.00 323.00,40.25 323.00,44.00 C323.00,45.85 323.80,47.45 325.22,48.44 C328.16,50.50 334.85,50.45 337.17,48.35 ZM 352.73 45.75 L 354.85 41.50 L 356.58 45.75 C359.11,51.99 361.80,51.59 365.29,44.48 C368.47,38.00 368.47,38.00 366.43,38.00 C365.54,38.00 364.12,39.74 363.18,41.99 C362.25,44.18 361.13,45.98 360.67,45.99 C360.21,46.00 359.13,44.20 358.27,42.00 C357.10,39.03 356.13,38.00 354.51,38.00 C352.84,38.00 352.01,38.95 351.00,42.00 C350.27,44.20 349.27,46.00 348.77,46.00 C348.26,46.00 347.10,44.20 346.18,42.01 C345.14,39.54 343.84,38.02 342.76,38.01 C341.20,38.00 341.28,38.57 343.51,43.62 C344.88,46.72 346.00,49.42 346.00,49.62 C346.00,49.83 347.04,50.00 348.30,50.00 C350.01,50.00 351.15,48.91 352.73,45.75 ZM 384.25 48.75 C389.20,44.97 386.16,38.00 379.57,38.00 C372.61,38.00 368.96,41.15 370.45,45.86 C371.62,49.52 380.75,51.43 384.25,48.75 ZM 392.00 46.02 C392.00,41.84 392.40,41.53 398.92,40.78 C400.25,40.63 401.53,39.94 401.76,39.25 C402.27,37.70 396.72,37.54 393.93,39.04 C392.60,39.75 392.00,39.75 392.00,39.04 C392.00,38.47 391.33,38.00 390.50,38.00 C389.33,38.00 389.00,39.33 389.00,44.00 C389.00,48.67 389.33,50.00 390.50,50.00 C391.58,50.00 392.00,48.89 392.00,46.02 ZM 417.25 48.75 C418.15,48.06 419.18,46.30 419.53,44.84 C420.50,40.81 417.20,38.00 411.50,38.00 C404.00,38.00 400.47,43.57 405.19,47.96 C407.70,50.30 414.63,50.76 417.25,48.75 ZM 439.00 41.78 C439.00,35.53 438.70,34.00 437.50,34.00 C436.59,34.00 436.00,34.93 436.00,36.38 C436.00,38.60 435.71,38.72 431.52,38.25 C425.69,37.59 422.00,39.81 422.00,43.97 C422.00,48.31 425.07,49.98 432.68,49.75 L 439.00 49.56 L 439.00 41.78 ZM 465.19 48.33 C467.58,46.17 467.49,41.76 465.02,39.52 C463.52,38.16 461.98,37.86 458.58,38.24 C454.60,38.69 454.07,38.51 453.80,36.63 C453.64,35.47 452.71,34.37 451.75,34.19 C450.20,33.89 450.00,34.77 450.00,41.71 L 450.00 49.56 L 456.69 49.76 C461.69,49.91 463.84,49.55 465.19,48.33 ZM 277.00 165.43 L 277.00 156.87 L 293.97 157.18 C313.55,157.55 314.01,157.74 314.16,165.50 C314.32,173.49 313.07,174.00 293.39,174.00 L 277.00 174.00 L 277.00 165.43 ZM 337.67 192.33 C337.30,191.97 337.00,188.11 337.00,183.77 L 337.00 175.88 L 355.95 176.19 C368.91,176.40 375.28,176.88 376.09,177.69 C376.75,178.35 377.49,181.09 377.75,183.80 C378.16,187.99 377.89,189.03 375.92,190.86 C373.75,192.88 372.64,193.00 355.98,193.00 C346.27,193.00 338.03,192.70 337.67,192.33 ZM 337.67 170.33 C337.30,169.97 337.00,166.78 337.00,163.25 L 337.00 156.84 L 355.08 157.17 C371.61,157.47 373.29,157.67 374.58,159.44 C376.61,162.21 376.33,166.67 374.00,169.00 C372.16,170.84 370.67,171.00 355.17,171.00 C345.91,171.00 338.03,170.70 337.67,170.33 ZM 400.00 165.97 L 400.00 156.80 L 417.09 157.15 C433.64,157.49 434.24,157.57 436.09,159.86 C438.59,162.95 438.59,169.05 436.09,172.14 C434.24,174.43 433.66,174.51 417.09,174.82 L 400.00 175.13 L 400.00 165.97 ZM 307.67 43.33 C307.30,42.97 307.00,41.84 307.00,40.83 C307.00,39.28 307.83,39.00 312.50,39.00 C316.66,39.00 318.00,39.36 318.00,40.46 C318.00,41.27 317.13,42.40 316.07,42.96 C313.90,44.13 308.69,44.35 307.67,43.33 ZM 327.58 46.68 C326.59,45.96 325.95,44.50 326.15,43.43 C326.68,40.69 335.29,40.57 335.82,43.30 C336.60,47.33 331.39,49.47 327.58,46.68 ZM 375.25 47.34 C372.35,46.17 374.37,45.00 379.25,45.03 C384.08,45.06 384.35,45.18 382.56,46.53 C380.64,47.99 377.67,48.31 375.25,47.34 ZM 374.00 42.11 C374.00,40.86 378.78,39.80 381.10,40.53 C382.16,40.87 382.77,41.56 382.46,42.07 C381.72,43.26 374.00,43.29 374.00,42.11 ZM 408.25 47.34 C405.25,46.13 407.45,45.00 412.75,45.04 C418.24,45.07 418.39,45.14 416.00,46.50 C413.47,47.94 410.54,48.26 408.25,47.34 ZM 407.00 42.11 C407.00,40.86 411.78,39.80 414.10,40.53 C415.16,40.87 415.77,41.56 415.46,42.07 C414.72,43.26 407.00,43.29 407.00,42.11 ZM 426.58 46.68 C425.59,45.96 424.95,44.50 425.15,43.43 C425.43,41.93 426.50,41.43 429.91,41.19 C435.57,40.78 437.66,43.20 434.43,46.43 C432.51,48.34 429.01,48.46 426.58,46.68 ZM 455.58 46.68 C454.59,45.96 453.95,44.50 454.15,43.43 C454.46,41.87 455.37,41.50 459.00,41.50 C462.63,41.50 463.54,41.87 463.85,43.43 C464.25,45.52 461.62,48.00 459.00,48.00 C458.11,48.00 456.57,47.41 455.58,46.68 Z" fill="rgb(254,254,254)"/>
</g>
</svg>