<svg xmlns="http://www.w3.org/2000/svg" width="880" height="188" viewBox="0 0 880 188">
<g>
<path d="M 819.30 159.39 C816.39,160.85 802.17,160.99 665.30,160.94 L 514.50 160.88 L 510.97 158.57 C509.04,157.30 506.11,154.32 504.47,151.96 L 501.50 147.67 L 501.20 105.88 C501.00,77.88 501.26,62.75 501.99,60.03 C502.59,57.80 504.43,54.44 506.07,52.57 C506.82,51.72 507.32,50.98 507.93,50.34 C512.04,45.98 520.78,45.98 639.52,46.02 C647.63,46.02 656.26,46.02 665.43,46.02 C762.80,46.04 814.02,46.40 817.00,47.08 C819.68,47.70 822.81,49.38 824.75,51.25 L 828.00 54.39 L 828.00 152.63 L 825.25 155.20 C823.74,156.61 821.06,158.50 819.30,159.39 ZM 436.91 159.03 C429.89,161.12 415.23,161.56 405.78,159.97 C395.58,158.25 385.33,151.37 381.24,143.50 C374.82,131.11 375.65,104.76 383.05,86.17 C389.43,70.17 398.52,58.57 408.50,53.68 C416.21,49.92 419.82,49.63 427.53,52.16 C433.08,53.98 435.32,55.44 440.38,60.51 C447.29,67.45 453.18,77.38 456.11,87.00 C457.20,90.57 458.63,95.30 459.30,97.50 C460.03,99.93 460.50,107.98 460.49,118.00 C460.48,132.76 460.24,135.09 458.23,140.08 C454.32,149.79 447.46,155.88 436.91,159.03 ZM 156.07 153.40 C152.26,157.21 151.66,157.45 145.08,157.83 C138.69,158.19 137.92,158.01 135.56,155.65 C132.23,152.32 132.31,150.43 136.40,134.08 C141.59,113.38 142.27,108.08 141.86,91.40 C141.48,75.66 140.76,73.00 136.93,73.00 C131.92,73.00 123.61,91.33 115.45,120.35 C113.76,126.33 111.14,130.00 108.54,130.00 C104.84,130.00 101.69,123.45 97.45,107.00 C96.53,103.43 95.16,99.08 94.39,97.35 C93.63,95.62 93.00,93.74 93.00,93.19 C93.00,92.63 91.40,88.42 89.43,83.84 C85.87,75.50 82.72,71.00 80.44,71.00 C73.91,71.00 73.40,112.28 79.61,136.98 C82.63,148.96 82.64,152.05 79.69,154.83 C75.57,158.69 62.50,156.68 59.88,151.77 C59.29,150.68 58.47,142.52 58.06,133.64 C57.04,111.71 60.04,53.68 62.50,47.71 C64.40,43.11 73.79,41.69 82.54,44.67 C89.81,47.15 95.78,53.97 102.63,67.63 C105.78,73.91 108.91,79.51 109.59,80.08 C111.05,81.29 111.79,80.35 119.41,67.58 C125.90,56.69 132.87,48.62 138.04,45.98 C145.76,42.04 156.45,44.12 159.60,50.17 C161.14,53.11 161.39,57.89 161.78,91.00 C162.05,113.67 161.81,132.62 161.17,138.93 C160.12,149.24 160.06,149.41 156.07,153.40 ZM 261.62 157.09 C258.22,158.63 255.31,158.93 245.00,158.79 C230.25,158.60 227.08,158.43 203.74,156.54 C193.97,155.75 184.79,154.51 183.33,153.80 C178.18,151.27 176.49,147.63 176.57,139.17 C176.67,127.05 180.32,120.78 191.48,113.57 C194.51,111.61 199.48,108.40 202.50,106.45 C205.52,104.49 208.00,102.29 208.00,101.54 C208.00,100.80 205.54,98.56 202.54,96.57 C199.54,94.58 193.55,89.45 189.23,85.17 C182.20,78.20 181.13,76.64 179.09,70.27 C175.03,57.65 178.26,50.19 188.79,47.86 C195.40,46.40 231.83,46.14 253.36,47.40 C266.59,48.18 267.35,48.34 270.36,51.03 C273.41,53.76 273.50,54.07 273.50,62.34 C273.50,69.96 273.25,71.11 271.08,73.42 C268.27,76.41 265.41,76.65 258.41,74.48 C246.51,70.81 235.06,68.90 221.60,68.35 C205.12,67.68 202.00,68.40 202.00,72.85 C202.00,75.08 203.05,76.62 206.50,79.45 C212.63,84.47 226.26,91.28 236.69,94.53 C248.94,98.35 252.16,102.26 247.66,107.86 C246.28,109.59 238.51,113.09 229.62,116.00 C214.51,120.94 200.00,129.20 200.00,132.85 C200.00,133.86 200.95,135.55 202.10,136.60 C203.94,138.26 206.16,138.54 219.85,138.85 C235.70,139.20 247.29,138.03 253.42,135.47 C255.20,134.72 258.88,133.82 261.58,133.46 C265.76,132.91 266.93,133.15 269.36,135.07 C271.99,137.14 272.19,137.74 271.78,142.59 C271.24,149.09 267.52,154.41 261.62,157.09 ZM 340.20 158.88 C334.24,160.14 320.96,160.18 313.65,158.95 C299.65,156.60 289.32,146.90 285.65,132.66 C283.76,125.33 285.00,105.36 288.06,94.00 C292.45,77.66 303.46,60.07 313.33,53.62 C325.35,45.76 336.45,46.92 347.61,57.21 C351.54,60.83 352.00,61.73 352.00,65.73 C352.00,69.44 351.47,70.69 348.89,73.10 C344.83,76.90 342.10,76.76 336.99,72.49 C334.68,70.56 331.74,68.72 330.45,68.40 C326.17,67.32 321.14,69.88 316.80,75.34 C308.69,85.55 305.04,97.53 305.01,114.04 C305.00,123.00 305.34,125.25 307.25,129.04 C310.35,135.19 315.99,138.00 325.24,138.00 C337.20,138.00 344.00,133.01 344.00,124.24 C344.00,120.07 343.57,119.24 339.50,115.45 C337.02,113.14 335.00,110.85 335.00,110.35 C335.00,109.84 338.04,108.26 341.75,106.82 C352.23,102.76 356.94,101.54 358.01,102.61 C359.28,103.88 362.21,136.29 361.37,139.77 C358.92,149.97 351.77,156.43 340.20,158.88 ZM 407.68 137.55 C413.59,139.66 427.28,139.41 431.79,137.11 C439.62,133.11 441.89,127.88 441.96,113.73 C442.05,91.73 431.19,70.00 420.10,70.00 C413.78,70.00 408.98,74.52 403.11,86.00 C398.00,96.00 396.59,102.35 396.54,115.50 C396.50,129.85 398.78,134.38 407.68,137.55 ZM 620.54 131.41 C629.41,134.66 638.99,132.90 645.60,126.80 C655.34,117.83 655.35,101.78 645.62,93.24 C641.00,89.18 632.41,86.59 626.71,87.54 C610.63,90.22 602.44,105.79 609.38,120.50 C612.21,126.50 615.25,129.47 620.54,131.41 ZM 694.70 131.73 C700.79,133.71 710.35,132.70 715.07,129.57 C719.14,126.88 723.31,121.32 722.39,119.82 C721.39,118.21 712.61,119.01 708.28,121.11 C705.21,122.59 702.96,123.03 700.59,122.58 C696.73,121.86 691.28,117.32 692.64,115.96 C693.14,115.46 700.51,114.93 709.02,114.78 L 724.50 114.50 L 724.80 109.84 C725.58,97.83 715.70,88.07 702.72,88.02 C688.66,87.97 678.45,99.65 680.36,113.59 C680.69,116.04 681.61,119.27 682.39,120.78 C684.63,125.12 690.56,130.39 694.70,131.73 ZM 572.64 128.25 C573.26,131.98 573.29,132.00 578.07,132.00 C580.76,132.00 583.21,131.47 583.63,130.79 C584.04,130.12 584.28,125.51 584.16,120.54 C584.04,115.57 584.31,110.96 584.75,110.30 C585.24,109.57 588.74,108.97 593.53,108.80 L 601.50 108.50 L 601.50 98.50 L 594.04 98.20 C589.94,98.04 586.01,97.42 585.29,96.83 C583.89,95.66 583.56,89.25 584.80,87.30 C585.26,86.57 588.71,85.98 593.53,85.80 L 601.50 85.50 L 602.12 81.00 C602.47,78.53 602.55,76.16 602.31,75.75 C602.08,75.34 595.45,75.00 587.59,75.00 L 573.31 75.00 L 572.66 86.25 C571.84,100.46 571.83,123.34 572.64,128.25 ZM 728.00 130.50 C728.00,131.65 729.28,132.00 733.50,132.00 C739.68,132.00 741.21,130.96 745.04,124.15 C746.32,121.87 747.85,120.02 748.43,120.05 C749.02,120.07 751.17,122.77 753.22,126.05 L 756.94 132.00 L 762.91 132.00 C769.65,132.00 771.09,130.85 768.29,127.68 C767.23,126.48 765.62,124.38 764.71,123.00 C763.80,121.62 761.48,118.25 759.54,115.50 C757.61,112.75 756.02,110.03 756.02,109.45 C756.01,108.87 758.47,104.49 761.50,99.72 C764.53,94.95 767.00,90.59 767.00,90.03 C767.00,89.44 764.45,89.00 761.04,89.00 L 755.08 89.00 L 752.45 93.50 C751.00,95.97 749.40,98.00 748.90,98.00 C748.39,98.00 746.75,96.20 745.24,94.01 C742.14,89.50 740.34,88.74 733.72,89.19 L 729.07 89.50 L 734.08 97.34 C741.76,109.36 741.74,109.75 732.87,122.19 C730.19,125.94 728.00,129.68 728.00,130.50 ZM 657.63 118.51 L 658.30 132.00 L 662.45 132.00 C664.73,132.00 667.14,131.46 667.80,130.80 C668.60,130.00 669.00,125.54 669.00,117.35 C669.00,110.58 669.49,104.02 670.10,102.69 C670.70,101.36 672.61,99.65 674.35,98.89 C677.21,97.63 677.50,97.09 677.50,93.00 C677.50,89.06 677.21,88.46 675.19,88.17 C673.92,87.99 671.81,88.55 670.49,89.41 C669.02,90.37 667.87,90.60 667.49,89.99 C667.16,89.44 664.95,89.00 662.58,89.00 L 658.29 89.00 L 657.62 97.01 C657.25,101.42 657.26,111.10 657.63,118.51 ZM 633.16 122.00 C632.06,122.00 630.56,122.21 629.83,122.46 C627.66,123.21 622.08,119.66 619.96,116.18 C612.61,104.09 628.54,92.45 638.63,102.54 C640.56,104.47 641.00,105.95 641.00,110.53 C641.00,115.41 640.61,116.54 638.08,119.08 C636.47,120.68 634.26,122.00 633.16,122.00 ZM 708.30 105.35 C702.11,106.37 695.51,106.09 693.64,104.72 C692.01,103.53 692.06,103.30 694.35,101.14 C697.67,98.03 703.54,97.40 708.00,99.70 C712.95,102.25 713.07,104.56 708.30,105.35 Z" fill="rgb(10,56,136)"/>
<path d="M 75.76 43.00 C76.80,43.00 79.85,43.75 82.54,44.67 C76.69,42.67 70.55,42.65 66.56,44.23 C67.96,43.50 69.43,43.00 70.51,43.00 C71.39,43.00 71.84,42.55 71.50,42.00 C71.16,41.45 71.84,41.00 73.00,41.00 C74.16,41.00 74.84,41.45 74.50,42.00 C74.16,42.55 74.73,43.00 75.76,43.00 Z" fill="rgb(53,83,138)"/>
<path d="M 287.97 94.32 C285.14,105.12 283.91,123.30 285.37,131.38 C284.52,127.89 284.11,124.70 284.49,123.19 C284.86,121.70 284.64,120.39 283.93,119.96 C282.52,119.08 283.60,106.00 285.08,106.00 C285.59,106.00 286.00,104.98 286.00,103.73 C286.00,101.79 286.76,98.33 287.97,94.32 ZM 75.76 43.00 C74.73,43.00 74.16,42.55 74.50,42.00 C74.84,41.45 74.16,41.00 73.00,41.00 C71.84,41.00 71.16,41.45 71.50,42.00 C71.84,42.55 71.39,43.00 70.51,43.00 C69.52,43.00 68.19,43.42 66.90,44.06 C67.55,43.61 68.00,42.99 68.00,42.43 C68.00,40.51 77.56,40.40 78.29,42.31 C78.49,42.83 79.67,43.59 81.20,44.23 C78.90,43.52 76.63,43.00 75.76,43.00 ZM 58.07 133.81 C58.48,142.62 59.30,150.68 59.88,151.77 C58.98,150.09 58.35,143.24 58.07,133.81 ZM 296.83 73.12 C301.83,64.15 307.51,57.43 313.33,53.62 C307.72,57.29 301.75,64.54 296.83,73.12 ZM 287.34 137.81 C289.21,142.41 291.86,146.40 295.15,149.66 C292.93,147.55 291.02,145.16 289.51,142.57 C288.76,141.27 288.02,139.62 287.34,137.81 ZM 92.89 52.12 C89.97,48.74 87.00,46.49 83.80,45.15 C86.85,46.26 89.86,48.57 92.89,52.12 ZM 58.59 92.93 C58.27,100.30 58.04,107.72 57.93,114.48 C58.01,107.49 58.23,100.12 58.59,92.93 ZM 61.15 55.49 C60.79,58.63 60.43,62.50 60.10,66.87 C60.44,62.13 60.78,58.41 61.15,55.49 ZM 65.78 44.57 C65.10,44.91 64.49,45.30 63.97,45.74 C64.50,45.16 65.10,44.82 65.78,44.57 Z" fill="rgb(142,161,194)"/>
<path d="M 0.00 94.00 L 0.00 0.00 L 440.00 0.00 L 880.00 0.00 L 880.00 94.00 L 880.00 188.00 L 440.00 188.00 L 0.00 188.00 L 0.00 94.00 ZM 436.91 159.03 C447.46,155.88 454.32,149.79 458.23,140.08 C460.24,135.09 460.48,132.76 460.49,118.00 C460.50,107.98 460.03,99.93 459.30,97.50 C458.63,95.30 457.20,90.57 456.11,87.00 C453.18,77.38 447.29,67.45 440.38,60.51 C435.32,55.44 433.08,53.98 427.53,52.16 C419.82,49.63 416.21,49.92 408.50,53.68 C398.52,58.57 389.43,70.17 383.05,86.17 C375.65,104.76 374.82,131.11 381.24,143.50 C385.33,151.37 395.58,158.25 405.78,159.97 C415.23,161.56 429.89,161.12 436.91,159.03 ZM 819.30 159.39 C821.06,158.50 823.74,156.61 825.25,155.20 L 828.00 152.63 L 828.00 103.51 L 828.00 54.39 L 824.75 51.25 C822.81,49.38 819.68,47.70 817.00,47.08 C814.02,46.40 762.80,46.04 665.43,46.02 C502.16,46.00 512.21,45.58 506.07,52.57 C504.43,54.44 502.59,57.80 501.99,60.03 C501.26,62.75 501.00,77.88 501.20,105.88 L 501.50 147.67 L 504.47 151.96 C506.11,154.32 509.04,157.30 510.97,158.57 L 514.50 160.88 L 665.30 160.94 C802.17,160.99 816.39,160.85 819.30,159.39 ZM 340.20 158.88 C351.77,156.43 358.92,149.97 361.37,139.77 C362.21,136.29 359.28,103.88 358.01,102.61 C356.94,101.54 352.23,102.76 341.75,106.82 C338.04,108.26 335.00,109.84 335.00,110.35 C335.00,110.85 337.02,113.14 339.50,115.45 C343.57,119.24 344.00,120.07 344.00,124.24 C344.00,133.01 337.20,138.00 325.24,138.00 C315.99,138.00 310.35,135.19 307.25,129.04 C305.34,125.25 305.00,123.00 305.01,114.04 C305.04,97.53 308.69,85.55 316.80,75.34 C321.14,69.88 326.17,67.32 330.45,68.40 C331.74,68.72 334.68,70.56 336.99,72.49 C342.10,76.76 344.83,76.90 348.89,73.10 C351.47,70.69 352.00,69.44 352.00,65.73 C352.00,61.73 351.54,60.83 347.61,57.21 C336.45,46.92 325.35,45.76 313.33,53.62 C306.59,58.02 300.06,66.32 294.53,77.50 C290.19,86.27 286.00,99.17 286.00,103.73 C286.00,104.98 285.59,106.00 285.08,106.00 C283.60,106.00 282.52,119.08 283.93,119.96 C284.64,120.39 284.86,121.70 284.49,123.19 C283.67,126.44 286.51,137.40 289.51,142.57 C294.41,151.00 303.64,157.27 313.65,158.95 C320.96,160.18 334.24,160.14 340.20,158.88 ZM 261.62 157.09 C267.52,154.41 271.24,149.09 271.78,142.59 C272.19,137.74 271.99,137.14 269.36,135.07 C266.93,133.15 265.76,132.91 261.58,133.46 C258.88,133.82 255.20,134.72 253.42,135.47 C247.29,138.03 235.70,139.20 219.85,138.85 C206.16,138.54 203.94,138.26 202.10,136.60 C200.95,135.55 200.00,133.86 200.00,132.85 C200.00,129.20 214.51,120.94 229.62,116.00 C238.51,113.09 246.28,109.59 247.66,107.86 C252.16,102.26 248.94,98.35 236.69,94.53 C226.26,91.28 212.63,84.47 206.50,79.45 C203.05,76.62 202.00,75.08 202.00,72.85 C202.00,68.40 205.12,67.68 221.60,68.35 C235.06,68.90 246.51,70.81 258.41,74.48 C265.41,76.65 268.27,76.41 271.08,73.42 C273.25,71.11 273.50,69.96 273.50,62.34 C273.50,54.07 273.41,53.76 270.36,51.03 C267.35,48.34 266.59,48.18 253.36,47.40 C231.83,46.14 195.40,46.40 188.79,47.86 C178.26,50.19 175.03,57.65 179.09,70.27 C181.13,76.64 182.20,78.20 189.23,85.17 C193.55,89.45 199.54,94.58 202.54,96.57 C205.54,98.56 208.00,100.80 208.00,101.54 C208.00,102.29 205.52,104.49 202.50,106.45 C199.48,108.40 194.51,111.61 191.48,113.57 C180.32,120.78 176.67,127.05 176.57,139.17 C176.49,147.63 178.18,151.27 183.33,153.80 C184.79,154.51 193.97,155.75 203.74,156.54 C227.08,158.43 230.25,158.60 245.00,158.79 C255.31,158.93 258.22,158.63 261.62,157.09 ZM 156.07 153.40 C160.06,149.41 160.12,149.24 161.17,138.93 C161.81,132.62 162.05,113.67 161.78,91.00 C161.39,57.89 161.14,53.11 159.60,50.17 C156.45,44.12 145.76,42.04 138.04,45.98 C132.87,48.62 125.90,56.69 119.41,67.58 C111.79,80.35 111.05,81.29 109.59,80.08 C108.91,79.51 105.78,73.91 102.63,67.63 C95.91,54.22 89.55,46.84 83.03,44.89 C80.70,44.19 78.57,43.03 78.29,42.31 C77.56,40.40 68.00,40.51 68.00,42.43 C68.00,43.22 67.10,44.15 66.00,44.50 C61.54,45.92 60.77,50.89 58.63,92.00 C57.25,118.58 57.87,148.01 59.88,151.77 C62.50,156.68 75.57,158.69 79.69,154.83 C82.64,152.05 82.63,148.96 79.61,136.98 C73.40,112.28 73.91,71.00 80.44,71.00 C82.72,71.00 85.87,75.50 89.43,83.84 C91.40,88.42 93.00,92.63 93.00,93.19 C93.00,93.74 93.63,95.62 94.39,97.35 C95.16,99.08 96.53,103.43 97.45,107.00 C101.69,123.45 104.84,130.00 108.54,130.00 C111.14,130.00 113.76,126.33 115.45,120.35 C123.61,91.33 131.92,73.00 136.93,73.00 C140.76,73.00 141.48,75.66 141.86,91.40 C142.27,108.08 141.59,113.38 136.40,134.08 C132.31,150.43 132.23,152.32 135.56,155.65 C137.92,158.01 138.69,158.19 145.08,157.83 C151.66,157.45 152.26,157.21 156.07,153.40 ZM 407.68 137.55 C398.78,134.38 396.50,129.85 396.54,115.50 C396.59,102.35 398.00,96.00 403.11,86.00 C408.98,74.52 413.78,70.00 420.10,70.00 C431.19,70.00 442.05,91.73 441.96,113.73 C441.89,127.88 439.62,133.11 431.79,137.11 C427.28,139.41 413.59,139.66 407.68,137.55 ZM 620.54 131.41 C615.25,129.47 612.21,126.50 609.38,120.50 C602.44,105.79 610.63,90.22 626.71,87.54 C632.41,86.59 641.00,89.18 645.62,93.24 C655.35,101.78 655.34,117.83 645.60,126.80 C638.99,132.90 629.41,134.66 620.54,131.41 ZM 633.16 122.00 C634.26,122.00 636.47,120.68 638.08,119.08 C640.61,116.54 641.00,115.41 641.00,110.53 C641.00,105.95 640.56,104.47 638.63,102.54 C628.54,92.45 612.61,104.09 619.96,116.18 C622.08,119.66 627.66,123.21 629.83,122.46 C630.56,122.21 632.06,122.00 633.16,122.00 ZM 694.70 131.73 C690.56,130.39 684.63,125.12 682.39,120.78 C681.61,119.27 680.69,116.04 680.36,113.59 C678.45,99.65 688.66,87.97 702.72,88.02 C715.70,88.07 725.58,97.83 724.80,109.84 L 724.50 114.50 L 709.02 114.78 C700.51,114.93 693.14,115.46 692.64,115.96 C691.28,117.32 696.73,121.86 700.59,122.58 C702.96,123.03 705.21,122.59 708.28,121.11 C712.61,119.01 721.39,118.21 722.39,119.82 C723.31,121.32 719.14,126.88 715.07,129.57 C710.35,132.70 700.79,133.71 694.70,131.73 ZM 708.30 105.35 C713.07,104.56 712.95,102.25 708.00,99.70 C703.54,97.40 697.67,98.03 694.35,101.14 C692.06,103.30 692.01,103.53 693.64,104.72 C695.51,106.09 702.11,106.37 708.30,105.35 ZM 572.64 128.25 C571.83,123.34 571.84,100.46 572.66,86.25 L 573.31 75.00 L 587.59 75.00 C595.45,75.00 602.08,75.34 602.31,75.75 C602.55,76.16 602.47,78.53 602.12,81.00 L 601.50 85.50 L 593.53 85.80 C588.71,85.98 585.26,86.57 584.80,87.30 C583.56,89.25 583.89,95.66 585.29,96.83 C586.01,97.42 589.94,98.04 594.04,98.20 L 601.50 98.50 L 601.50 103.50 L 601.50 108.50 L 593.53 108.80 C588.74,108.97 585.24,109.57 584.75,110.30 C584.31,110.96 584.04,115.57 584.16,120.54 C584.28,125.51 584.04,130.12 583.63,130.79 C583.21,131.47 580.76,132.00 578.07,132.00 C573.29,132.00 573.26,131.98 572.64,128.25 ZM 657.63 118.51 C657.26,111.10 657.25,101.42 657.62,97.01 L 658.29 89.00 L 662.58 89.00 C664.95,89.00 667.16,89.44 667.49,89.99 C667.87,90.60 669.02,90.37 670.49,89.41 C671.81,88.55 673.92,87.99 675.19,88.17 C677.21,88.46 677.50,89.06 677.50,93.00 C677.50,97.09 677.21,97.63 674.35,98.89 C672.61,99.65 670.70,101.36 670.10,102.69 C669.49,104.02 669.00,110.58 669.00,117.35 C669.00,125.54 668.60,130.00 667.80,130.80 C667.14,131.46 664.73,132.00 662.45,132.00 L 658.30 132.00 L 657.63 118.51 ZM 728.00 130.50 C728.00,129.68 730.19,125.94 732.87,122.19 C741.74,109.75 741.76,109.36 734.08,97.34 L 729.07 89.50 L 733.72 89.19 C740.34,88.74 742.14,89.50 745.24,94.01 C746.75,96.20 748.39,98.00 748.90,98.00 C749.40,98.00 751.00,95.97 752.45,93.50 L 755.08 89.00 L 761.04 89.00 C764.45,89.00 767.00,89.44 767.00,90.03 C767.00,90.59 764.53,94.95 761.50,99.72 C758.47,104.49 756.01,108.87 756.02,109.45 C756.02,110.03 757.61,112.75 759.54,115.50 C761.48,118.25 763.80,121.62 764.71,123.00 C765.62,124.38 767.23,126.48 768.29,127.68 C771.09,130.85 769.65,132.00 762.91,132.00 L 756.94 132.00 L 753.22 126.05 C751.17,122.77 749.02,120.07 748.43,120.05 C747.85,120.02 746.32,121.87 745.04,124.15 C741.21,130.96 739.68,132.00 733.50,132.00 C729.28,132.00 728.00,131.65 728.00,130.50 Z" fill="rgb(253,254,254)"/>
</g>
</svg>