<svg xmlns="http://www.w3.org/2000/svg" width="953" height="848" viewBox="0 0 953 848">
<g>
<path d="M 855.43 353.50 C851.56,355.47 849.27,355.50 701.50,355.75 L 551.50 356.01 L 547.22 353.89 C544.87,352.72 542.45,350.80 541.85,349.63 C541.24,348.46 539.79,346.45 538.63,345.17 C536.53,342.87 536.50,342.31 536.50,298.51 L 536.50 254.17 L 539.52 249.84 C540.45,248.50 540.90,247.39 541.60,246.47 C545.04,241.92 554.50,241.93 657.09,241.99 C667.45,241.99 678.76,242.00 691.11,242.00 C768.87,242.02 836.55,242.16 841.50,242.31 C851.84,242.63 858.37,245.22 860.07,249.68 C861.04,252.24 860.82,343.71 859.82,349.00 C859.51,350.66 858.04,352.17 855.43,353.50 ZM 469.09 354.82 C465.24,356.16 449.11,356.20 441.23,354.89 C433.24,353.56 421.89,347.60 419.87,343.67 C419.25,342.48 417.97,340.60 417.01,339.50 C414.23,336.30 412.00,325.04 412.00,314.25 C412.00,302.27 415.10,286.90 418.39,282.52 C419.63,280.86 421.44,277.05 422.41,274.06 C425.56,264.28 434.43,253.80 443.90,248.65 C454.32,242.98 466.47,245.76 474.71,255.70 C480.28,262.41 487.00,273.92 487.00,276.73 C487.00,278.03 488.12,280.21 489.49,281.58 C492.94,285.03 496.00,300.35 496.00,314.16 C496.00,327.99 493.68,336.27 488.22,341.90 C486.03,344.15 483.79,346.00 483.25,346.00 C482.44,346.00 478.10,349.02 473.48,352.81 C472.93,353.27 470.95,354.17 469.09,354.82 ZM 189.70 349.25 C186.17,351.90 184.02,352.85 182.50,352.43 C181.95,352.28 179.45,351.88 176.95,351.55 C173.24,351.05 172.06,350.36 170.57,347.84 C168.94,345.08 168.87,344.15 169.98,339.13 C170.66,336.03 171.62,332.38 172.11,331.00 C173.64,326.70 175.14,318.81 176.01,310.50 C177.26,298.51 177.07,276.04 175.69,272.00 C173.99,267.00 171.06,266.89 167.12,271.67 C165.40,273.75 164.00,275.82 164.00,276.27 C164.00,276.72 162.68,279.91 161.06,283.36 C159.45,286.82 157.82,290.85 157.45,292.33 C157.08,293.81 156.38,295.27 155.89,295.57 C155.40,295.87 155.00,297.41 155.00,299.00 C155.00,300.59 154.63,302.11 154.17,302.39 C153.72,302.67 152.54,306.44 151.55,310.76 C150.01,317.52 149.31,318.93 146.57,320.81 C144.81,322.02 143.10,323.00 142.76,323.00 C141.30,323.00 139.00,319.67 139.00,317.57 C139.00,316.31 137.85,313.58 136.45,311.51 C134.88,309.21 132.81,303.24 131.09,296.12 C129.03,287.52 127.08,282.30 123.59,276.02 C121.00,271.36 118.35,267.21 117.69,266.79 C113.10,263.87 111.04,269.48 110.31,286.86 C109.64,302.83 111.08,318.10 114.50,331.62 C117.20,342.24 116.92,344.23 112.07,349.08 C108.63,352.52 107.62,352.66 104.82,350.05 C103.67,348.98 101.43,347.81 99.83,347.46 C93.68,346.11 93.49,344.96 93.57,309.54 C93.61,291.92 94.21,270.98 94.90,263.01 C96.09,249.26 96.32,248.29 99.34,244.09 C101.09,241.65 103.78,239.24 105.32,238.73 C110.21,237.10 116.44,238.72 120.97,242.80 C130.92,251.76 133.06,254.12 135.31,258.67 C141.66,271.48 144.34,276.00 145.62,276.00 C147.42,276.00 151.00,272.40 151.00,270.58 C151.00,269.79 152.13,267.81 153.51,266.17 C154.89,264.53 156.68,261.33 157.47,259.08 C159.38,253.67 163.14,248.85 169.27,243.98 C173.82,240.35 174.78,240.00 180.20,240.00 C187.14,240.00 189.43,241.00 191.47,244.93 C192.28,246.52 193.72,248.58 194.66,249.51 C196.21,251.06 196.37,255.11 196.43,294.36 C196.49,333.63 196.34,337.92 194.70,342.17 C193.66,344.85 191.53,347.87 189.70,349.25 ZM 295.89 351.83 C294.42,356.24 221.81,351.78 215.60,346.90 C211.38,343.58 209.69,333.04 212.51,327.64 C213.33,326.06 214.00,324.02 214.00,323.10 C214.00,320.57 224.46,310.97 234.15,304.62 C238.91,301.50 243.07,298.25 243.40,297.40 C243.77,296.45 242.85,294.85 240.98,293.18 C239.33,291.71 235.80,288.41 233.13,285.86 C230.46,283.31 227.43,280.93 226.39,280.57 C223.99,279.75 217.03,270.78 216.46,267.78 C216.23,266.52 215.28,264.09 214.35,262.37 C212.91,259.68 212.85,258.63 213.91,254.87 C216.46,245.82 220.20,243.69 236.50,241.97 C249.35,240.62 277.36,241.69 294.76,244.21 C302.95,245.39 303.23,245.52 304.95,248.96 C305.92,250.91 306.98,254.83 307.30,257.68 C307.79,262.00 307.54,263.32 305.78,265.55 C301.37,271.16 295.51,271.64 288.91,266.93 C285.57,264.56 284.29,264.42 257.00,263.36 C240.35,262.71 237.00,263.43 237.00,267.63 C237.00,271.36 242.87,276.67 252.58,281.72 C260.65,285.92 264.61,287.52 275.80,291.09 C280.40,292.57 282.39,293.77 283.21,295.55 C285.42,300.42 280.41,305.77 271.50,308.04 C269.30,308.60 265.48,309.90 263.00,310.93 C260.52,311.96 255.11,314.22 250.96,315.95 C246.81,317.68 241.45,320.78 239.05,322.85 C235.40,325.99 234.79,327.02 235.32,329.13 C236.39,333.39 240.08,334.33 257.46,334.79 C272.92,335.21 280.25,334.47 287.50,331.78 C289.15,331.17 293.26,330.48 296.63,330.25 C302.54,329.85 302.83,329.95 304.98,332.97 C307.76,336.88 307.12,341.62 303.40,344.50 C299.09,347.85 296.32,350.55 295.89,351.83 ZM 375.68 353.35 C363.63,356.16 345.89,354.89 341.92,350.92 C340.77,349.77 338.22,348.15 336.26,347.34 C331.81,345.48 325.20,338.71 324.37,335.17 C324.03,333.70 322.79,330.92 321.62,329.00 C319.80,325.99 319.50,323.96 319.52,314.50 C319.53,305.98 319.93,302.72 321.30,300.02 C322.28,298.11 323.47,293.73 323.96,290.28 C324.49,286.57 325.70,282.93 326.92,281.37 C328.07,279.92 329.00,277.63 329.00,276.28 C329.00,274.94 330.58,271.47 332.50,268.57 C334.42,265.67 336.00,263.00 336.00,262.63 C336.00,261.34 345.57,251.77 349.80,248.83 C353.29,246.40 355.45,245.74 361.33,245.29 C367.78,244.80 369.13,245.03 373.78,247.39 C376.65,248.84 379.00,250.37 379.00,250.79 C379.00,251.21 380.55,252.38 382.44,253.40 C386.71,255.70 387.31,257.17 385.46,260.72 C384.67,262.25 384.01,264.27 384.01,265.21 C383.99,269.22 377.60,269.41 371.75,265.57 C370.38,264.67 367.00,263.67 364.24,263.34 C359.39,262.77 359.07,262.89 354.54,267.07 C351.96,269.45 349.14,272.77 348.27,274.45 C347.41,276.13 345.88,278.08 344.88,278.78 C343.70,279.62 343.11,281.21 343.19,283.31 C343.25,285.10 342.77,287.56 342.12,288.78 C341.46,290.00 340.43,295.84 339.82,301.75 C337.52,324.17 343.14,333.00 359.75,333.00 C370.70,333.00 375.43,330.83 378.47,324.42 C380.35,320.46 379.29,314.66 375.83,309.98 C372.04,304.86 374.89,302.16 385.91,300.40 C390.91,299.60 392.56,301.40 393.53,308.70 C394.70,317.50 394.81,339.21 393.70,341.71 C393.16,342.92 390.71,344.86 388.25,346.01 C385.79,347.17 383.57,348.91 383.32,349.89 C382.99,351.16 380.81,352.15 375.68,353.35 ZM 652.22 325.08 C656.98,328.84 657.48,329.00 664.59,329.00 C674.93,329.00 680.71,325.82 685.03,317.77 C686.72,314.61 688.63,312.14 689.28,312.27 C691.78,312.76 693.15,315.16 692.98,318.75 C692.60,326.91 692.65,327.00 696.92,327.00 L 696.92 327.00 C699.84,327.00 701.56,327.00 702.56,326.16 C704.00,324.95 704.00,322.04 704.00,314.97 L 704.00 314.96 C704.00,302.47 704.66,300.17 709.48,295.74 C712.46,293.01 713.00,291.85 713.00,288.23 C713.00,284.51 712.65,283.82 710.33,282.93 C707.26,281.77 698.00,281.95 698.00,283.18 C698.00,283.63 696.88,284.00 695.50,284.00 C693.20,284.00 693.00,284.37 693.00,288.50 C693.00,290.98 692.55,293.00 692.00,293.00 C691.45,293.00 690.95,294.69 690.88,296.75 C690.82,298.81 690.56,299.71 690.31,298.75 C690.06,297.79 688.54,295.69 686.93,294.08 C685.32,292.47 684.00,290.56 684.00,289.83 C684.00,289.10 681.86,287.15 679.25,285.50 C674.96,282.79 673.73,282.51 666.50,282.57 C657.83,282.65 650.98,285.18 648.02,289.39 C645.66,292.76 641.83,296.00 640.21,296.00 C639.39,296.00 638.16,295.24 637.48,294.30 C636.53,293.01 635.00,292.67 630.98,292.88 C628.09,293.04 625.44,292.79 625.11,292.33 C624.77,291.87 623.60,291.00 622.50,290.40 C619.79,288.90 619.39,285.40 621.79,284.11 C622.84,283.55 626.51,282.64 629.95,282.09 C637.94,280.80 639.18,279.75 638.80,274.60 C638.52,270.79 638.27,270.49 635.00,269.98 C633.08,269.68 626.25,269.61 619.84,269.82 C608.92,270.19 608.14,270.35 607.60,272.36 C606.80,275.36 607.05,320.96 607.89,324.00 C608.47,326.10 609.27,326.55 612.93,326.81 C615.32,326.99 617.71,326.69 618.25,326.15 C618.79,325.61 619.29,320.84 619.37,315.55 C619.52,304.27 619.71,304.04 628.67,304.02 C632.06,304.01 635.46,303.76 636.23,303.47 C638.46,302.61 641.63,306.18 642.28,310.29 C643.13,315.59 646.42,320.50 652.22,325.08 ZM 451.50 334.52 C454.15,335.48 463.99,333.51 468.40,331.14 C472.47,328.94 473.62,327.66 475.25,323.50 C476.97,319.13 477.15,316.80 476.72,305.00 C476.15,289.40 474.73,282.52 471.35,279.00 C470.03,277.62 467.68,274.55 466.14,272.18 C459.15,261.43 451.44,261.44 442.94,272.19 C437.47,279.12 436.39,281.41 433.49,292.22 C430.57,303.14 430.08,317.56 432.45,323.23 C434.68,328.57 440.07,332.75 445.71,333.51 C448.34,333.87 450.95,334.32 451.50,334.52 ZM 725.57 324.84 C729.67,327.56 731.24,328.00 736.70,328.00 C743.86,328.00 747.96,326.60 752.84,322.49 C757.29,318.73 758.54,315.40 756.32,313.18 C754.75,311.61 754.77,311.48 756.57,311.13 C759.30,310.62 759.97,309.17 759.98,303.71 C760.01,296.11 755.42,288.78 748.43,285.23 C742.23,282.09 738.69,281.71 731.80,283.44 C726.72,284.71 724.70,285.86 721.34,289.36 C716.67,294.22 715.00,298.88 715.02,307.00 C715.04,314.00 718.80,320.36 725.57,324.84 ZM 766.00 328.11 C770.97,329.48 772.41,328.96 777.19,324.00 C779.84,321.25 782.49,319.00 783.08,319.00 C783.67,319.00 786.12,320.96 788.52,323.36 C790.96,325.80 794.23,328.00 795.94,328.34 C799.13,328.98 803.35,327.86 804.44,326.09 C804.80,325.52 802.09,320.91 798.44,315.84 C794.78,310.76 791.57,306.04 791.30,305.34 C791.03,304.64 791.69,302.82 792.75,301.29 C795.00,298.07 802.00,285.56 802.00,284.78 C802.00,284.49 800.59,283.97 798.86,283.62 C794.70,282.79 788.26,284.61 786.74,287.04 C785.05,289.76 781.55,289.49 779.59,286.50 C778.13,284.26 777.28,284.00 771.54,284.00 C768.01,284.00 764.85,284.43 764.52,284.96 C764.19,285.50 765.96,288.72 768.44,292.14 C774.83,300.92 775.65,303.88 773.02,308.68 C771.86,310.78 769.12,314.96 766.92,317.98 C762.48,324.05 762.21,327.06 766.00,328.11 ZM 670.93 314.04 C669.14,315.00 664.48,315.11 660.28,314.30 C656.96,313.66 652.99,308.39 653.03,304.67 C653.06,302.12 653.90,300.87 657.38,298.25 C660.05,296.24 662.86,295.00 664.74,295.00 C666.69,295.00 669.23,296.17 671.79,298.25 C675.20,301.02 675.72,301.94 675.31,304.50 C674.54,309.35 672.85,313.01 670.93,314.04 ZM 741.69 314.81 C741.04,315.33 738.81,315.95 736.75,316.18 C733.43,316.55 733.00,316.35 733.00,314.41 C733.00,311.98 734.72,311.00 738.97,311.00 C742.01,311.00 743.62,313.26 741.69,314.81 ZM 738.00 300.00 C738.00,301.48 734.69,301.14 733.26,299.52 C732.27,298.39 732.34,297.80 733.59,296.56 C735.83,294.31 739.65,294.57 740.29,297.00 C740.63,298.30 740.32,299.00 739.41,299.00 C738.63,299.00 738.00,299.45 738.00,300.00 Z" fill="rgb(10,56,136)"/>
<path d="M 445.72 574.03 C442.78,575.82 440.61,575.99 420.72,576.00 C403.99,576.00 398.82,575.70 398.45,574.73 C398.18,574.02 398.08,563.79 398.23,551.98 L 398.50 530.50 L 419.50 530.50 C431.05,530.50 441.73,530.84 443.23,531.26 C446.59,532.20 449.01,536.61 448.97,541.70 C448.94,545.61 447.16,549.00 445.14,549.00 C443.03,549.00 443.98,550.88 446.75,552.20 C449.31,553.43 449.52,554.00 449.80,560.49 C450.20,569.64 449.58,571.67 445.72,574.03 ZM 344.08 558.00 L 343.50 575.50 L 340.23 575.81 L 336.96 576.13 L 337.23 553.31 L 337.50 530.50 L 359.00 530.52 C377.61,530.53 380.94,530.77 383.75,532.29 C386.66,533.87 387.02,534.55 387.17,538.78 C387.50,548.06 386.86,552.41 384.95,553.74 C383.20,554.97 383.22,555.13 385.48,557.39 C387.99,559.90 389.40,566.06 388.83,572.03 C388.55,574.93 388.07,575.55 385.87,575.80 C383.29,576.10 383.23,575.99 382.52,568.30 C382.13,564.01 381.34,559.94 380.78,559.25 C380.03,558.33 374.98,558.00 361.92,558.00 ZM 467.00 558.00 L 467.00 576.00 L 459.96 576.00 L 460.50 530.50 L 482.18 530.50 C502.65,530.50 504.01,530.62 506.68,532.60 C509.36,534.61 509.51,535.15 509.79,543.74 C510.07,552.75 510.07,552.76 506.96,555.38 C503.85,558.00 503.84,558.00 485.42,558.00 ZM 801.57 574.54 C798.93,575.64 793.81,575.98 780.78,575.94 C771.28,575.90 762.55,575.49 761.39,575.02 C758.04,573.67 755.00,569.07 755.00,565.37 C755.00,562.29 755.26,562.00 758.00,562.00 C760.53,562.00 761.00,562.39 761.00,564.50 C761.00,565.88 761.90,567.90 763.00,569.00 C764.83,570.83 766.33,571.00 780.57,571.00 C799.80,571.00 801.95,570.19 801.98,562.90 C802.01,556.52 800.53,556.00 782.41,556.00 C762.40,556.00 759.33,555.21 756.16,549.30 C754.56,546.30 754.71,539.46 756.45,536.09 C758.91,531.34 762.65,530.50 781.50,530.50 C795.74,530.50 799.01,530.78 801.67,532.23 C804.98,534.05 807.69,539.75 806.60,542.61 C805.77,544.76 801.70,543.95 801.04,541.50 C800.52,539.58 800.18,538.27 799.38,537.39 C797.67,535.50 793.88,535.50 781.86,535.50 L 781.48 535.50 C765.18,535.50 764.78,535.55 762.91,537.86 C760.98,540.25 760.49,543.50 761.62,546.45 C762.91,549.81 766.34,550.50 784.33,551.00 L 802.17 551.50 L 805.08 554.77 C810.30,560.61 808.33,571.71 801.57,574.54 ZM 656.00 529.87 L 656.00 576.00 L 651.75 575.98 C651.64,575.98 651.54,575.98 651.44,575.98 C650.89,575.97 650.41,575.97 649.93,575.92 C646.65,575.54 643.66,572.57 619.37,549.03 L 606.50 536.57 L 606.23 554.46 C606.06,565.59 605.54,572.85 604.85,573.68 C603.40,575.43 600.35,575.37 599.66,573.56 C599.36,572.77 599.20,562.76 599.31,551.31 L 599.50 530.50 L 602.37 530.17 C608.46,529.48 609.62,530.39 636.85,557.25 C643.40,563.71 649.03,569.00 649.36,569.00 C649.69,569.00 650.08,560.34 650.23,549.75 L 650.50 530.50 L 653.25 530.18 ZM 540.00 565.50 C540.00,575.83 539.96,576.00 537.67,576.00 C536.38,576.00 535.03,575.70 534.67,575.33 C533.83,574.49 533.81,538.80 534.64,533.73 L 535.27 529.96 L 556.88 530.23 C578.38,530.50 578.50,530.51 578.82,532.73 L 579.13 534.96 L 559.82 535.23 L 540.50 535.50 L 540.20 542.25 L 539.91 549.00 L 558.49 549.00 C574.15,549.00 577.15,549.24 577.64,550.51 C577.96,551.34 577.67,552.69 576.99,553.51 C575.98,554.73 572.48,555.00 557.88,555.00 L 540.00 555.00 ZM 404.67 570.33 C405.85,571.52 438.72,571.09 441.44,569.85 C446.17,567.69 446.10,556.75 441.34,554.94 C439.98,554.42 431.02,554.00 421.43,554.00 L 404.00 554.00 L 404.00 561.83 C404.00,566.14 404.30,569.97 404.67,570.33 ZM 467.67 552.33 C468.03,552.70 475.41,553.00 484.06,553.00 C497.55,553.00 500.08,552.75 501.92,551.25 C504.58,549.08 505.65,542.99 504.06,539.14 C502.57,535.56 499.38,535.00 480.36,535.00 L 467.00 535.00 L 467.00 543.33 C467.00,547.92 467.30,551.97 467.67,552.33 ZM 344.00 534.83 L 344.00 552.00 L 379.57 552.00 L 381.28 549.10 C383.54,545.28 383.46,540.79 381.09,537.86 C379.23,535.57 378.68,535.49 361.59,535.17 ZM 713.56 568.00 C709.63,575.25 709.37,575.51 705.50,575.78 C701.55,576.07 701.46,575.99 698.52,570.28 C696.88,567.10 692.79,559.55 689.44,553.50 C680.25,536.96 677.00,530.92 677.00,530.44 C677.00,530.20 678.46,530.00 680.25,530.00 C683.19,530.01 683.79,530.56 686.50,535.74 C688.15,538.89 690.66,543.50 692.07,545.98 C696.62,553.99 702.34,564.44 703.43,566.74 C704.02,567.97 704.95,568.84 705.49,568.66 C706.43,568.36 713.25,556.68 722.23,540.00 C724.46,535.88 726.72,531.94 727.26,531.25 C728.18,530.09 734.00,529.42 734.00,530.48 C734.00,531.04 730.37,537.78 722.96,551.00 C720.02,556.22 715.80,563.88 713.56,568.00 ZM 857.91 351.91 C858.99,351.00 859.63,350.03 859.82,349.00 C860.82,343.71 861.04,252.24 860.07,249.68 C858.37,245.22 851.84,242.63 841.50,242.31 C836.55,242.16 768.87,242.02 691.11,242.00 C678.76,242.00 667.45,241.99 657.09,241.99 C576.69,241.94 553.49,241.93 545.56,244.11 C546.05,243.80 546.54,243.53 547.01,243.29 L 551.50 241.08 L 700.50 241.05 C804.96,241.02 850.67,241.34 853.42,242.10 C855.58,242.70 858.62,244.46 860.17,246.02 L 863.00 248.85 L 863.00 347.63 L 860.25 350.16 C859.67,350.70 858.84,351.31 857.91,351.91 ZM 404.67 548.33 C405.03,548.70 412.91,549.00 422.17,549.00 C437.67,549.00 439.16,548.84 441.00,547.00 C443.33,544.67 443.61,540.21 441.58,537.44 C440.29,535.67 438.61,535.47 422.08,535.17 L 404.00 534.84 L 404.00 541.25 C404.00,544.78 404.30,547.97 404.67,548.33 ZM 746.00 530.00 L 746.00 576.00 L 740.00 576.00 L 740.00 530.00 ZM 590.00 530.00 L 590.00 576.00 L 585.00 576.00 L 585.00 530.00 ZM 532.44 426.42 C531.27,427.58 529.11,427.93 523.94,427.77 L 517.00 427.56 L 517.00 419.78 C517.00,413.53 517.30,412.00 518.50,412.00 C519.42,412.00 520.00,412.94 520.00,414.43 C520.00,416.76 520.20,416.83 525.31,416.31 C529.48,415.88 530.98,416.12 532.31,417.45 C534.43,419.57 534.50,424.36 532.44,426.42 ZM 506.00 419.78 L 506.00 427.56 L 499.14 427.77 C491.47,428.00 489.00,426.52 489.00,421.69 C489.00,417.76 492.89,415.58 498.53,416.35 C502.79,416.93 503.00,416.84 503.00,414.48 C503.00,412.94 503.57,412.00 504.50,412.00 C505.70,412.00 506.00,413.53 506.00,419.78 ZM 652.22 325.08 C651.48,324.49 650.77,323.90 650.11,323.30 C652.00,324.76 654.16,325.84 656.63,326.54 C662.28,328.16 671.76,327.70 675.78,325.60 C682.43,322.12 687.95,312.81 687.97,305.00 C687.98,299.31 684.32,291.29 680.08,287.72 C677.21,285.30 671.97,283.29 667.43,282.56 C673.85,282.54 675.15,282.91 679.25,285.50 C681.86,287.15 684.00,289.10 684.00,289.83 C684.00,290.56 685.32,292.47 686.93,294.08 C688.54,295.69 690.06,297.79 690.31,298.75 C690.56,299.71 690.82,298.81 690.88,296.75 C690.95,294.69 691.45,293.00 692.00,293.00 C692.40,293.00 692.74,291.95 692.90,290.44 L 692.87 292.75 C692.79,297.56 692.79,306.45 692.86,312.50 C692.87,313.97 692.89,315.42 692.90,316.78 C692.57,314.29 691.29,312.67 689.28,312.27 C688.63,312.14 686.72,314.61 685.03,317.77 C680.71,325.82 674.93,329.00 664.59,329.00 C657.48,329.00 656.98,328.84 652.22,325.08 ZM 670.00 553.00 C670.00,575.33 669.94,576.00 668.00,576.00 C666.06,576.00 666.00,575.33 666.00,553.00 C666.00,530.67 666.06,530.00 668.00,530.00 C669.94,530.00 670.00,530.67 670.00,553.00 ZM 757.08 314.24 C756.43,314.02 755.20,314.00 753.06,314.00 C749.90,314.00 746.59,314.75 744.26,316.00 C740.13,318.21 737.39,318.48 733.61,317.04 C730.78,315.97 727.00,312.52 727.00,311.02 C727.00,310.44 733.55,309.94 743.25,309.77 L 759.18 309.51 C758.66,310.45 757.84,310.89 756.57,311.13 C754.77,311.48 754.75,311.61 756.32,313.18 C756.65,313.51 756.90,313.86 757.08,314.24 ZM 374.00 426.00 C374.00,427.11 373.33,428.00 372.50,428.00 C371.31,428.00 371.00,426.55 371.00,420.96 L 371.00 413.92 L 378.73 414.21 C386.13,414.49 386.50,414.62 387.41,417.22 C388.93,421.56 386.03,424.00 379.35,424.00 C374.67,424.00 374.00,424.25 374.00,426.00 ZM 393.20 342.65 C389.36,348.74 387.38,350.24 378.93,352.50 C381.77,351.65 383.07,350.85 383.32,349.89 C383.57,348.91 385.79,347.17 388.25,346.01 C390.71,344.86 393.16,342.92 393.70,341.71 C394.81,339.21 394.70,317.50 393.53,308.70 C392.56,301.40 390.91,299.60 385.91,300.40 C374.89,302.16 372.04,304.86 375.83,309.98 C377.36,312.06 378.43,314.35 378.97,316.61 C378.16,314.19 376.46,311.86 373.93,309.82 C371.73,308.06 370.06,305.96 370.21,305.18 C370.37,304.39 373.65,302.64 377.50,301.28 C389.40,297.08 391.89,296.49 393.02,297.62 C394.70,299.30 395.93,309.54 396.20,324.00 L 396.45 337.50 ZM 211.42 330.95 C211.84,326.17 213.29,321.37 215.75,318.03 C219.19,313.35 223.34,310.01 232.59,304.50 C244.33,297.50 244.95,295.92 237.64,291.63 C231.76,288.19 218.82,275.39 215.63,269.87 C211.88,263.39 211.07,253.77 213.89,249.30 C217.40,243.74 219.84,242.83 233.92,241.86 C236.27,241.70 239.38,241.59 242.98,241.53 C240.55,241.63 238.37,241.78 236.50,241.97 C220.20,243.69 216.46,245.82 213.91,254.87 C212.85,258.63 212.91,259.68 214.35,262.37 C215.28,264.09 216.23,266.52 216.46,267.78 C217.03,270.78 223.99,279.75 226.39,280.57 C227.43,280.93 230.46,283.31 233.13,285.86 C235.80,288.41 239.33,291.71 240.98,293.18 C242.85,294.85 243.77,296.45 243.40,297.40 C243.07,298.25 238.91,301.50 234.15,304.62 C224.46,310.97 214.00,320.57 214.00,323.10 C214.00,324.02 213.33,326.06 212.51,327.64 C212.00,328.60 211.64,329.73 211.42,330.95 ZM 484.25 426.75 C481.49,428.86 474.37,428.32 472.04,425.81 C467.79,421.25 470.34,416.96 477.72,416.25 C481.97,415.84 483.11,416.11 484.97,417.97 C487.45,420.45 487.12,424.56 484.25,426.75 ZM 451.25 426.75 C448.43,428.91 441.64,428.31 439.17,425.69 C436.47,422.81 436.42,420.58 439.00,418.00 C441.81,415.19 449.24,415.24 452.09,418.09 C454.45,420.45 454.05,424.61 451.25,426.75 ZM 404.43 426.43 C402.39,428.47 395.13,428.48 392.22,426.44 C390.80,425.45 390.00,423.85 390.00,422.00 C390.00,418.23 393.22,416.00 398.65,416.00 C403.61,416.00 406.00,417.95 406.00,422.00 C406.00,423.57 405.29,425.56 404.43,426.43 ZM 320.25 302.99 C325.19,269.75 342.76,245.01 361.82,243.28 C367.06,242.81 368.48,243.11 374.26,245.96 C381.19,249.37 384.55,252.14 385.97,256.07 C385.38,255.18 384.23,254.36 382.44,253.40 C380.55,252.38 379.00,251.21 379.00,250.79 C379.00,250.37 376.65,248.84 373.78,247.39 C369.13,245.03 367.78,244.80 361.33,245.29 C355.45,245.74 353.29,246.40 349.80,248.83 C345.57,251.77 336.00,261.34 336.00,262.63 C336.00,263.00 334.42,265.67 332.50,268.57 C330.58,271.47 329.00,274.94 329.00,276.28 C329.00,277.63 328.07,279.92 326.92,281.37 C325.70,282.93 324.49,286.57 323.96,290.28 C323.47,293.73 322.28,298.11 321.30,300.02 C320.86,300.90 320.52,301.83 320.25,302.99 ZM 419.40 423.95 C418.19,426.99 417.23,428.00 415.56,428.00 C413.79,428.00 412.79,426.76 410.74,422.00 C408.47,416.75 408.36,416.00 409.82,416.00 C410.87,416.01 412.20,417.70 413.35,420.50 C414.36,422.97 415.52,424.79 415.92,424.55 C416.32,424.30 417.25,422.28 417.98,420.05 C419.91,414.23 422.83,414.50 425.57,420.77 L 427.65 425.50 L 429.77 420.75 C430.98,418.03 432.55,416.00 433.44,416.00 C435.47,416.00 435.46,416.01 432.29,422.48 C430.22,426.70 429.06,428.00 427.37,428.00 C425.73,428.00 424.86,427.10 424.00,424.51 C422.35,419.49 421.24,419.36 419.40,423.95 ZM 262.79 241.60 C281.70,241.92 301.92,242.89 303.84,243.91 C309.65,247.03 311.68,261.45 307.18,267.75 C304.51,271.50 300.96,271.97 293.78,269.55 C284.29,266.35 272.81,264.25 260.80,263.51 C284.42,264.43 285.73,264.67 288.91,266.93 C295.51,271.64 301.37,271.16 305.78,265.55 C307.54,263.32 307.79,262.00 307.30,257.68 C306.98,254.83 305.92,250.91 304.95,248.96 C303.23,245.52 302.95,245.39 294.76,244.21 C285.76,242.91 273.91,241.99 262.79,241.60 ZM 634.30 269.90 C634.58,269.92 634.81,269.95 635.00,269.98 C638.27,270.49 638.52,270.79 638.80,274.60 C639.18,279.75 637.94,280.80 629.95,282.09 C626.51,282.64 622.84,283.55 621.79,284.11 C619.39,285.40 619.79,288.90 622.50,290.40 C623.60,291.00 624.77,291.87 625.11,292.33 C625.44,292.79 628.09,293.04 630.98,292.88 C635.00,292.67 636.53,293.01 637.48,294.30 C638.16,295.24 639.39,296.00 640.21,296.00 C641.49,296.00 644.14,293.99 646.36,291.48 C643.99,294.83 642.59,298.99 642.24,303.88 C642.06,306.36 642.02,308.14 642.16,309.66 C641.34,305.99 638.59,302.92 636.50,303.38 L 636.50 293.50 L 628.76 293.21 C619.96,292.88 618.65,291.78 619.19,285.21 C619.48,281.75 619.74,281.48 623.00,281.25 C624.92,281.11 628.86,280.74 631.75,280.43 L 637.00 279.86 L 637.00 274.94 C637.00,273.08 637.00,271.83 636.41,271.01 C636.02,270.47 635.37,270.12 634.30,269.90 ZM 670.93 314.04 C672.85,313.01 674.54,309.35 675.31,304.50 C675.72,301.94 675.20,301.02 671.79,298.25 C669.23,296.17 666.69,295.00 664.74,295.00 C662.86,295.00 660.05,296.24 657.38,298.25 C653.90,300.87 653.06,302.12 653.03,304.67 C653.03,304.73 653.03,304.78 653.03,304.84 C652.94,302.15 654.04,299.76 656.34,297.46 C661.94,291.86 667.82,291.67 673.05,296.90 C678.37,302.22 677.71,311.52 671.74,315.44 C665.77,319.34 658.32,317.34 654.89,310.90 C653.79,308.82 653.17,306.93 653.05,305.17 C653.34,308.84 657.11,313.68 660.28,314.30 C664.48,315.11 669.14,315.00 670.93,314.04 ZM 548.99 425.02 C546.67,429.62 544.35,433.00 543.49,433.00 C541.78,433.00 541.63,432.13 542.96,430.03 C543.48,429.22 543.55,428.32 543.13,428.03 C542.71,427.74 540.90,424.91 539.11,421.75 C536.20,416.62 536.06,416.00 537.73,416.00 C538.96,416.00 540.35,417.55 541.79,420.50 C542.99,422.98 544.34,425.00 544.79,425.00 C545.24,425.00 546.59,422.98 547.79,420.50 C548.99,418.02 550.65,416.00 551.49,416.00 L 551.51 416.00 C552.08,416.00 552.49,416.00 552.68,416.20 C553.16,416.72 552.25,418.53 549.05,424.91 ZM 306.64 339.03 C306.89,337.03 306.35,334.90 304.98,332.97 C302.83,329.95 302.54,329.85 296.63,330.25 C293.26,330.48 289.15,331.17 287.50,331.78 C280.25,334.47 272.92,335.21 257.46,334.79 C240.08,334.33 236.39,333.39 235.32,329.13 C236.32,333.14 239.79,334.00 254.97,334.00 C270.82,334.00 281.50,332.75 289.65,329.95 C302.62,325.48 308.74,328.77 306.64,339.03 ZM 738.00 300.00 C738.00,299.45 738.63,299.00 739.41,299.00 C740.32,299.00 740.63,298.30 740.29,297.00 C739.65,294.57 735.83,294.31 733.59,296.56 C732.34,297.80 732.27,298.39 733.26,299.52 C733.85,300.19 734.76,300.64 735.62,300.83 C730.79,300.89 727.86,300.59 727.49,299.99 C726.01,297.58 732.80,292.96 737.70,293.05 C742.00,293.12 747.50,296.19 747.50,298.51 C747.50,300.34 746.72,300.52 737.83,300.79 C737.69,300.79 737.55,300.79 737.41,300.80 C737.77,300.65 738.00,300.39 738.00,300.00 ZM 853.23 354.35 C849.33,355.86 836.04,356.00 700.23,356.00 L 557.74 356.00 L 701.50 355.75 C829.84,355.54 848.44,355.48 853.65,354.18 C853.51,354.24 853.37,354.30 853.23,354.35 ZM 136.49 261.04 C136.11,260.28 135.72,259.49 135.31,258.67 C133.06,254.12 130.92,251.76 120.97,242.80 C116.44,238.72 110.21,237.10 105.32,238.73 C103.78,239.24 101.09,241.65 99.34,244.09 C96.32,248.29 96.09,249.26 94.90,263.00 C95.01,261.08 95.13,259.42 95.26,258.08 C96.62,243.37 96.81,242.56 99.40,240.33 C100.89,239.05 103.17,238.00 104.47,238.00 C105.77,238.00 107.06,237.44 107.34,236.75 C107.71,235.84 108.07,235.81 108.67,236.63 C109.13,237.25 112.13,238.34 115.34,239.06 C122.14,240.57 129.62,246.53 132.51,252.73 C133.87,255.66 135.22,258.46 136.49,261.04 ZM 182.72 352.48 C181.75,352.64 180.65,352.75 179.35,352.83 C173.74,353.19 172.88,352.98 170.57,350.66 C167.22,347.31 167.29,344.75 171.13,329.73 C172.85,323.01 174.86,314.35 175.59,310.50 C176.26,306.95 176.68,300.73 176.82,294.26 C176.74,300.13 176.47,306.04 176.01,310.50 C175.14,318.81 173.64,326.70 172.11,331.00 C171.62,332.38 170.66,336.03 169.98,339.13 C168.87,344.15 168.94,345.08 170.57,347.84 C172.06,350.36 173.24,351.05 176.95,351.55 C179.45,351.88 181.95,352.28 182.50,352.43 C182.57,352.45 182.65,352.47 182.72,352.48 ZM 122.52 274.13 C122.87,274.74 123.23,275.38 123.59,276.02 C127.08,282.30 129.03,287.52 131.09,296.12 C132.81,303.24 134.88,309.21 136.45,311.51 C137.85,313.58 139.00,316.31 139.00,317.57 C139.00,319.67 141.30,323.00 142.76,323.00 C143.10,323.00 144.81,322.02 146.57,320.81 C148.30,319.63 149.21,318.63 150.04,316.36 C148.19,322.73 146.49,325.00 143.89,325.00 C140.03,325.00 137.33,320.13 133.95,307.14 C132.15,300.19 129.90,292.92 128.95,291.00 C128.00,289.08 126.54,285.21 125.71,282.41 C124.88,279.61 123.73,276.68 122.52,274.13 ZM 493.90 293.31 C492.72,287.65 491.15,283.24 489.49,281.58 C488.12,280.21 487.00,278.03 487.00,276.73 C487.00,273.92 480.28,262.41 474.71,255.70 C468.62,248.35 460.39,244.92 452.30,245.92 C456.77,245.30 461.23,246.08 465.59,248.29 C468.29,249.66 471.36,251.73 472.40,252.89 C473.45,254.05 474.86,255.00 475.52,255.00 C477.33,255.00 485.97,268.39 489.03,275.92 C491.09,280.99 492.73,287.01 493.90,293.31 ZM 493.58 424.68 C496.01,426.46 499.51,426.34 501.43,424.43 C504.66,421.20 502.57,418.78 496.91,419.19 C493.50,419.43 492.43,419.93 492.15,421.43 C491.95,422.50 492.59,423.96 493.58,424.68 ZM 459.00 424.02 C459.00,426.89 458.58,428.00 457.50,428.00 C456.33,428.00 456.00,426.67 456.00,422.00 C456.00,417.33 456.33,416.00 457.50,416.00 C458.33,416.00 459.00,416.47 459.00,417.04 C459.00,417.75 459.60,417.75 460.93,417.04 C463.72,415.54 469.27,415.70 468.76,417.25 C468.53,417.94 467.25,418.63 465.92,418.78 C459.40,419.53 459.00,419.84 459.00,424.02 ZM 394.58 424.68 C398.41,427.48 403.00,425.93 403.00,421.84 C403.00,418.95 402.91,418.90 398.26,419.20 C394.50,419.44 393.44,419.90 393.15,421.43 C392.95,422.50 393.59,423.96 394.58,424.68 ZM 521.95 424.16 C526.08,427.51 532.36,424.97 530.69,420.64 C529.84,418.42 522.74,418.41 520.90,420.61 C519.76,422.00 519.90,422.50 521.95,424.16 ZM 386.45 257.77 C386.58,258.39 386.68,259.05 386.75,259.75 C387.15,263.91 386.84,265.04 384.56,267.74 C380.35,272.75 378.56,272.78 372.84,267.96 C369.35,265.02 367.01,263.76 364.09,263.32 L 364.24 263.34 C367.00,263.67 370.38,264.67 371.75,265.57 C377.60,269.41 383.99,269.22 384.01,265.21 C384.01,264.27 384.67,262.25 385.46,260.72 C386.08,259.54 386.42,258.59 386.45,257.77 ZM 712.98 287.09 C713.00,287.44 713.00,287.82 713.00,288.23 C713.00,291.85 712.46,293.01 709.48,295.74 C704.66,300.17 704.00,302.47 704.00,314.96 L 704.00 314.97 C704.00,322.04 704.00,324.95 702.56,326.16 C702.55,326.17 702.53,326.18 702.51,326.20 L 703.08 313.00 C703.40,305.58 704.02,298.70 704.45,297.71 C704.89,296.73 706.65,295.20 708.37,294.32 C712.31,292.31 712.97,291.30 712.98,287.22 C712.98,287.18 712.98,287.13 712.98,287.09 ZM 374.67 421.33 C375.69,422.35 380.90,422.13 383.07,420.96 C384.13,420.40 385.00,419.27 385.00,418.46 C385.00,417.36 383.66,417.00 379.50,417.00 C374.83,417.00 374.00,417.28 374.00,418.83 C374.00,419.84 374.30,420.97 374.67,421.33 ZM 470.85 354.37 C470.32,354.53 469.75,354.67 469.15,354.80 C470.99,354.15 472.93,353.26 473.48,352.81 C478.10,349.02 482.44,346.00 483.25,346.00 C483.79,346.00 486.03,344.15 488.22,341.90 C490.51,339.54 492.25,336.71 493.49,333.21 C491.39,340.04 489.60,343.10 485.84,346.64 C481.81,350.43 478.32,352.23 470.85,354.37 ZM 195.88 253.99 C195.62,251.02 195.23,250.09 194.66,249.51 C193.72,248.58 192.28,246.52 191.47,244.93 C189.43,241.00 187.14,240.00 180.20,240.00 C174.78,240.00 173.82,240.35 169.27,243.98 C168.17,244.85 167.14,245.73 166.19,246.60 C168.50,244.24 170.70,242.54 173.17,241.04 C177.22,238.57 186.69,238.27 190.97,240.48 C193.95,242.03 195.28,243.46 195.88,253.99 ZM 346.03 353.04 C339.47,351.28 333.76,348.34 329.67,344.35 C324.72,339.52 321.57,333.40 320.17,325.68 C320.49,326.93 320.95,327.90 321.62,329.00 C322.79,330.92 324.03,333.70 324.37,335.17 C325.20,338.71 331.81,345.48 336.26,347.34 C338.22,348.15 340.77,349.77 341.92,350.92 C342.75,351.75 344.18,352.46 346.03,353.04 ZM 741.69 314.81 C743.62,313.26 742.01,311.00 738.97,311.00 C734.72,311.00 733.00,311.98 733.00,314.41 C733.00,316.35 733.43,316.55 736.75,316.18 C738.81,315.95 741.04,315.33 741.69,314.81 ZM 776.52 324.69 L 778.79 321.01 C780.83,317.72 783.00,315.02 783.61,315.01 C784.22,315.00 786.38,317.70 788.42,321.00 L 791.43 325.87 C790.42,325.12 789.42,324.26 788.52,323.36 C786.12,320.96 783.67,319.00 783.08,319.00 C782.49,319.00 779.84,321.25 777.19,324.00 C776.96,324.24 776.73,324.47 776.52,324.69 ZM 791.07 284.33 C789.88,285.01 788.95,286.14 788.02,287.95 C784.79,294.30 783.91,294.41 780.00,288.94 C776.52,284.07 776.47,284.04 770.81,284.02 C770.51,284.02 770.20,284.02 769.91,284.03 C770.43,284.01 770.98,284.00 771.54,284.00 C777.28,284.00 778.13,284.26 779.59,286.50 C781.55,289.49 785.05,289.76 786.74,287.04 C787.42,285.96 789.07,284.99 791.07,284.33 ZM 93.62 328.11 C93.86,345.47 95.02,346.41 99.83,347.46 C101.43,347.81 103.67,348.98 104.82,350.05 C105.67,350.84 106.36,351.38 107.00,351.65 C106.54,351.63 106.06,351.59 105.57,351.55 C98.65,350.90 95.33,349.05 94.27,345.24 C93.88,343.87 93.68,337.23 93.62,328.11 ZM 159.10 255.41 C158.46,256.61 157.91,257.82 157.47,259.08 C156.68,261.33 154.89,264.53 153.51,266.17 C152.13,267.81 151.00,269.79 151.00,270.58 C151.00,272.40 147.42,276.00 145.62,276.00 C145.53,276.00 145.44,275.98 145.34,275.94 C145.86,275.70 146.68,274.80 147.33,273.75 C152.18,265.80 155.93,259.91 159.10,255.41 ZM 108.75 351.69 C109.64,351.36 110.65,350.51 112.07,349.08 C116.21,344.94 117.02,342.89 115.49,335.76 C116.76,341.34 117.37,345.70 117.02,347.00 C116.19,350.14 113.58,351.65 108.75,351.69 ZM 695.50 284.00 C696.88,284.00 698.00,283.63 698.00,283.18 C698.00,281.95 707.26,281.77 710.33,282.93 C710.77,283.10 711.15,283.27 711.46,283.45 C710.38,282.94 708.73,283.24 706.45,284.32 C704.41,285.30 702.84,285.55 702.48,284.97 C702.15,284.43 699.88,284.00 697.44,284.00 ZM 476.40 298.50 C475.56,291.86 473.68,286.25 470.19,279.21 C469.17,277.14 468.15,275.28 467.13,273.64 C468.57,275.69 470.29,277.89 471.35,279.00 C474.21,281.98 475.67,287.39 476.40,298.50 ZM 295.89 351.83 C296.32,350.55 299.09,347.85 303.40,344.50 C304.78,343.43 305.74,342.11 306.25,340.67 C304.84,345.83 302.09,349.36 297.73,351.63 C297.15,351.93 296.28,352.19 295.17,352.42 C295.57,352.24 295.82,352.05 295.89,351.83 ZM 428.01 263.21 C425.53,266.72 423.58,270.44 422.41,274.06 C421.44,277.05 419.63,280.86 418.39,282.52 C415.94,285.78 413.59,295.13 412.56,304.65 C412.87,301.43 413.34,298.28 413.97,295.36 C416.66,283.06 419.53,275.75 424.81,267.75 C425.87,266.15 426.93,264.64 428.01,263.21 ZM 475.75 425.31 C479.06,426.18 480.62,426.00 482.56,424.53 C484.35,423.18 484.08,423.06 479.25,423.03 C474.20,423.00 472.12,424.36 475.75,425.31 ZM 442.44 424.53 C444.85,426.35 446.78,426.34 450.00,424.50 C452.38,423.14 452.20,423.07 446.50,423.07 C441.01,423.06 440.67,423.19 442.44,424.53 ZM 474.00 420.07 C474.00,421.31 481.71,421.27 482.48,420.03 C482.81,419.50 481.97,418.78 480.61,418.44 C477.81,417.73 474.00,418.67 474.00,420.07 ZM 441.00 420.11 C441.00,421.29 448.72,421.26 449.46,420.07 C449.77,419.56 449.16,418.87 448.10,418.53 C445.78,417.80 441.00,418.86 441.00,420.11 ZM 352.82 268.76 C349.39,272.41 346.90,277.00 342.77,286.94 C343.06,285.77 343.23,284.41 343.19,283.31 C343.11,281.21 343.70,279.62 344.88,278.78 C345.88,278.08 347.41,276.13 348.27,274.45 C348.95,273.14 350.81,270.83 352.82,268.76 ZM 766.00 328.11 C764.80,327.78 764.01,327.25 763.63,326.49 C764.37,326.91 765.92,327.00 769.04,327.00 L 774.03 327.00 C771.43,329.10 769.69,329.13 766.00,328.11 ZM 793.06 327.00 L 798.00 327.00 C801.17,327.00 804.03,326.58 804.46,326.06 C804.45,326.07 804.45,326.08 804.44,326.09 C803.35,327.86 799.13,328.98 795.94,328.34 C795.21,328.19 794.19,327.70 793.06,327.00 ZM 263.59 353.18 C243.44,352.37 221.13,350.01 216.09,347.21 C220.88,349.80 243.61,352.21 263.59,353.18 ZM 608.09 324.63 C608.02,324.44 607.95,324.23 607.89,324.00 C607.42,322.29 607.13,307.15 607.11,293.67 C607.22,306.19 607.61,320.52 608.09,324.63 ZM 189.70 349.25 C191.53,347.87 193.66,344.85 194.70,342.17 C194.81,341.89 194.91,341.61 195.00,341.32 C193.97,345.87 192.21,347.37 189.23,349.64 C188.45,350.24 187.72,350.72 186.98,351.12 C187.78,350.63 188.68,350.01 189.70,349.25 ZM 647.86 289.62 C647.92,289.55 647.97,289.47 648.02,289.39 C649.63,287.10 652.38,285.31 655.95,284.14 C652.70,285.44 649.99,287.28 647.86,289.62 ZM 319.68 322.29 C319.23,318.19 319.21,313.69 319.62,308.73 C319.55,310.34 319.52,312.23 319.52,314.50 C319.51,317.95 319.55,320.41 319.68,322.29 ZM 737.24 328.00 C741.93,327.93 746.44,326.66 750.04,324.60 C746.36,327.01 742.70,327.94 737.24,328.00 ZM 440.27 275.71 C437.44,279.94 435.53,284.68 433.64,291.65 C435.89,283.31 437.07,280.19 440.27,275.71 ZM 759.55 308.56 L 759.80 304.31 C759.94,301.83 759.61,299.39 758.84,297.10 C759.59,299.22 759.99,301.45 759.98,303.71 C759.98,305.91 759.87,307.46 759.55,308.56 ZM 701.95 326.54 C700.90,327.00 699.32,327.00 696.92,327.00 L 696.92 327.00 C695.77,327.00 694.93,326.99 694.32,326.83 C695.04,326.93 696.12,326.91 697.75,326.80 ZM 412.45 322.91 C413.24,330.52 414.98,337.16 417.01,339.50 C414.69,336.83 413.12,330.51 412.45,322.91 ZM 475.81 321.99 C476.48,319.37 476.81,316.05 476.91,311.69 C476.98,316.98 476.70,319.34 475.81,321.99 ZM 371.40 354.15 C365.01,355.17 358.59,355.21 352.61,354.37 C358.29,355.07 365.24,355.05 371.40,354.15 ZM 443.30 271.74 C451.19,262.02 458.40,261.60 464.97,270.49 C458.74,262.33 452.44,262.09 445.33,269.51 C444.61,270.27 443.94,271.00 443.30,271.74 ZM 438.13 354.19 C435.98,353.71 434.12,353.14 432.73,352.48 C431.68,351.98 430.66,351.47 429.69,350.95 C432.41,352.28 435.36,353.43 438.13,354.19 ZM 636.01 303.53 C634.95,303.80 631.81,304.01 628.67,304.02 L 628.60 304.02 C628.67,304.01 628.75,304.01 628.83,304.00 ZM 621.42 304.93 C620.54,305.50 620.06,306.42 619.78,307.93 C619.94,306.49 620.13,305.53 620.33,305.33 C620.46,305.21 620.84,305.07 621.42,304.93 ZM 342.09 288.83 C341.26,291.72 340.30,297.13 339.80,302.00 C339.76,302.43 339.71,302.86 339.68,303.29 C339.72,302.78 339.77,302.27 339.82,301.75 C340.42,295.92 341.44,290.16 342.09,288.83 ZM 462.50 355.70 C458.01,356.03 452.91,355.99 448.10,355.60 C452.85,355.90 458.26,355.93 462.50,355.70 ZM 114.38 331.12 C112.55,323.79 111.31,315.95 110.67,307.77 C111.30,315.60 112.53,323.25 114.38,331.12 ZM 692.99 325.26 C692.77,324.20 692.81,322.48 692.93,319.73 C692.96,322.52 692.99,324.63 692.99,325.26 ZM 110.31 286.86 C110.76,276.18 111.71,269.95 113.44,267.40 C111.75,270.06 110.75,276.46 110.31,286.86 ZM 151.98 308.97 C152.86,305.44 153.79,302.63 154.17,302.39 C154.24,302.35 154.31,302.28 154.38,302.18 C154.30,302.33 154.22,302.46 154.14,302.55 C153.78,302.94 152.91,305.58 151.98,308.97 ZM 468.72 330.96 C470.89,329.75 472.53,328.44 473.74,326.71 C472.65,328.49 471.29,329.55 468.72,330.96 ZM 341.29 323.04 C344.12,329.98 350.08,333.00 359.75,333.00 C350.06,333.00 344.11,330.00 341.29,323.04 ZM 799.28 283.71 C798.23,283.55 797.01,283.45 795.83,283.44 C796.90,283.38 797.94,283.44 798.86,283.62 C799.00,283.65 799.14,283.68 799.28,283.71 ZM 361.11 263.10 C359.29,263.15 358.15,263.83 355.76,265.96 C358.14,263.81 359.20,263.13 361.11,263.10 ZM 116.83 266.33 C117.11,266.45 117.39,266.60 117.69,266.79 C117.82,266.87 118.02,267.09 118.29,267.43 C117.78,266.94 117.29,266.57 116.83,266.33 ZM 645.00 317.35 C644.28,316.20 643.69,315.02 643.24,313.83 C643.42,314.28 643.63,314.74 643.87,315.23 C644.23,315.97 644.60,316.68 645.00,317.35 ZM 431.11 307.22 C431.43,302.22 432.24,296.90 433.49,292.22 C432.24,296.96 431.44,302.25 431.11,307.22 ZM 243.02 263.35 C238.28,263.81 237.00,265.08 237.00,267.63 C237.00,265.06 238.25,263.80 243.02,263.35 ZM 607.47 273.29 C607.51,272.85 607.56,272.53 607.60,272.36 C607.64,272.21 607.68,272.08 607.72,271.96 ZM 213.10 343.58 C213.77,344.96 214.60,346.10 215.56,346.87 C214.56,346.09 213.74,344.96 213.10,343.58 ZM 712.14 283.96 C712.54,284.38 712.77,284.93 712.88,285.76 C712.76,284.98 712.51,284.38 712.14,283.96 ZM 617.17 269.92 C617.98,269.88 618.87,269.85 619.84,269.82 C620.40,269.80 620.97,269.79 621.53,269.77 C620.97,269.79 620.38,269.81 619.78,269.83 ZM 539.65 249.64 C539.61,249.70 539.57,249.77 539.52,249.84 L 536.50 254.17 L 539.51 249.84 C539.56,249.77 539.61,249.70 539.65,249.64 ZM 765.03 320.80 C765.47,320.07 765.99,319.27 766.61,318.41 C766.04,319.21 765.50,320.03 765.03,320.80 Z" fill="rgb(25,65,111)"/>
<path d="M 0.00 424.00 L 0.00 0.00 L 476.50 0.00 L 953.00 0.00 L 953.00 424.00 L 953.00 848.00 L 476.50 848.00 L 0.00 848.00 L 0.00 424.00 ZM 343.79 566.75 L 344.08 558.00 L 361.92 558.00 C374.98,558.00 380.03,558.33 380.78,559.25 C381.34,559.94 382.13,564.01 382.52,568.30 C383.23,575.99 383.29,576.10 385.87,575.80 C388.07,575.55 388.55,574.93 388.83,572.03 C389.40,566.06 387.99,559.90 385.48,557.39 C383.22,555.13 383.20,554.97 384.95,553.74 C386.86,552.41 387.50,548.06 387.17,538.78 C387.02,534.55 386.66,533.87 383.75,532.29 C380.94,530.77 377.61,530.53 359.00,530.52 L 337.50 530.50 L 337.23 553.31 L 336.96 576.13 L 340.23 575.81 L 343.50 575.50 L 343.79 566.75 ZM 445.72 574.03 C449.58,571.67 450.20,569.64 449.80,560.49 C449.52,554.00 449.31,553.43 446.75,552.20 C443.98,550.88 443.03,549.00 445.14,549.00 C447.16,549.00 448.94,545.61 448.97,541.70 C449.01,536.61 446.59,532.20 443.23,531.26 C441.73,530.84 431.05,530.50 419.50,530.50 L 398.50 530.50 L 398.23 551.98 C398.08,563.79 398.18,574.02 398.45,574.73 C398.82,575.70 403.99,576.00 420.72,576.00 C440.61,575.99 442.78,575.82 445.72,574.03 ZM 467.00 567.00 L 467.00 558.00 L 485.42 558.00 C503.84,558.00 503.85,558.00 506.96,555.38 C510.07,552.76 510.07,552.75 509.79,543.74 C509.51,535.15 509.36,534.61 506.68,532.60 C504.01,530.62 502.65,530.50 482.18,530.50 L 460.50 530.50 L 460.23 553.25 L 459.96 576.00 L 463.48 576.00 L 467.00 576.00 L 467.00 567.00 ZM 540.00 565.50 L 540.00 555.00 L 557.88 555.00 C572.48,555.00 575.98,554.73 576.99,553.51 C577.67,552.69 577.96,551.34 577.64,550.51 C577.15,549.24 574.15,549.00 558.49,549.00 L 539.91 549.00 L 540.20 542.25 L 540.50 535.50 L 559.82 535.23 L 579.13 534.96 L 578.82 532.73 C578.50,530.51 578.38,530.50 556.88,530.23 L 535.27 529.96 L 534.64 533.73 C533.81,538.80 533.83,574.49 534.67,575.33 C535.03,575.70 536.38,576.00 537.67,576.00 C539.96,576.00 540.00,575.83 540.00,565.50 ZM 590.00 553.00 L 590.00 530.00 L 587.50 530.00 L 585.00 530.00 L 585.00 553.00 L 585.00 576.00 L 587.50 576.00 L 590.00 576.00 L 590.00 553.00 ZM 656.00 552.93 L 656.00 529.87 L 653.25 530.18 L 650.50 530.50 L 650.23 549.75 C650.08,560.34 649.69,569.00 649.36,569.00 C649.03,569.00 643.40,563.71 636.85,557.25 C609.62,530.39 608.46,529.48 602.37,530.17 L 599.50 530.50 L 599.31 551.31 C599.20,562.76 599.36,572.77 599.66,573.56 C600.35,575.37 603.40,575.43 604.85,573.68 C605.54,572.85 606.06,565.59 606.23,554.46 L 606.50 536.57 L 619.37 549.03 C647.81,576.59 647.04,575.95 651.75,575.98 L 656.00 576.00 L 656.00 552.93 ZM 670.00 553.00 C670.00,530.67 669.94,530.00 668.00,530.00 C666.06,530.00 666.00,530.67 666.00,553.00 C666.00,575.33 666.06,576.00 668.00,576.00 C669.94,576.00 670.00,575.33 670.00,553.00 ZM 713.56 568.00 C715.80,563.88 720.02,556.22 722.96,551.00 C730.37,537.78 734.00,531.04 734.00,530.48 C734.00,529.42 728.18,530.09 727.26,531.25 C726.72,531.94 724.46,535.88 722.23,540.00 C713.25,556.68 706.43,568.36 705.49,568.66 C704.95,568.84 704.02,567.97 703.43,566.74 C702.34,564.44 696.62,553.99 692.07,545.98 C690.66,543.50 688.15,538.89 686.50,535.74 C683.79,530.56 683.19,530.01 680.25,530.00 C678.46,530.00 677.00,530.20 677.00,530.44 C677.00,530.92 680.25,536.96 689.44,553.50 C692.79,559.55 696.88,567.10 698.52,570.28 C701.46,575.99 701.55,576.07 705.50,575.78 C709.37,575.51 709.63,575.25 713.56,568.00 ZM 746.00 553.00 L 746.00 530.00 L 743.00 530.00 L 740.00 530.00 L 740.00 553.00 L 740.00 576.00 L 743.00 576.00 L 746.00 576.00 L 746.00 553.00 ZM 801.57 574.54 C808.33,571.71 810.30,560.61 805.08,554.77 L 802.17 551.50 L 784.33 551.00 C766.34,550.50 762.91,549.81 761.62,546.45 C760.49,543.50 760.98,540.25 762.91,537.86 C764.78,535.55 765.18,535.50 781.48,535.50 C799.55,535.50 799.41,535.46 801.04,541.50 C801.70,543.95 805.77,544.76 806.60,542.61 C807.69,539.75 804.98,534.05 801.67,532.23 C799.01,530.78 795.74,530.50 781.50,530.50 C762.65,530.50 758.91,531.34 756.45,536.09 C754.71,539.46 754.56,546.30 756.16,549.30 C759.33,555.21 762.40,556.00 782.41,556.00 C800.53,556.00 802.01,556.52 801.98,562.90 C801.95,570.19 799.80,571.00 780.57,571.00 C766.33,571.00 764.83,570.83 763.00,569.00 C761.90,567.90 761.00,565.88 761.00,564.50 C761.00,562.39 760.53,562.00 758.00,562.00 C755.26,562.00 755.00,562.29 755.00,565.37 C755.00,569.07 758.04,573.67 761.39,575.02 C762.55,575.49 771.28,575.90 780.78,575.94 C793.81,575.98 798.93,575.64 801.57,574.54 ZM 548.99 425.02 C553.54,415.96 553.53,416.00 551.49,416.00 C550.65,416.00 548.99,418.02 547.79,420.50 C546.59,422.98 545.24,425.00 544.79,425.00 C544.34,425.00 542.99,422.98 541.79,420.50 C540.35,417.55 538.96,416.00 537.73,416.00 C536.06,416.00 536.20,416.62 539.11,421.75 C540.90,424.91 542.71,427.74 543.13,428.03 C543.55,428.32 543.48,429.22 542.96,430.03 C541.63,432.13 541.78,433.00 543.49,433.00 C544.35,433.00 546.67,429.62 548.99,425.02 ZM 374.00 426.00 C374.00,424.25 374.67,424.00 379.35,424.00 C386.03,424.00 388.93,421.56 387.41,417.22 C386.50,414.62 386.13,414.49 378.73,414.21 L 371.00 413.92 L 371.00 420.96 C371.00,426.55 371.31,428.00 372.50,428.00 C373.33,428.00 374.00,427.11 374.00,426.00 ZM 404.43 426.43 C405.29,425.56 406.00,423.57 406.00,422.00 C406.00,417.95 403.61,416.00 398.65,416.00 C393.22,416.00 390.00,418.23 390.00,422.00 C390.00,423.85 390.80,425.45 392.22,426.44 C395.13,428.48 402.39,428.47 404.43,426.43 ZM 419.40 423.95 C421.24,419.36 422.35,419.49 424.00,424.51 C424.86,427.10 425.73,428.00 427.37,428.00 C429.06,428.00 430.22,426.70 432.29,422.48 C435.46,416.01 435.47,416.00 433.44,416.00 C432.55,416.00 430.98,418.03 429.77,420.75 L 427.65 425.50 L 425.57 420.77 C422.83,414.50 419.91,414.23 417.98,420.05 C417.25,422.28 416.32,424.30 415.92,424.55 C415.52,424.79 414.36,422.97 413.35,420.50 C412.20,417.70 410.87,416.01 409.82,416.00 C408.36,416.00 408.47,416.75 410.74,422.00 C412.79,426.76 413.79,428.00 415.56,428.00 C417.23,428.00 418.19,426.99 419.40,423.95 ZM 451.25 426.75 C454.05,424.61 454.45,420.45 452.09,418.09 C449.24,415.24 441.81,415.19 439.00,418.00 C436.42,420.58 436.47,422.81 439.17,425.69 C441.64,428.31 448.43,428.91 451.25,426.75 ZM 459.00 424.02 C459.00,419.84 459.40,419.53 465.92,418.78 C467.25,418.63 468.53,417.94 468.76,417.25 C469.27,415.70 463.72,415.54 460.93,417.04 C459.60,417.75 459.00,417.75 459.00,417.04 C459.00,416.47 458.33,416.00 457.50,416.00 C456.33,416.00 456.00,417.33 456.00,422.00 C456.00,426.67 456.33,428.00 457.50,428.00 C458.58,428.00 459.00,426.89 459.00,424.02 ZM 484.25 426.75 C487.12,424.56 487.45,420.45 484.97,417.97 C483.11,416.11 481.97,415.84 477.72,416.25 C470.34,416.96 467.79,421.25 472.04,425.81 C474.37,428.32 481.49,428.86 484.25,426.75 ZM 506.00 419.78 C506.00,413.53 505.70,412.00 504.50,412.00 C503.57,412.00 503.00,412.94 503.00,414.48 C503.00,416.84 502.79,416.93 498.53,416.35 C492.89,415.58 489.00,417.76 489.00,421.69 C489.00,426.52 491.47,428.00 499.14,427.77 L 506.00 427.56 L 506.00 419.78 ZM 532.44 426.42 C534.50,424.36 534.43,419.57 532.31,417.45 C530.98,416.12 529.48,415.88 525.31,416.31 C520.20,416.83 520.00,416.76 520.00,414.43 C520.00,412.94 519.42,412.00 518.50,412.00 C517.30,412.00 517.00,413.53 517.00,419.78 L 517.00 427.56 L 523.94 427.77 C529.11,427.93 531.27,427.58 532.44,426.42 ZM 470.85 354.37 C478.32,352.23 481.81,350.43 485.84,346.64 C489.97,342.75 491.73,339.44 494.13,331.06 C497.93,317.74 495.55,291.98 489.03,275.92 C485.97,268.39 477.33,255.00 475.52,255.00 C474.86,255.00 473.45,254.05 472.40,252.89 C471.36,251.73 468.29,249.66 465.59,248.29 C452.08,241.45 437.62,248.35 424.81,267.75 C419.53,275.75 416.66,283.06 413.97,295.36 C410.49,311.30 412.04,333.77 417.01,339.50 C417.97,340.60 419.25,342.48 419.87,343.67 C420.96,345.79 426.21,349.39 432.73,352.48 C440.28,356.06 461.34,357.11 470.85,354.37 ZM 853.23 354.35 C855.58,353.44 858.74,351.56 860.25,350.16 L 863.00 347.63 L 863.00 298.24 L 863.00 248.85 L 860.17 246.02 C858.62,244.46 855.58,242.70 853.42,242.10 C850.67,241.34 804.96,241.02 700.50,241.05 L 551.50 241.08 L 547.01 243.29 C544.32,244.62 541.33,247.23 539.51,249.84 L 536.50 254.17 L 536.50 298.51 C536.50,342.31 536.53,342.87 538.63,345.17 C539.79,346.45 541.24,348.46 541.85,349.63 C542.45,350.80 544.87,352.72 547.22,353.88 L 551.50 356.00 L 700.23 356.00 C836.04,356.00 849.33,355.86 853.23,354.35 ZM 377.19 352.95 C387.12,350.41 389.11,349.14 393.20,342.65 L 396.45 337.50 L 396.20 324.00 C395.93,309.54 394.70,299.30 393.02,297.62 C391.89,296.49 389.40,297.08 377.50,301.28 C373.65,302.64 370.37,304.39 370.21,305.18 C370.06,305.96 371.73,308.06 373.93,309.82 C379.14,314.01 380.83,319.45 378.47,324.42 C375.43,330.83 370.70,333.00 359.75,333.00 C343.21,333.00 337.52,324.15 339.80,302.00 C340.40,296.23 341.63,289.70 342.54,287.50 C347.45,275.62 350.04,271.20 354.46,267.13 C358.86,263.09 359.53,262.80 363.52,263.25 C366.71,263.61 369.13,264.83 372.84,267.96 C378.56,272.78 380.35,272.75 384.56,267.74 C386.84,265.04 387.15,263.91 386.75,259.75 C386.16,253.66 383.16,250.34 374.26,245.96 C368.48,243.11 367.06,242.81 361.82,243.28 C342.76,245.01 325.19,269.75 320.47,301.50 C317.46,321.71 320.38,335.30 329.67,344.35 C339.62,354.04 359.11,357.57 377.19,352.95 ZM 297.73 351.63 C302.36,349.22 305.17,345.40 306.49,339.71 C309.00,328.92 302.91,325.39 289.65,329.95 C281.50,332.75 270.82,334.00 254.97,334.00 C239.79,334.00 236.32,333.14 235.32,329.13 C234.79,327.02 235.40,325.99 239.05,322.85 C241.45,320.78 246.81,317.68 250.96,315.95 C255.11,314.22 260.52,311.96 263.00,310.93 C265.48,309.90 269.30,308.60 271.50,308.04 C280.41,305.77 285.42,300.42 283.21,295.55 C282.39,293.77 280.40,292.57 275.80,291.09 C264.61,287.52 260.65,285.92 252.58,281.72 C242.87,276.67 237.00,271.36 237.00,267.63 C237.00,263.48 240.38,262.73 256.50,263.30 C270.06,263.77 283.16,265.97 293.78,269.55 C300.96,271.97 304.51,271.50 307.18,267.75 C311.68,261.45 309.65,247.03 303.84,243.91 C300.74,242.26 249.81,240.76 233.92,241.86 C219.84,242.83 217.40,243.74 213.89,249.30 C211.07,253.77 211.88,263.39 215.63,269.87 C218.82,275.39 231.76,288.19 237.64,291.63 C244.95,295.92 244.33,297.50 232.59,304.50 C223.34,310.01 219.19,313.35 215.75,318.03 C209.88,326.01 209.77,342.32 215.56,346.87 C222.14,352.05 289.43,355.95 297.73,351.63 ZM 189.23 349.64 C196.39,344.18 196.51,343.22 196.41,293.50 C196.31,245.45 196.08,243.12 190.97,240.48 C186.69,238.27 177.22,238.57 173.17,241.04 C165.64,245.63 160.62,251.98 147.33,273.75 C146.57,274.99 145.57,276.00 145.09,276.00 C144.12,276.00 138.51,265.62 132.51,252.73 C129.62,246.53 122.14,240.57 115.34,239.06 C112.13,238.34 109.13,237.25 108.67,236.63 C108.07,235.81 107.71,235.84 107.34,236.75 C107.06,237.44 105.77,238.00 104.47,238.00 C103.17,238.00 100.89,239.05 99.40,240.33 C96.81,242.56 96.62,243.37 95.26,258.08 C93.71,274.77 92.96,340.57 94.27,345.24 C95.33,349.05 98.65,350.90 105.57,351.55 C112.46,352.19 116.02,350.77 117.02,347.00 C117.42,345.50 116.56,339.96 114.88,333.17 C111.05,317.74 109.63,303.28 110.31,286.86 C111.07,268.64 113.58,262.72 118.46,267.60 C120.73,269.87 123.94,276.43 125.71,282.41 C126.54,285.21 128.00,289.08 128.95,291.00 C129.90,292.92 132.15,300.19 133.95,307.14 C137.33,320.13 140.03,325.00 143.89,325.00 C146.96,325.00 148.77,321.84 151.07,312.50 C152.28,307.55 153.66,303.07 154.14,302.55 C154.61,302.03 155.00,300.37 155.00,298.86 C155.00,297.35 155.40,295.87 155.89,295.57 C156.38,295.27 157.08,293.81 157.45,292.33 C157.82,290.85 159.45,286.82 161.06,283.36 C162.68,279.91 164.00,276.72 164.00,276.27 C164.00,275.82 165.40,273.75 167.12,271.67 C171.06,266.89 173.99,267.00 175.69,272.00 C177.32,276.77 177.25,301.76 175.59,310.50 C174.86,314.35 172.85,323.01 171.13,329.73 C167.29,344.75 167.22,347.31 170.57,350.66 C172.88,352.98 173.74,353.19 179.35,352.83 C184.24,352.52 186.35,351.83 189.23,349.64 ZM 344.00 543.42 L 344.00 534.83 L 361.59 535.17 C378.68,535.49 379.23,535.57 381.09,537.86 C383.46,540.79 383.54,545.28 381.28,549.10 L 379.57 552.00 L 361.78 552.00 L 344.00 552.00 L 344.00 543.42 ZM 404.67 570.33 C404.30,569.97 404.00,566.14 404.00,561.83 L 404.00 554.00 L 421.43 554.00 C431.02,554.00 439.98,554.42 441.34,554.94 C446.10,556.75 446.17,567.69 441.44,569.85 C438.72,571.09 405.85,571.52 404.67,570.33 ZM 404.67 548.33 C404.30,547.97 404.00,544.78 404.00,541.25 L 404.00 534.84 L 422.08 535.17 C438.61,535.47 440.29,535.67 441.58,537.44 C443.61,540.21 443.33,544.67 441.00,547.00 C439.16,548.84 437.67,549.00 422.17,549.00 C412.91,549.00 405.03,548.70 404.67,548.33 ZM 467.67 552.33 C467.30,551.97 467.00,547.92 467.00,543.33 L 467.00 535.00 L 480.36 535.00 C499.38,535.00 502.57,535.56 504.06,539.14 C505.65,542.99 504.58,549.08 501.92,551.25 C500.08,552.75 497.55,553.00 484.06,553.00 C475.41,553.00 468.03,552.70 467.67,552.33 ZM 374.67 421.33 C374.30,420.97 374.00,419.84 374.00,418.83 C374.00,417.28 374.83,417.00 379.50,417.00 C383.66,417.00 385.00,417.36 385.00,418.46 C385.00,419.27 384.13,420.40 383.07,420.96 C380.90,422.13 375.69,422.35 374.67,421.33 ZM 394.58 424.68 C393.59,423.96 392.95,422.50 393.15,421.43 C393.44,419.90 394.50,419.44 398.26,419.20 C402.91,418.90 403.00,418.95 403.00,421.84 C403.00,425.93 398.41,427.48 394.58,424.68 ZM 442.44 424.53 C440.67,423.19 441.01,423.06 446.50,423.07 C452.20,423.07 452.38,423.14 450.00,424.50 C446.78,426.34 444.85,426.35 442.44,424.53 ZM 441.00 420.11 C441.00,418.86 445.78,417.80 448.10,418.53 C449.16,418.87 449.77,419.56 449.46,420.07 C448.72,421.26 441.00,421.29 441.00,420.11 ZM 475.75 425.31 C472.12,424.36 474.20,423.00 479.25,423.03 C484.08,423.06 484.35,423.18 482.56,424.53 C480.62,426.00 479.06,426.18 475.75,425.31 ZM 474.00 420.07 C474.00,418.67 477.81,417.73 480.61,418.44 C481.97,418.78 482.81,419.50 482.48,420.03 C481.71,421.27 474.00,421.31 474.00,420.07 ZM 493.58 424.68 C492.59,423.96 491.95,422.50 492.15,421.43 C492.43,419.93 493.50,419.43 496.91,419.19 C502.57,418.78 504.66,421.20 501.43,424.43 C499.51,426.34 496.01,426.46 493.58,424.68 ZM 521.95 424.16 C519.90,422.50 519.76,422.00 520.90,420.61 C522.74,418.41 529.84,418.42 530.69,420.64 C532.36,424.97 526.08,427.51 521.95,424.16 ZM 451.50 334.52 C450.95,334.32 448.34,333.87 445.71,333.51 C440.07,332.75 434.68,328.57 432.45,323.23 C430.06,317.51 430.57,303.14 433.55,292.01 C436.42,281.30 439.29,275.82 445.33,269.51 C454.43,260.02 462.21,263.05 470.19,279.21 C475.36,289.67 477.01,296.96 476.94,309.14 C476.87,323.05 475.14,327.51 468.40,331.14 C463.99,333.51 454.15,335.48 451.50,334.52 ZM 656.63 326.54 C650.88,324.89 646.80,321.27 643.87,315.23 C642.12,311.61 641.83,309.61 642.24,303.88 C643.09,292.02 650.10,284.47 662.17,282.43 C667.00,281.61 675.97,284.26 680.08,287.72 C684.32,291.29 687.98,299.31 687.97,305.00 C687.95,312.81 682.43,322.12 675.78,325.60 C671.76,327.70 662.28,328.16 656.63,326.54 ZM 671.74 315.44 C677.71,311.52 678.37,302.22 673.05,296.90 C667.82,291.67 661.94,291.86 656.34,297.46 C652.45,301.35 652.01,305.48 654.89,310.90 C658.32,317.34 665.77,319.34 671.74,315.44 ZM 725.57 324.84 C718.80,320.36 715.04,314.00 715.02,307.00 C715.00,298.88 716.67,294.22 721.34,289.36 C724.70,285.86 726.72,284.71 731.80,283.44 C738.69,281.71 742.23,282.09 748.43,285.23 C755.83,288.98 760.26,296.41 759.80,304.31 L 759.50 309.50 L 743.25 309.77 C733.55,309.94 727.00,310.44 727.00,311.02 C727.00,312.52 730.78,315.97 733.61,317.04 C737.39,318.48 740.13,318.21 744.26,316.00 C746.59,314.75 749.90,314.00 753.06,314.00 C757.86,314.00 758.10,314.12 757.46,316.25 C755.45,322.88 746.48,328.00 736.86,328.00 C731.22,328.00 729.70,327.57 725.57,324.84 ZM 747.50 298.51 C747.50,296.19 742.00,293.12 737.70,293.05 C732.80,292.96 726.01,297.58 727.49,299.99 C727.92,300.68 731.69,300.97 737.83,300.79 C746.72,300.52 747.50,300.34 747.50,298.51 ZM 608.31 325.75 C607.35,324.27 606.60,277.95 607.46,273.37 L 608.05 270.21 L 619.78 269.83 C637.10,269.26 637.00,269.23 637.00,275.04 L 637.00 279.86 L 631.75 280.43 C628.86,280.74 624.92,281.11 623.00,281.25 C619.74,281.48 619.48,281.75 619.19,285.21 C618.65,291.78 619.96,292.88 628.76,293.21 L 636.50 293.50 L 636.50 298.50 L 636.50 303.50 L 628.83 304.00 C624.61,304.27 620.79,304.87 620.33,305.33 C619.87,305.79 619.44,310.36 619.37,315.49 C619.29,320.62 618.93,325.30 618.56,325.91 C617.63,327.41 609.30,327.29 608.31,325.75 ZM 692.99 325.30 C692.98,324.31 692.92,318.55 692.86,312.50 C692.79,306.45 692.79,297.56 692.87,292.75 L 693.00 284.00 L 697.44 284.00 C699.88,284.00 702.15,284.43 702.48,284.97 C702.84,285.55 704.41,285.30 706.45,284.32 C710.94,282.18 713.00,283.10 712.98,287.22 C712.97,291.30 712.31,292.31 708.37,294.32 C706.65,295.20 704.89,296.73 704.45,297.71 C704.02,298.70 703.40,305.58 703.08,313.00 L 702.50 326.50 L 697.75 326.80 C693.73,327.06 693.00,326.83 692.99,325.30 ZM 763.00 325.17 C763.00,324.16 764.78,320.90 766.96,317.92 C769.14,314.94 771.86,310.78 773.02,308.68 C775.65,303.88 774.83,300.92 768.44,292.14 C765.96,288.72 764.19,285.50 764.52,284.96 C764.85,284.43 767.68,284.01 770.81,284.02 C776.47,284.04 776.52,284.07 780.00,288.94 C783.91,294.41 784.79,294.30 788.02,287.95 C789.38,285.29 790.75,284.10 792.95,283.66 C796.01,283.05 802.00,283.79 802.00,284.78 C802.00,285.56 795.00,298.07 792.75,301.29 C791.69,302.82 791.03,304.64 791.30,305.34 C791.57,306.04 794.78,310.76 798.44,315.84 C802.09,320.91 804.81,325.49 804.48,326.03 C804.15,326.56 801.24,327.00 798.00,327.00 L 792.12 327.00 L 788.42 321.00 C786.38,317.70 784.22,315.00 783.61,315.01 C783.00,315.02 780.83,317.72 778.79,321.01 L 775.09 327.00 L 769.04 327.00 C763.85,327.00 763.00,326.74 763.00,325.17 Z" fill="rgb(15,15,15)"/>
<path d="M 80.75 840.24 L -0.00 839.99 L -0.00 419.99 L 0.00 0.00 L 476.50 0.00 L 953.00 0.00 L 953.00 420.25 L 953.00 840.50 L 557.25 840.50 C339.59,840.50 125.16,840.38 80.75,840.24 ZM 343.79 566.75 L 344.08 558.00 L 361.92 558.00 C374.98,558.00 380.03,558.33 380.78,559.25 C381.34,559.94 382.13,564.01 382.52,568.30 C383.23,575.99 383.29,576.10 385.87,575.80 C388.07,575.55 388.55,574.93 388.83,572.03 C389.40,566.06 387.99,559.90 385.48,557.39 C383.22,555.13 383.20,554.97 384.95,553.74 C386.86,552.41 387.50,548.06 387.17,538.78 C387.02,534.55 386.66,533.87 383.75,532.29 C380.94,530.77 377.61,530.53 359.00,530.52 L 337.50 530.50 L 337.23 553.31 L 336.96 576.13 L 340.23 575.81 L 343.50 575.50 L 343.79 566.75 ZM 445.72 574.03 C449.58,571.67 450.20,569.64 449.80,560.49 C449.52,554.00 449.31,553.43 446.75,552.20 C443.98,550.88 443.03,549.00 445.14,549.00 C447.16,549.00 448.94,545.61 448.97,541.70 C449.01,536.61 446.59,532.20 443.23,531.26 C441.73,530.84 431.05,530.50 419.50,530.50 L 398.50 530.50 L 398.23 551.98 C398.08,563.79 398.18,574.02 398.45,574.73 C398.82,575.70 403.99,576.00 420.72,576.00 C440.61,575.99 442.78,575.82 445.72,574.03 ZM 467.00 567.00 L 467.00 558.00 L 485.42 558.00 C503.84,558.00 503.85,558.00 506.96,555.38 C510.07,552.76 510.07,552.75 509.79,543.74 C509.51,535.15 509.36,534.61 506.68,532.60 C504.01,530.62 502.65,530.50 482.18,530.50 L 460.50 530.50 L 460.23 553.25 L 459.96 576.00 L 463.48 576.00 L 467.00 576.00 L 467.00 567.00 ZM 540.00 565.50 L 540.00 555.00 L 557.88 555.00 C572.48,555.00 575.98,554.73 576.99,553.51 C577.67,552.69 577.96,551.34 577.64,550.51 C577.15,549.24 574.15,549.00 558.49,549.00 L 539.91 549.00 L 540.20 542.25 L 540.50 535.50 L 559.82 535.23 L 579.13 534.96 L 578.82 532.73 C578.50,530.51 578.38,530.50 556.88,530.23 L 535.27 529.96 L 534.64 533.73 C533.81,538.80 533.83,574.49 534.67,575.33 C535.03,575.70 536.38,576.00 537.67,576.00 C539.96,576.00 540.00,575.83 540.00,565.50 ZM 590.00 553.00 L 590.00 530.00 L 587.50 530.00 L 585.00 530.00 L 585.00 553.00 L 585.00 576.00 L 587.50 576.00 L 590.00 576.00 L 590.00 553.00 ZM 656.00 552.93 L 656.00 529.87 L 653.25 530.18 L 650.50 530.50 L 650.23 549.75 C650.08,560.34 649.69,569.00 649.36,569.00 C649.03,569.00 643.40,563.71 636.85,557.25 C609.62,530.39 608.46,529.48 602.37,530.17 L 599.50 530.50 L 599.31 551.31 C599.20,562.76 599.36,572.77 599.66,573.56 C600.35,575.37 603.40,575.43 604.85,573.68 C605.54,572.85 606.06,565.59 606.23,554.46 L 606.50 536.57 L 619.37 549.03 C647.81,576.59 647.04,575.95 651.75,575.98 L 656.00 576.00 L 656.00 552.93 ZM 670.00 553.00 C670.00,530.67 669.94,530.00 668.00,530.00 C666.06,530.00 666.00,530.67 666.00,553.00 C666.00,575.33 666.06,576.00 668.00,576.00 C669.94,576.00 670.00,575.33 670.00,553.00 ZM 713.56 568.00 C715.80,563.88 720.02,556.22 722.96,551.00 C730.37,537.78 734.00,531.04 734.00,530.48 C734.00,529.42 728.18,530.09 727.26,531.25 C726.72,531.94 724.46,535.88 722.23,540.00 C713.25,556.68 706.43,568.36 705.49,568.66 C704.95,568.84 704.02,567.97 703.43,566.74 C702.34,564.44 696.62,553.99 692.07,545.98 C690.66,543.50 688.15,538.89 686.50,535.74 C683.79,530.56 683.19,530.01 680.25,530.00 C678.46,530.00 677.00,530.20 677.00,530.44 C677.00,530.92 680.25,536.96 689.44,553.50 C692.79,559.55 696.88,567.10 698.52,570.28 C701.46,575.99 701.55,576.07 705.50,575.78 C709.37,575.51 709.63,575.25 713.56,568.00 ZM 746.00 553.00 L 746.00 530.00 L 743.00 530.00 L 740.00 530.00 L 740.00 553.00 L 740.00 576.00 L 743.00 576.00 L 746.00 576.00 L 746.00 553.00 ZM 801.57 574.54 C808.33,571.71 810.30,560.61 805.08,554.77 L 802.17 551.50 L 784.33 551.00 C766.34,550.50 762.91,549.81 761.62,546.45 C760.49,543.50 760.98,540.25 762.91,537.86 C764.78,535.55 765.18,535.50 781.48,535.50 C799.55,535.50 799.41,535.46 801.04,541.50 C801.70,543.95 805.77,544.76 806.60,542.61 C807.69,539.75 804.98,534.05 801.67,532.23 C799.01,530.78 795.74,530.50 781.50,530.50 C762.65,530.50 758.91,531.34 756.45,536.09 C754.71,539.46 754.56,546.30 756.16,549.30 C759.33,555.21 762.40,556.00 782.41,556.00 C800.53,556.00 802.01,556.52 801.98,562.90 C801.95,570.19 799.80,571.00 780.57,571.00 C766.33,571.00 764.83,570.83 763.00,569.00 C761.90,567.90 761.00,565.88 761.00,564.50 C761.00,562.39 760.53,562.00 758.00,562.00 C755.26,562.00 755.00,562.29 755.00,565.37 C755.00,569.07 758.04,573.67 761.39,575.02 C762.55,575.49 771.28,575.90 780.78,575.94 C793.81,575.98 798.93,575.64 801.57,574.54 ZM 548.99 425.02 C553.54,415.96 553.53,416.00 551.49,416.00 C550.65,416.00 548.99,418.02 547.79,420.50 C546.59,422.98 545.24,425.00 544.79,425.00 C544.34,425.00 542.99,422.98 541.79,420.50 C540.35,417.55 538.96,416.00 537.73,416.00 C536.06,416.00 536.20,416.62 539.11,421.75 C540.90,424.91 542.71,427.74 543.13,428.03 C543.55,428.32 543.48,429.22 542.96,430.03 C541.63,432.13 541.78,433.00 543.49,433.00 C544.35,433.00 546.67,429.62 548.99,425.02 ZM 374.00 426.00 C374.00,424.25 374.67,424.00 379.35,424.00 C386.03,424.00 388.93,421.56 387.41,417.22 C386.50,414.62 386.13,414.49 378.73,414.21 L 371.00 413.92 L 371.00 420.96 C371.00,426.55 371.31,428.00 372.50,428.00 C373.33,428.00 374.00,427.11 374.00,426.00 ZM 404.43 426.43 C405.29,425.56 406.00,423.57 406.00,422.00 C406.00,417.95 403.61,416.00 398.65,416.00 C393.22,416.00 390.00,418.23 390.00,422.00 C390.00,423.85 390.80,425.45 392.22,426.44 C395.13,428.48 402.39,428.47 404.43,426.43 ZM 419.40 423.95 C421.24,419.36 422.35,419.49 424.00,424.51 C424.86,427.10 425.73,428.00 427.37,428.00 C429.06,428.00 430.22,426.70 432.29,422.48 C435.46,416.01 435.47,416.00 433.44,416.00 C432.55,416.00 430.98,418.03 429.77,420.75 L 427.65 425.50 L 425.57 420.77 C422.83,414.50 419.91,414.23 417.98,420.05 C417.25,422.28 416.32,424.30 415.92,424.55 C415.52,424.79 414.36,422.97 413.35,420.50 C412.20,417.70 410.87,416.01 409.82,416.00 C408.36,416.00 408.47,416.75 410.74,422.00 C412.79,426.76 413.79,428.00 415.56,428.00 C417.23,428.00 418.19,426.99 419.40,423.95 ZM 451.25 426.75 C454.05,424.61 454.45,420.45 452.09,418.09 C449.24,415.24 441.81,415.19 439.00,418.00 C436.42,420.58 436.47,422.81 439.17,425.69 C441.64,428.31 448.43,428.91 451.25,426.75 ZM 459.00 424.02 C459.00,419.84 459.40,419.53 465.92,418.78 C467.25,418.63 468.53,417.94 468.76,417.25 C469.27,415.70 463.72,415.54 460.93,417.04 C459.60,417.75 459.00,417.75 459.00,417.04 C459.00,416.47 458.33,416.00 457.50,416.00 C456.33,416.00 456.00,417.33 456.00,422.00 C456.00,426.67 456.33,428.00 457.50,428.00 C458.58,428.00 459.00,426.89 459.00,424.02 ZM 484.25 426.75 C487.12,424.56 487.45,420.45 484.97,417.97 C483.11,416.11 481.97,415.84 477.72,416.25 C470.34,416.96 467.79,421.25 472.04,425.81 C474.37,428.32 481.49,428.86 484.25,426.75 ZM 506.00 419.78 C506.00,413.53 505.70,412.00 504.50,412.00 C503.57,412.00 503.00,412.94 503.00,414.48 C503.00,416.84 502.79,416.93 498.53,416.35 C492.89,415.58 489.00,417.76 489.00,421.69 C489.00,426.52 491.47,428.00 499.14,427.77 L 506.00 427.56 L 506.00 419.78 ZM 532.44 426.42 C534.50,424.36 534.43,419.57 532.31,417.45 C530.98,416.12 529.48,415.88 525.31,416.31 C520.20,416.83 520.00,416.76 520.00,414.43 C520.00,412.94 519.42,412.00 518.50,412.00 C517.30,412.00 517.00,413.53 517.00,419.78 L 517.00 427.56 L 523.94 427.77 C529.11,427.93 531.27,427.58 532.44,426.42 ZM 470.85 354.37 C478.32,352.23 481.81,350.43 485.84,346.64 C489.97,342.75 491.73,339.44 494.13,331.06 C497.93,317.74 495.55,291.98 489.03,275.92 C485.97,268.39 477.33,255.00 475.52,255.00 C474.86,255.00 473.45,254.05 472.40,252.89 C471.36,251.73 468.29,249.66 465.59,248.29 C452.08,241.45 437.62,248.35 424.81,267.75 C419.53,275.75 416.66,283.06 413.97,295.36 C410.49,311.30 412.04,333.77 417.01,339.50 C417.97,340.60 419.25,342.48 419.87,343.67 C420.96,345.79 426.21,349.39 432.73,352.48 C440.28,356.06 461.34,357.11 470.85,354.37 ZM 853.23 354.35 C855.58,353.44 858.74,351.56 860.25,350.16 L 863.00 347.63 L 863.00 298.24 L 863.00 248.85 L 860.17 246.02 C858.62,244.46 855.58,242.70 853.42,242.10 C850.67,241.34 804.96,241.02 700.50,241.05 L 551.50 241.08 L 547.01 243.29 C544.32,244.62 541.33,247.23 539.51,249.84 L 536.50 254.17 L 536.50 298.51 C536.50,342.31 536.53,342.87 538.63,345.17 C539.79,346.45 541.24,348.46 541.85,349.63 C542.45,350.80 544.87,352.72 547.22,353.88 L 551.50 356.00 L 700.23 356.00 C836.04,356.00 849.33,355.86 853.23,354.35 ZM 377.19 352.95 C387.12,350.41 389.11,349.14 393.20,342.65 L 396.45 337.50 L 396.20 324.00 C395.93,309.54 394.70,299.30 393.02,297.62 C391.89,296.49 389.40,297.08 377.50,301.28 C373.65,302.64 370.37,304.39 370.21,305.18 C370.06,305.96 371.73,308.06 373.93,309.82 C379.14,314.01 380.83,319.45 378.47,324.42 C375.43,330.83 370.70,333.00 359.75,333.00 C343.21,333.00 337.52,324.15 339.80,302.00 C340.40,296.23 341.63,289.70 342.54,287.50 C347.45,275.62 350.04,271.20 354.46,267.13 C358.86,263.09 359.53,262.80 363.52,263.25 C366.71,263.61 369.13,264.83 372.84,267.96 C378.56,272.78 380.35,272.75 384.56,267.74 C386.84,265.04 387.15,263.91 386.75,259.75 C386.16,253.66 383.16,250.34 374.26,245.96 C368.48,243.11 367.06,242.81 361.82,243.28 C342.76,245.01 325.19,269.75 320.47,301.50 C317.46,321.71 320.38,335.30 329.67,344.35 C339.62,354.04 359.11,357.57 377.19,352.95 ZM 297.73 351.63 C302.36,349.22 305.17,345.40 306.49,339.71 C309.00,328.92 302.91,325.39 289.65,329.95 C281.50,332.75 270.82,334.00 254.97,334.00 C239.79,334.00 236.32,333.14 235.32,329.13 C234.79,327.02 235.40,325.99 239.05,322.85 C241.45,320.78 246.81,317.68 250.96,315.95 C255.11,314.22 260.52,311.96 263.00,310.93 C265.48,309.90 269.30,308.60 271.50,308.04 C280.41,305.77 285.42,300.42 283.21,295.55 C282.39,293.77 280.40,292.57 275.80,291.09 C264.61,287.52 260.65,285.92 252.58,281.72 C242.87,276.67 237.00,271.36 237.00,267.63 C237.00,263.48 240.38,262.73 256.50,263.30 C270.06,263.77 283.16,265.97 293.78,269.55 C300.96,271.97 304.51,271.50 307.18,267.75 C311.68,261.45 309.65,247.03 303.84,243.91 C300.74,242.26 249.81,240.76 233.92,241.86 C219.84,242.83 217.40,243.74 213.89,249.30 C211.07,253.77 211.88,263.39 215.63,269.87 C218.82,275.39 231.76,288.19 237.64,291.63 C244.95,295.92 244.33,297.50 232.59,304.50 C223.34,310.01 219.19,313.35 215.75,318.03 C209.88,326.01 209.77,342.32 215.56,346.87 C222.14,352.05 289.43,355.95 297.73,351.63 ZM 189.23 349.64 C196.39,344.18 196.51,343.22 196.41,293.50 C196.31,245.45 196.08,243.12 190.97,240.48 C186.69,238.27 177.22,238.57 173.17,241.04 C165.64,245.63 160.62,251.98 147.33,273.75 C146.57,274.99 145.57,276.00 145.09,276.00 C144.12,276.00 138.51,265.62 132.51,252.73 C129.62,246.53 122.14,240.57 115.34,239.06 C112.13,238.34 109.13,237.25 108.67,236.63 C108.07,235.81 107.71,235.84 107.34,236.75 C107.06,237.44 105.77,238.00 104.47,238.00 C103.17,238.00 100.89,239.05 99.40,240.33 C96.81,242.56 96.62,243.37 95.26,258.08 C93.71,274.77 92.96,340.57 94.27,345.24 C95.33,349.05 98.65,350.90 105.57,351.55 C112.46,352.19 116.02,350.77 117.02,347.00 C117.42,345.50 116.56,339.96 114.88,333.17 C111.05,317.74 109.63,303.28 110.31,286.86 C111.07,268.64 113.58,262.72 118.46,267.60 C120.73,269.87 123.94,276.43 125.71,282.41 C126.54,285.21 128.00,289.08 128.95,291.00 C129.90,292.92 132.15,300.19 133.95,307.14 C137.33,320.13 140.03,325.00 143.89,325.00 C146.96,325.00 148.77,321.84 151.07,312.50 C152.28,307.55 153.66,303.07 154.14,302.55 C154.61,302.03 155.00,300.37 155.00,298.86 C155.00,297.35 155.40,295.87 155.89,295.57 C156.38,295.27 157.08,293.81 157.45,292.33 C157.82,290.85 159.45,286.82 161.06,283.36 C162.68,279.91 164.00,276.72 164.00,276.27 C164.00,275.82 165.40,273.75 167.12,271.67 C171.06,266.89 173.99,267.00 175.69,272.00 C177.32,276.77 177.25,301.76 175.59,310.50 C174.86,314.35 172.85,323.01 171.13,329.73 C167.29,344.75 167.22,347.31 170.57,350.66 C172.88,352.98 173.74,353.19 179.35,352.83 C184.24,352.52 186.35,351.83 189.23,349.64 ZM 344.00 543.42 L 344.00 534.83 L 361.59 535.17 C378.68,535.49 379.23,535.57 381.09,537.86 C383.46,540.79 383.54,545.28 381.28,549.10 L 379.57 552.00 L 361.78 552.00 L 344.00 552.00 L 344.00 543.42 ZM 404.67 570.33 C404.30,569.97 404.00,566.14 404.00,561.83 L 404.00 554.00 L 421.43 554.00 C431.02,554.00 439.98,554.42 441.34,554.94 C446.10,556.75 446.17,567.69 441.44,569.85 C438.72,571.09 405.85,571.52 404.67,570.33 ZM 404.67 548.33 C404.30,547.97 404.00,544.78 404.00,541.25 L 404.00 534.84 L 422.08 535.17 C438.61,535.47 440.29,535.67 441.58,537.44 C443.61,540.21 443.33,544.67 441.00,547.00 C439.16,548.84 437.67,549.00 422.17,549.00 C412.91,549.00 405.03,548.70 404.67,548.33 ZM 467.67 552.33 C467.30,551.97 467.00,547.92 467.00,543.33 L 467.00 535.00 L 480.36 535.00 C499.38,535.00 502.57,535.56 504.06,539.14 C505.65,542.99 504.58,549.08 501.92,551.25 C500.08,552.75 497.55,553.00 484.06,553.00 C475.41,553.00 468.03,552.70 467.67,552.33 ZM 374.67 421.33 C374.30,420.97 374.00,419.84 374.00,418.83 C374.00,417.28 374.83,417.00 379.50,417.00 C383.66,417.00 385.00,417.36 385.00,418.46 C385.00,419.27 384.13,420.40 383.07,420.96 C380.90,422.13 375.69,422.35 374.67,421.33 ZM 394.58 424.68 C393.59,423.96 392.95,422.50 393.15,421.43 C393.44,419.90 394.50,419.44 398.26,419.20 C402.91,418.90 403.00,418.95 403.00,421.84 C403.00,425.93 398.41,427.48 394.58,424.68 ZM 442.44 424.53 C440.67,423.19 441.01,423.06 446.50,423.07 C452.20,423.07 452.38,423.14 450.00,424.50 C446.78,426.34 444.85,426.35 442.44,424.53 ZM 441.00 420.11 C441.00,418.86 445.78,417.80 448.10,418.53 C449.16,418.87 449.77,419.56 449.46,420.07 C448.72,421.26 441.00,421.29 441.00,420.11 ZM 475.75 425.31 C472.12,424.36 474.20,423.00 479.25,423.03 C484.08,423.06 484.35,423.18 482.56,424.53 C480.62,426.00 479.06,426.18 475.75,425.31 ZM 474.00 420.07 C474.00,418.67 477.81,417.73 480.61,418.44 C481.97,418.78 482.81,419.50 482.48,420.03 C481.71,421.27 474.00,421.31 474.00,420.07 ZM 493.58 424.68 C492.59,423.96 491.95,422.50 492.15,421.43 C492.43,419.93 493.50,419.43 496.91,419.19 C502.57,418.78 504.66,421.20 501.43,424.43 C499.51,426.34 496.01,426.46 493.58,424.68 ZM 521.95 424.16 C519.90,422.50 519.76,422.00 520.90,420.61 C522.74,418.41 529.84,418.42 530.69,420.64 C532.36,424.97 526.08,427.51 521.95,424.16 ZM 451.50 334.52 C450.95,334.32 448.34,333.87 445.71,333.51 C440.07,332.75 434.68,328.57 432.45,323.23 C430.06,317.51 430.57,303.14 433.55,292.01 C436.42,281.30 439.29,275.82 445.33,269.51 C454.43,260.02 462.21,263.05 470.19,279.21 C475.36,289.67 477.01,296.96 476.94,309.14 C476.87,323.05 475.14,327.51 468.40,331.14 C463.99,333.51 454.15,335.48 451.50,334.52 ZM 656.63 326.54 C650.88,324.89 646.80,321.27 643.87,315.23 C642.12,311.61 641.83,309.61 642.24,303.88 C643.09,292.02 650.10,284.47 662.17,282.43 C667.00,281.61 675.97,284.26 680.08,287.72 C684.32,291.29 687.98,299.31 687.97,305.00 C687.95,312.81 682.43,322.12 675.78,325.60 C671.76,327.70 662.28,328.16 656.63,326.54 ZM 671.74 315.44 C677.71,311.52 678.37,302.22 673.05,296.90 C667.82,291.67 661.94,291.86 656.34,297.46 C652.45,301.35 652.01,305.48 654.89,310.90 C658.32,317.34 665.77,319.34 671.74,315.44 ZM 725.57 324.84 C718.80,320.36 715.04,314.00 715.02,307.00 C715.00,298.88 716.67,294.22 721.34,289.36 C724.70,285.86 726.72,284.71 731.80,283.44 C738.69,281.71 742.23,282.09 748.43,285.23 C755.83,288.98 760.26,296.41 759.80,304.31 L 759.50 309.50 L 743.25 309.77 C733.55,309.94 727.00,310.44 727.00,311.02 C727.00,312.52 730.78,315.97 733.61,317.04 C737.39,318.48 740.13,318.21 744.26,316.00 C746.59,314.75 749.90,314.00 753.06,314.00 C757.86,314.00 758.10,314.12 757.46,316.25 C755.45,322.88 746.48,328.00 736.86,328.00 C731.22,328.00 729.70,327.57 725.57,324.84 ZM 747.50 298.51 C747.50,296.19 742.00,293.12 737.70,293.05 C732.80,292.96 726.01,297.58 727.49,299.99 C727.92,300.68 731.69,300.97 737.83,300.79 C746.72,300.52 747.50,300.34 747.50,298.51 ZM 608.31 325.75 C607.35,324.27 606.60,277.95 607.46,273.37 L 608.05 270.21 L 619.78 269.83 C637.10,269.26 637.00,269.23 637.00,275.04 L 637.00 279.86 L 631.75 280.43 C628.86,280.74 624.92,281.11 623.00,281.25 C619.74,281.48 619.48,281.75 619.19,285.21 C618.65,291.78 619.96,292.88 628.76,293.21 L 636.50 293.50 L 636.50 298.50 L 636.50 303.50 L 628.83 304.00 C624.61,304.27 620.79,304.87 620.33,305.33 C619.87,305.79 619.44,310.36 619.37,315.49 C619.29,320.62 618.93,325.30 618.56,325.91 C617.63,327.41 609.30,327.29 608.31,325.75 ZM 692.99 325.30 C692.98,324.31 692.92,318.55 692.86,312.50 C692.79,306.45 692.79,297.56 692.87,292.75 L 693.00 284.00 L 697.44 284.00 C699.88,284.00 702.15,284.43 702.48,284.97 C702.84,285.55 704.41,285.30 706.45,284.32 C710.94,282.18 713.00,283.10 712.98,287.22 C712.97,291.30 712.31,292.31 708.37,294.32 C706.65,295.20 704.89,296.73 704.45,297.71 C704.02,298.70 703.40,305.58 703.08,313.00 L 702.50 326.50 L 697.75 326.80 C693.73,327.06 693.00,326.83 692.99,325.30 ZM 763.00 325.17 C763.00,324.16 764.78,320.90 766.96,317.92 C769.14,314.94 771.86,310.78 773.02,308.68 C775.65,303.88 774.83,300.92 768.44,292.14 C765.96,288.72 764.19,285.50 764.52,284.96 C764.85,284.43 767.68,284.01 770.81,284.02 C776.47,284.04 776.52,284.07 780.00,288.94 C783.91,294.41 784.79,294.30 788.02,287.95 C789.38,285.29 790.75,284.10 792.95,283.66 C796.01,283.05 802.00,283.79 802.00,284.78 C802.00,285.56 795.00,298.07 792.75,301.29 C791.69,302.82 791.03,304.64 791.30,305.34 C791.57,306.04 794.78,310.76 798.44,315.84 C802.09,320.91 804.81,325.49 804.48,326.03 C804.15,326.56 801.24,327.00 798.00,327.00 L 792.12 327.00 L 788.42 321.00 C786.38,317.70 784.22,315.00 783.61,315.01 C783.00,315.02 780.83,317.72 778.79,321.01 L 775.09 327.00 L 769.04 327.00 C763.85,327.00 763.00,326.74 763.00,325.17 Z" fill="rgb(167,166,156)"/>
<path d="M 80.75 840.24 L -0.00 839.99 L -0.00 419.99 L 0.00 0.00 L 476.50 0.00 L 953.00 0.00 L 953.00 420.25 L 953.00 840.50 L 557.25 840.50 C339.59,840.50 125.16,840.38 80.75,840.24 ZM 224.43 631.25 C224.05,628.64 223.40,625.83 222.98,625.00 C222.55,624.17 221.88,620.44 221.48,616.71 C220.60,608.42 219.05,608.37 217.35,616.57 C216.68,619.83 215.67,624.53 215.11,627.00 C213.13,635.71 213.27,636.00 219.56,636.00 L 225.12 636.00 L 224.43 631.25 ZM 205.00 629.84 C205.00,628.72 205.62,625.49 206.37,622.65 C208.24,615.61 210.21,604.88 209.72,604.39 C209.28,603.95 195.20,623.31 194.35,625.53 C193.79,626.99 202.80,633.24 204.21,632.37 C204.64,632.10 205.00,630.97 205.00,629.84 ZM 243.02 627.98 L 245.41 626.18 L 241.04 619.84 C234.10,609.77 229.65,604.00 228.83,604.00 C228.41,604.00 228.29,604.59 228.56,605.30 C228.98,606.39 231.02,615.53 233.64,628.00 C234.73,633.20 234.78,633.24 237.81,631.45 C239.36,630.54 241.71,628.97 243.02,627.98 ZM 221.00 597.96 C221.00,597.38 225.50,589.24 231.00,579.85 C236.50,570.47 241.00,562.59 241.00,562.35 C241.00,562.10 242.57,559.44 244.50,556.43 C246.43,553.42 248.00,550.77 248.00,550.53 C248.00,550.30 249.66,547.27 251.69,543.80 C257.63,533.65 264.25,527.40 274.50,522.26 C290.33,514.31 296.78,509.25 300.59,501.78 C301.92,499.19 303.00,496.83 303.00,496.53 C303.00,495.26 299.85,496.23 293.89,499.32 C290.38,501.14 279.22,505.98 269.11,510.07 C256.92,514.99 249.84,518.42 248.13,520.23 C245.61,522.89 243.56,526.05 234.81,540.74 C232.44,544.72 230.01,547.98 229.41,547.99 C228.80,547.99 227.63,545.19 226.79,541.75 C225.22,535.26 225.79,532.00 228.50,532.00 C229.37,532.00 229.71,531.40 229.36,530.50 C228.68,528.72 216.54,528.32 215.47,530.05 C215.12,530.62 213.83,534.76 212.61,539.23 C211.39,543.71 209.96,547.51 209.42,547.69 C208.88,547.87 204.92,542.17 200.63,535.02 C195.87,527.10 191.38,520.90 189.16,519.16 C187.15,517.58 178.98,513.69 171.00,510.52 C163.02,507.34 152.31,502.78 147.19,500.37 C142.07,497.97 137.46,496.00 136.94,496.00 C133.83,496.00 138.89,504.87 145.10,510.31 C147.94,512.79 155.45,517.45 161.79,520.66 C176.16,527.94 180.88,532.89 192.68,553.07 C197.25,560.89 201.00,567.43 201.00,567.59 C201.00,567.75 203.93,572.89 207.50,579.00 C211.07,585.11 214.00,590.32 214.00,590.58 C214.00,590.83 215.18,592.83 216.63,595.02 C219.18,598.88 221.00,600.10 221.00,597.96 ZM 343.79 566.75 L 344.08 558.00 L 361.92 558.00 C374.98,558.00 380.03,558.33 380.78,559.25 C381.34,559.94 382.13,564.01 382.52,568.30 C383.23,575.99 383.29,576.10 385.87,575.80 C388.07,575.55 388.55,574.93 388.83,572.03 C389.40,566.06 387.99,559.90 385.48,557.39 C383.25,555.16 383.22,554.96 384.91,553.76 C390.54,549.79 389.65,535.50 383.57,532.20 C380.98,530.79 377.17,530.53 359.00,530.52 L 337.50 530.50 L 337.23 553.31 L 336.96 576.13 L 340.23 575.81 L 343.50 575.50 L 343.79 566.75 ZM 445.72 574.03 C449.58,571.67 450.20,569.64 449.80,560.49 C449.52,554.00 449.31,553.43 446.75,552.20 C443.98,550.88 443.03,549.00 445.14,549.00 C447.16,549.00 448.94,545.61 448.97,541.70 C449.01,536.61 446.59,532.20 443.23,531.26 C441.73,530.84 431.05,530.50 419.50,530.50 L 398.50 530.50 L 398.23 551.98 C398.08,563.79 398.18,574.02 398.45,574.73 C398.82,575.70 403.99,576.00 420.72,576.00 C440.61,575.99 442.78,575.82 445.72,574.03 ZM 467.00 567.00 L 467.00 558.00 L 485.42 558.00 C503.84,558.00 503.85,558.00 506.96,555.38 C510.07,552.76 510.07,552.75 509.79,543.74 C509.51,535.15 509.36,534.61 506.68,532.60 C504.01,530.62 502.65,530.50 482.18,530.50 L 460.50 530.50 L 460.23 553.25 L 459.96 576.00 L 463.48 576.00 L 467.00 576.00 L 467.00 567.00 ZM 540.00 565.50 L 540.00 555.00 L 557.88 555.00 C572.48,555.00 575.98,554.73 576.99,553.51 C577.67,552.69 577.96,551.34 577.64,550.51 C577.15,549.24 574.15,549.00 558.49,549.00 L 539.91 549.00 L 540.20 542.25 L 540.50 535.50 L 559.82 535.23 L 579.13 534.96 L 578.82 532.73 C578.50,530.51 578.38,530.50 556.88,530.23 L 535.27 529.96 L 534.64 533.73 C533.81,538.80 533.83,574.49 534.67,575.33 C535.03,575.70 536.38,576.00 537.67,576.00 C539.96,576.00 540.00,575.83 540.00,565.50 ZM 590.00 553.00 L 590.00 530.00 L 587.50 530.00 L 585.00 530.00 L 585.00 553.00 L 585.00 576.00 L 587.50 576.00 L 590.00 576.00 L 590.00 553.00 ZM 656.00 552.93 L 656.00 529.87 L 653.25 530.18 L 650.50 530.50 L 650.23 549.75 C650.08,560.34 649.69,569.00 649.36,569.00 C649.03,569.00 643.40,563.71 636.85,557.25 C609.62,530.39 608.46,529.48 602.37,530.17 L 599.50 530.50 L 599.31 551.31 C599.20,562.76 599.36,572.77 599.66,573.56 C600.35,575.37 603.40,575.43 604.85,573.68 C605.54,572.85 606.06,565.59 606.23,554.46 L 606.50 536.57 L 619.37 549.03 C647.81,576.59 647.04,575.95 651.75,575.98 L 656.00 576.00 L 656.00 552.93 ZM 671.50 553.11 C671.50,533.59 671.29,530.59 669.89,529.70 C669.00,529.14 667.54,528.96 666.64,529.31 C665.19,529.87 665.00,532.57 665.00,553.03 L 665.00 576.13 L 668.25 575.81 L 671.50 575.50 L 671.50 553.11 ZM 713.56 568.00 C715.80,563.88 720.02,556.22 722.96,551.00 C730.37,537.78 734.00,531.04 734.00,530.48 C734.00,529.42 728.18,530.09 727.26,531.25 C726.72,531.94 724.46,535.88 722.23,540.00 C713.25,556.68 706.43,568.36 705.49,568.66 C704.95,568.84 704.02,567.97 703.43,566.74 C702.34,564.44 696.62,553.99 692.07,545.98 C690.66,543.50 688.15,538.89 686.50,535.74 C683.79,530.56 683.19,530.01 680.25,530.00 C678.46,530.00 677.00,530.20 677.00,530.44 C677.00,530.92 680.25,536.96 689.44,553.50 C692.79,559.55 696.88,567.10 698.52,570.28 C701.46,575.99 701.55,576.07 705.50,575.78 C709.37,575.51 709.63,575.25 713.56,568.00 ZM 746.00 553.00 L 746.00 530.00 L 743.00 530.00 L 740.00 530.00 L 740.00 553.00 L 740.00 576.00 L 743.00 576.00 L 746.00 576.00 L 746.00 553.00 ZM 801.57 574.54 C808.33,571.71 810.30,560.61 805.08,554.77 L 802.17 551.50 L 784.33 551.00 C766.34,550.50 762.91,549.81 761.62,546.45 C760.49,543.50 760.98,540.25 762.91,537.86 C764.78,535.55 765.18,535.50 781.48,535.50 C799.55,535.50 799.41,535.46 801.04,541.50 C801.70,543.95 805.77,544.76 806.60,542.61 C807.69,539.75 804.98,534.05 801.67,532.23 C799.01,530.78 795.74,530.50 781.50,530.50 C762.65,530.50 758.91,531.34 756.45,536.09 C754.71,539.46 754.56,546.30 756.16,549.30 C759.33,555.21 762.40,556.00 782.41,556.00 C800.53,556.00 802.01,556.52 801.98,562.90 C801.95,570.19 799.80,571.00 780.57,571.00 C766.33,571.00 764.83,570.83 763.00,569.00 C761.90,567.90 761.00,565.88 761.00,564.50 C761.00,562.39 760.53,562.00 758.00,562.00 C755.26,562.00 755.00,562.29 755.00,565.37 C755.00,569.07 758.04,573.67 761.39,575.02 C762.55,575.49 771.28,575.90 780.78,575.94 C793.81,575.98 798.93,575.64 801.57,574.54 ZM 185.99 564.51 C187.59,562.59 186.44,557.62 184.56,558.34 C183.82,558.62 181.36,559.41 179.10,560.09 C174.28,561.53 174.01,562.40 177.75,564.43 C181.30,566.35 184.44,566.39 185.99,564.51 ZM 261.10 564.28 C262.69,563.34 264.00,562.27 264.00,561.90 C264.00,561.53 261.68,560.47 258.85,559.55 C253.45,557.78 252.05,558.29 252.02,562.05 C251.98,566.00 256.36,567.08 261.10,564.28 ZM 179.56 551.57 C182.23,549.60 180.79,548.62 173.00,547.10 C169.43,546.41 163.66,544.71 160.18,543.32 C156.70,541.94 153.58,541.08 153.25,541.42 C152.25,542.42 159.05,548.82 163.43,550.98 C168.24,553.36 176.71,553.67 179.56,551.57 ZM 275.64 550.93 C280.17,548.74 287.01,541.84 285.24,541.25 C284.66,541.05 281.56,542.00 278.34,543.35 C275.13,544.70 269.58,546.36 266.00,547.04 C258.27,548.50 256.73,549.57 259.44,551.57 C262.31,553.68 270.63,553.36 275.64,550.93 ZM 175.00 539.17 C175.00,537.46 170.15,533.92 160.98,528.96 C155.77,526.13 149.13,522.04 146.23,519.86 C143.33,517.69 140.51,516.18 139.96,516.53 C138.45,517.46 143.80,526.61 147.52,529.45 C156.11,536.00 175.00,542.69 175.00,539.17 ZM 276.40 537.42 C278.00,536.64 279.81,536.00 280.43,536.00 C282.97,536.00 293.41,528.02 296.10,524.02 C298.66,520.21 299.92,516.00 298.50,516.00 C298.23,516.00 295.36,517.91 292.12,520.25 C285.96,524.71 283.01,526.49 274.06,531.16 C268.40,534.12 264.00,537.67 264.00,539.29 C264.00,540.55 272.70,539.24 276.40,537.42 ZM 548.99 425.02 C553.54,415.96 553.53,416.00 551.49,416.00 C550.65,416.00 548.99,418.02 547.79,420.50 C546.59,422.98 545.24,425.00 544.79,425.00 C544.34,425.00 542.99,422.98 541.79,420.50 C540.35,417.55 538.96,416.00 537.73,416.00 C536.06,416.00 536.20,416.62 539.11,421.75 C540.90,424.91 542.71,427.74 543.13,428.03 C543.55,428.32 543.48,429.22 542.96,430.03 C541.63,432.13 541.78,433.00 543.49,433.00 C544.35,433.00 546.67,429.62 548.99,425.02 ZM 374.00 426.00 C374.00,424.25 374.67,424.00 379.35,424.00 C386.03,424.00 388.93,421.56 387.41,417.22 C386.50,414.62 386.13,414.49 378.73,414.21 L 371.00 413.92 L 371.00 420.96 C371.00,426.55 371.31,428.00 372.50,428.00 C373.33,428.00 374.00,427.11 374.00,426.00 ZM 404.43 426.43 C405.29,425.56 406.00,423.57 406.00,422.00 C406.00,417.95 403.61,416.00 398.65,416.00 C393.22,416.00 390.00,418.23 390.00,422.00 C390.00,423.85 390.80,425.45 392.22,426.44 C395.13,428.48 402.39,428.47 404.43,426.43 ZM 419.40 423.95 C421.24,419.36 422.35,419.49 424.00,424.51 C424.86,427.10 425.73,428.00 427.37,428.00 C429.06,428.00 430.22,426.70 432.29,422.48 C435.46,416.01 435.47,416.00 433.44,416.00 C432.55,416.00 430.98,418.03 429.77,420.75 L 427.65 425.50 L 425.57 420.77 C422.83,414.50 419.91,414.23 417.98,420.05 C417.25,422.28 416.32,424.30 415.92,424.55 C415.52,424.79 414.36,422.97 413.35,420.50 C412.20,417.70 410.87,416.01 409.82,416.00 C408.36,416.00 408.47,416.75 410.74,422.00 C412.79,426.76 413.79,428.00 415.56,428.00 C417.23,428.00 418.19,426.99 419.40,423.95 ZM 451.25 426.75 C454.05,424.61 454.45,420.45 452.09,418.09 C449.24,415.24 441.81,415.19 439.00,418.00 C436.42,420.58 436.47,422.81 439.17,425.69 C441.64,428.31 448.43,428.91 451.25,426.75 ZM 459.00 424.02 C459.00,419.84 459.40,419.53 465.92,418.78 C467.25,418.63 468.53,417.94 468.76,417.25 C469.27,415.70 463.72,415.54 460.93,417.04 C459.60,417.75 459.00,417.75 459.00,417.04 C459.00,416.47 458.33,416.00 457.50,416.00 C456.33,416.00 456.00,417.33 456.00,422.00 C456.00,426.67 456.33,428.00 457.50,428.00 C458.58,428.00 459.00,426.89 459.00,424.02 ZM 484.25 426.75 C487.12,424.56 487.45,420.45 484.97,417.97 C483.11,416.11 481.97,415.84 477.72,416.25 C470.34,416.96 467.79,421.25 472.04,425.81 C474.37,428.32 481.49,428.86 484.25,426.75 ZM 506.00 419.78 C506.00,413.53 505.70,412.00 504.50,412.00 C503.57,412.00 503.00,412.94 503.00,414.48 C503.00,416.84 502.79,416.93 498.53,416.35 C492.89,415.58 489.00,417.76 489.00,421.69 C489.00,426.52 491.47,428.00 499.14,427.77 L 506.00 427.56 L 506.00 419.78 ZM 532.44 426.42 C534.50,424.36 534.43,419.57 532.31,417.45 C530.98,416.12 529.48,415.88 525.31,416.31 C520.20,416.83 520.00,416.76 520.00,414.43 C520.00,412.94 519.42,412.00 518.50,412.00 C517.30,412.00 517.00,413.53 517.00,419.78 L 517.00 427.56 L 523.94 427.77 C529.11,427.93 531.27,427.58 532.44,426.42 ZM 470.85 354.37 C478.32,352.23 481.81,350.43 485.84,346.64 C489.97,342.75 491.73,339.44 494.13,331.06 C497.93,317.74 495.55,291.98 489.03,275.92 C485.97,268.39 477.33,255.00 475.52,255.00 C474.86,255.00 473.45,254.05 472.40,252.89 C471.36,251.73 468.29,249.66 465.59,248.29 C452.08,241.45 437.62,248.35 424.81,267.75 C419.53,275.75 416.66,283.06 413.97,295.36 C410.49,311.30 412.04,333.77 417.01,339.50 C417.97,340.60 419.25,342.48 419.87,343.67 C420.96,345.79 426.21,349.39 432.73,352.48 C440.28,356.06 461.34,357.11 470.85,354.37 ZM 853.23 354.35 C855.58,353.44 858.74,351.56 860.25,350.16 L 863.00 347.63 L 863.00 298.24 L 863.00 248.85 L 860.17 246.02 C858.62,244.46 855.58,242.70 853.42,242.10 C850.67,241.34 804.96,241.02 700.50,241.05 L 551.50 241.08 L 547.01 243.29 C544.32,244.62 541.33,247.23 539.51,249.84 L 536.50 254.17 L 536.50 298.51 C536.50,342.31 536.53,342.87 538.63,345.17 C539.79,346.45 541.24,348.46 541.85,349.63 C542.45,350.80 544.87,352.72 547.22,353.88 L 551.50 356.00 L 700.23 356.00 C836.04,356.00 849.33,355.86 853.23,354.35 ZM 377.19 352.95 C387.12,350.41 389.11,349.14 393.20,342.65 L 396.45 337.50 L 396.20 324.00 C395.93,309.54 394.70,299.30 393.02,297.62 C391.89,296.49 389.40,297.08 377.50,301.28 C373.65,302.64 370.37,304.39 370.21,305.18 C370.06,305.96 371.73,308.06 373.93,309.82 C379.14,314.01 380.83,319.45 378.47,324.42 C375.43,330.83 370.70,333.00 359.75,333.00 C343.21,333.00 337.52,324.15 339.80,302.00 C340.40,296.23 341.63,289.70 342.54,287.50 C347.45,275.62 350.04,271.20 354.46,267.13 C358.86,263.09 359.53,262.80 363.52,263.25 C366.71,263.61 369.13,264.83 372.84,267.96 C378.56,272.78 380.35,272.75 384.56,267.74 C386.84,265.04 387.15,263.91 386.75,259.75 C386.16,253.66 383.16,250.34 374.26,245.96 C368.48,243.11 367.06,242.81 361.82,243.28 C342.76,245.01 325.19,269.75 320.47,301.50 C317.46,321.71 320.38,335.30 329.67,344.35 C339.62,354.04 359.11,357.57 377.19,352.95 ZM 297.73 351.63 C302.36,349.22 305.17,345.40 306.49,339.71 C309.00,328.92 302.91,325.39 289.65,329.95 C281.50,332.75 270.82,334.00 254.97,334.00 C239.79,334.00 236.32,333.14 235.32,329.13 C234.79,327.02 235.40,325.99 239.05,322.85 C241.45,320.78 246.81,317.68 250.96,315.95 C255.11,314.22 260.52,311.96 263.00,310.93 C265.48,309.90 269.30,308.60 271.50,308.04 C280.41,305.77 285.42,300.42 283.21,295.55 C282.39,293.77 280.40,292.57 275.80,291.09 C264.61,287.52 260.65,285.92 252.58,281.72 C242.87,276.67 237.00,271.36 237.00,267.63 C237.00,263.48 240.38,262.73 256.50,263.30 C270.06,263.77 283.16,265.97 293.78,269.55 C300.96,271.97 304.51,271.50 307.18,267.75 C311.68,261.45 309.65,247.03 303.84,243.91 C300.74,242.26 249.81,240.76 233.92,241.86 C219.84,242.83 217.40,243.74 213.89,249.30 C211.07,253.77 211.88,263.39 215.63,269.87 C218.82,275.39 231.76,288.19 237.64,291.63 C244.95,295.92 244.33,297.50 232.59,304.50 C223.34,310.01 219.19,313.35 215.75,318.03 C209.88,326.01 209.77,342.32 215.56,346.87 C222.14,352.05 289.43,355.95 297.73,351.63 ZM 189.23 349.64 C196.39,344.18 196.51,343.22 196.41,293.50 C196.31,245.45 196.08,243.12 190.97,240.48 C186.69,238.27 177.22,238.57 173.17,241.04 C165.64,245.63 160.62,251.98 147.33,273.75 C146.57,274.99 145.57,276.00 145.09,276.00 C144.12,276.00 138.51,265.62 132.51,252.73 C130.15,247.67 121.91,240.39 117.62,239.59 C115.73,239.23 113.94,238.28 113.63,237.47 C112.98,235.78 105.65,235.41 103.71,236.98 C96.06,243.15 96.82,241.25 95.26,258.08 C93.71,274.77 92.96,340.57 94.27,345.24 C95.33,349.05 98.65,350.90 105.57,351.55 C112.46,352.19 116.02,350.77 117.02,347.00 C117.42,345.50 116.56,339.96 114.88,333.17 C111.05,317.74 109.63,303.28 110.31,286.86 C111.07,268.64 113.58,262.72 118.46,267.60 C120.73,269.87 123.94,276.43 125.71,282.41 C126.54,285.21 128.00,289.08 128.95,291.00 C129.90,292.92 132.15,300.19 133.95,307.14 C137.33,320.13 140.03,325.00 143.89,325.00 C146.96,325.00 148.77,321.84 151.07,312.50 C152.28,307.55 153.66,303.07 154.14,302.55 C154.61,302.03 155.00,300.37 155.00,298.86 C155.00,297.35 155.40,295.87 155.89,295.57 C156.38,295.27 157.08,293.81 157.45,292.33 C157.82,290.85 159.45,286.82 161.06,283.36 C162.68,279.91 164.00,276.72 164.00,276.27 C164.00,275.82 165.40,273.75 167.12,271.67 C171.06,266.89 173.99,267.00 175.69,272.00 C177.32,276.77 177.25,301.76 175.59,310.50 C174.86,314.35 172.85,323.01 171.13,329.73 C167.29,344.75 167.22,347.31 170.57,350.66 C172.88,352.98 173.74,353.19 179.35,352.83 C184.24,352.52 186.35,351.83 189.23,349.64 ZM 344.00 543.43 L 344.00 534.87 L 360.97 535.18 C380.51,535.55 381.13,535.80 381.25,543.37 C381.29,546.51 380.73,548.64 379.50,550.00 C377.83,551.85 376.43,552.00 360.85,552.00 L 344.00 552.00 L 344.00 543.43 ZM 404.67 570.33 C404.30,569.97 404.00,566.14 404.00,561.83 L 404.00 554.00 L 421.43 554.00 C431.02,554.00 439.98,554.42 441.34,554.94 C446.10,556.75 446.17,567.69 441.44,569.85 C438.72,571.09 405.85,571.52 404.67,570.33 ZM 404.67 548.33 C404.30,547.97 404.00,544.78 404.00,541.25 L 404.00 534.84 L 422.08 535.17 C438.61,535.47 440.29,535.67 441.58,537.44 C443.61,540.21 443.33,544.67 441.00,547.00 C439.16,548.84 437.67,549.00 422.17,549.00 C412.91,549.00 405.03,548.70 404.67,548.33 ZM 467.67 552.33 C467.30,551.97 467.00,547.92 467.00,543.33 L 467.00 535.00 L 480.36 535.00 C499.38,535.00 502.57,535.56 504.06,539.14 C505.65,542.99 504.58,549.08 501.92,551.25 C500.08,552.75 497.55,553.00 484.06,553.00 C475.41,553.00 468.03,552.70 467.67,552.33 ZM 374.67 421.33 C374.30,420.97 374.00,419.84 374.00,418.83 C374.00,417.28 374.83,417.00 379.50,417.00 C383.66,417.00 385.00,417.36 385.00,418.46 C385.00,419.27 384.13,420.40 383.07,420.96 C380.90,422.13 375.69,422.35 374.67,421.33 ZM 394.58 424.68 C393.59,423.96 392.95,422.50 393.15,421.43 C393.44,419.90 394.50,419.44 398.26,419.20 C402.91,418.90 403.00,418.95 403.00,421.84 C403.00,425.93 398.41,427.48 394.58,424.68 ZM 442.44 424.53 C440.67,423.19 441.01,423.06 446.50,423.07 C452.20,423.07 452.38,423.14 450.00,424.50 C446.78,426.34 444.85,426.35 442.44,424.53 ZM 441.00 420.11 C441.00,418.86 445.78,417.80 448.10,418.53 C449.16,418.87 449.77,419.56 449.46,420.07 C448.72,421.26 441.00,421.29 441.00,420.11 ZM 475.75 425.31 C472.12,424.36 474.20,423.00 479.25,423.03 C484.08,423.06 484.35,423.18 482.56,424.53 C480.62,426.00 479.06,426.18 475.75,425.31 ZM 474.00 420.07 C474.00,418.67 477.81,417.73 480.61,418.44 C481.97,418.78 482.81,419.50 482.48,420.03 C481.71,421.27 474.00,421.31 474.00,420.07 ZM 493.58 424.68 C492.59,423.96 491.95,422.50 492.15,421.43 C492.43,419.93 493.50,419.43 496.91,419.19 C502.57,418.78 504.66,421.20 501.43,424.43 C499.51,426.34 496.01,426.46 493.58,424.68 ZM 521.95 424.16 C519.90,422.50 519.76,422.00 520.90,420.61 C522.74,418.41 529.84,418.42 530.69,420.64 C532.36,424.97 526.08,427.51 521.95,424.16 ZM 451.50 334.52 C450.95,334.32 448.34,333.87 445.71,333.51 C440.07,332.75 434.68,328.57 432.45,323.23 C430.06,317.51 430.57,303.14 433.55,292.01 C436.42,281.30 439.29,275.82 445.33,269.51 C454.43,260.02 462.21,263.05 470.19,279.21 C475.36,289.67 477.01,296.96 476.94,309.14 C476.87,323.05 475.14,327.51 468.40,331.14 C463.99,333.51 454.15,335.48 451.50,334.52 ZM 656.63 326.54 C650.88,324.89 646.80,321.27 643.87,315.23 C642.12,311.61 641.83,309.61 642.24,303.88 C643.09,292.02 650.10,284.47 662.17,282.43 C667.00,281.61 675.97,284.26 680.08,287.72 C684.32,291.29 687.98,299.31 687.97,305.00 C687.95,312.81 682.43,322.12 675.78,325.60 C671.76,327.70 662.28,328.16 656.63,326.54 ZM 671.74 315.44 C677.71,311.52 678.37,302.22 673.05,296.90 C667.82,291.67 661.94,291.86 656.34,297.46 C652.45,301.35 652.01,305.48 654.89,310.90 C658.32,317.34 665.77,319.34 671.74,315.44 ZM 725.57 324.84 C718.80,320.36 715.04,314.00 715.02,307.00 C715.00,298.88 716.67,294.22 721.34,289.36 C724.70,285.86 726.72,284.71 731.80,283.44 C738.69,281.71 742.23,282.09 748.43,285.23 C755.83,288.98 760.26,296.41 759.80,304.31 L 759.50 309.50 L 743.25 309.77 C733.55,309.94 727.00,310.44 727.00,311.02 C727.00,312.52 730.78,315.97 733.61,317.04 C737.39,318.48 740.13,318.21 744.26,316.00 C746.59,314.75 749.90,314.00 753.06,314.00 C757.86,314.00 758.10,314.12 757.46,316.25 C755.45,322.88 746.48,328.00 736.86,328.00 C731.22,328.00 729.70,327.57 725.57,324.84 ZM 747.50 298.51 C747.50,296.19 742.00,293.12 737.70,293.05 C732.80,292.96 726.01,297.58 727.49,299.99 C727.92,300.68 731.69,300.97 737.83,300.79 C746.72,300.52 747.50,300.34 747.50,298.51 ZM 608.31 325.75 C607.35,324.27 606.60,277.95 607.46,273.37 L 608.05 270.21 L 619.78 269.83 C637.10,269.26 637.00,269.23 637.00,275.04 L 637.00 279.86 L 631.75 280.43 C628.86,280.74 624.92,281.11 623.00,281.25 C619.74,281.48 619.48,281.75 619.19,285.21 C618.65,291.78 619.96,292.88 628.76,293.21 L 636.50 293.50 L 636.50 298.50 L 636.50 303.50 L 628.83 304.00 C624.61,304.27 620.79,304.87 620.33,305.33 C619.87,305.79 619.44,310.36 619.37,315.49 C619.29,320.62 618.93,325.30 618.56,325.91 C617.63,327.41 609.30,327.29 608.31,325.75 ZM 692.99 325.30 C692.98,324.31 692.92,318.55 692.86,312.50 C692.79,306.45 692.79,297.56 692.87,292.75 L 693.00 284.00 L 697.44 284.00 C699.88,284.00 702.15,284.43 702.48,284.97 C702.84,285.55 704.41,285.30 706.45,284.32 C710.94,282.18 713.00,283.10 712.98,287.22 C712.97,291.30 712.31,292.31 708.37,294.32 C706.65,295.20 704.89,296.73 704.45,297.71 C704.02,298.70 703.40,305.58 703.08,313.00 L 702.50 326.50 L 697.75 326.80 C693.73,327.06 693.00,326.83 692.99,325.30 ZM 763.00 325.17 C763.00,324.16 764.78,320.90 766.96,317.92 C769.14,314.94 771.86,310.78 773.02,308.68 C775.65,303.88 774.83,300.92 768.44,292.14 C765.96,288.72 764.19,285.50 764.52,284.96 C764.85,284.43 767.68,284.01 770.81,284.02 C776.47,284.04 776.52,284.07 780.00,288.94 C783.91,294.41 784.79,294.30 788.02,287.95 C789.38,285.29 790.75,284.10 792.95,283.66 C796.01,283.05 802.00,283.79 802.00,284.78 C802.00,285.56 795.00,298.07 792.75,301.29 C791.69,302.82 791.03,304.64 791.30,305.34 C791.57,306.04 794.78,310.76 798.44,315.84 C802.09,320.91 804.81,325.49 804.48,326.03 C804.15,326.56 801.24,327.00 798.00,327.00 L 792.12 327.00 L 788.42 321.00 C786.38,317.70 784.22,315.00 783.61,315.01 C783.00,315.02 780.83,317.72 778.79,321.01 L 775.09 327.00 L 769.04 327.00 C763.85,327.00 763.00,326.74 763.00,325.17 Z" fill="rgb(254,254,254)"/>
</g>
</svg>